<?xml version='1.0' encoding='UTF-8' standalone='no'?>
<svg xmlns:xlink="http://www.w3.org/1999/xlink" height="160pt" width="720pt" xmlns="http://www.w3.org/2000/svg" viewBox="0 0 720 160">
 <title>gl2ps_renderer figure</title>
 <desc>
Creator: GL2PS 1.4.0, (C) 1999-2017 C. Geuzaine
For: Octave
CreationDate: Sat Nov 28 21:22:09 2020
</desc>
 <defs/>
 <polygon fill="#ffffff" points="0,0 720,0 720,160 0,160"/>
 <g>
  <polygon fill="#ffffff" points="0,160 720,160 720,0 0,0" shape-rendering="crispEdges"/>
  <clipPath id="cp00720160">
   <polygon points="0,160 720,160 720,0 0,0"/>
  </clipPath>
  <g clip-path="url(#cp00720160)">
   <polyline fill="none" stroke-linecap="round" stroke-linejoin="round" stroke="#0071bc" stroke-width="0.5" points="107.76,33.2462 107.187,35.0095 105.687,36.0993 103.833,36.0993 102.333,35.0095 101.76,33.2462 102.333,31.4828 103.833,30.393 105.687,30.393 107.187,31.4828 107.76,33.2462"/>
   <polyline fill="none" stroke-linecap="round" stroke-linejoin="round" stroke="#0071bc" stroke-width="0.5" points="118.92,39.8162 118.347,41.5795 116.847,42.6693 114.993,42.6693 113.493,41.5795 112.92,39.8162 113.493,38.0528 114.993,36.963 116.847,36.963 118.347,38.0528 118.92,39.8162"/>
   <polyline fill="none" stroke-linecap="round" stroke-linejoin="round" stroke="#0071bc" stroke-width="0.5" points="130.08,57.9009 129.507,59.6642 128.007,60.7541 126.153,60.7541 124.653,59.6642 124.08,57.9009 124.653,56.1375 126.153,55.0477 128.007,55.0477 129.507,56.1375 130.08,57.9009"/>
   <polyline fill="none" stroke-linecap="round" stroke-linejoin="round" stroke="#0071bc" stroke-width="0.5" points="141.24,83.0264 140.667,84.7898 139.167,85.8796 137.313,85.8796 135.813,84.7898 135.24,83.0264 135.813,81.263 137.313,80.1732 139.167,80.1732 140.667,81.263 141.24,83.0264"/>
   <polyline fill="none" stroke-linecap="round" stroke-linejoin="round" stroke="#0071bc" stroke-width="0.5" points="152.4,108.977 151.827,110.74 150.327,111.83 148.473,111.83 146.973,110.74 146.4,108.977 146.973,107.214 148.473,106.124 150.327,106.124 151.827,107.214 152.4,108.977"/>
   <polyline fill="none" stroke-linecap="round" stroke-linejoin="round" stroke="#0071bc" stroke-width="0.5" points="163.56,129.333 162.987,131.096 161.487,132.186 159.633,132.186 158.133,131.096 157.56,129.333 158.133,127.569 159.633,126.48 161.487,126.48 162.987,127.569 163.56,129.333"/>
   <polyline fill="none" stroke-linecap="round" stroke-linejoin="round" stroke="#0071bc" stroke-width="0.5" points="174.72,139.058 174.147,140.821 172.647,141.911 170.793,141.911 169.293,140.821 168.72,139.058 169.293,137.295 170.793,136.205 172.647,136.205 174.147,137.295 174.72,139.058"/>
   <polyline fill="none" stroke-linecap="round" stroke-linejoin="round" stroke="#0071bc" stroke-width="0.5" points="185.88,135.747 185.307,137.51 183.807,138.6 181.953,138.6 180.453,137.51 179.88,135.747 180.453,133.984 181.953,132.894 183.807,132.894 185.307,133.984 185.88,135.747"/>
   <polyline fill="none" stroke-linecap="round" stroke-linejoin="round" stroke="#0071bc" stroke-width="0.5" points="197.04,120.219 196.467,121.982 194.967,123.072 193.113,123.072 191.613,121.982 191.04,120.219 191.613,118.455 193.113,117.365 194.967,117.365 196.467,118.455 197.04,120.219"/>
   <polyline fill="none" stroke-linecap="round" stroke-linejoin="round" stroke="#0071bc" stroke-width="0.5" points="208.2,96.3144 207.627,98.0777 206.127,99.1675 204.273,99.1675 202.773,98.0777 202.2,96.3144 202.773,94.551 204.273,93.4612 206.127,93.4612 207.627,94.551 208.2,96.3144"/>
   <polyline fill="none" stroke-linecap="round" stroke-linejoin="round" stroke="#0071bc" stroke-width="0.5" points="219.36,69.948 218.787,71.7113 217.287,72.8011 215.433,72.8011 213.933,71.7113 213.36,69.948 213.933,68.1846 215.433,67.0948 217.287,67.0948 218.787,68.1846 219.36,69.948"/>
   <polyline fill="none" stroke-linecap="round" stroke-linejoin="round" stroke="#0071bc" stroke-width="0.5" points="230.52,47.6421 229.947,49.4054 228.447,50.4953 226.593,50.4953 225.093,49.4054 224.52,47.6421 225.093,45.8787 226.593,44.7889 228.447,44.7889 229.947,45.8787 230.52,47.6421"/>
   <polyline fill="none" stroke-linecap="round" stroke-linejoin="round" stroke="#0071bc" stroke-width="0.5" points="241.68,34.9149 241.107,36.6782 239.607,37.768 237.753,37.768 236.253,36.6782 235.68,34.9149 236.253,33.1515 237.753,32.0617 239.607,32.0617 241.107,33.1515 241.68,34.9149"/>
   <polyline fill="none" stroke-linecap="round" stroke-linejoin="round" stroke="#0071bc" stroke-width="0.5" points="252.84,34.9149 252.267,36.6782 250.767,37.768 248.913,37.768 247.413,36.6782 246.84,34.9149 247.413,33.1515 248.913,32.0617 250.767,32.0617 252.267,33.1515 252.84,34.9149"/>
   <polyline fill="none" stroke-linecap="round" stroke-linejoin="round" stroke="#0071bc" stroke-width="0.5" points="264,47.6421 263.427,49.4054 261.927,50.4953 260.073,50.4953 258.573,49.4054 258,47.6421 258.573,45.8787 260.073,44.7889 261.927,44.7889 263.427,45.8787 264,47.6421"/>
   <polyline fill="none" stroke-linecap="round" stroke-linejoin="round" stroke="#0071bc" stroke-width="0.5" points="275.16,69.948 274.587,71.7113 273.087,72.8011 271.233,72.8011 269.733,71.7113 269.16,69.948 269.733,68.1846 271.233,67.0948 273.087,67.0948 274.587,68.1846 275.16,69.948"/>
   <polyline fill="none" stroke-linecap="round" stroke-linejoin="round" stroke="#0071bc" stroke-width="0.5" points="286.32,96.3144 285.747,98.0777 284.247,99.1675 282.393,99.1675 280.893,98.0777 280.32,96.3144 280.893,94.551 282.393,93.4612 284.247,93.4612 285.747,94.551 286.32,96.3144"/>
   <polyline fill="none" stroke-linecap="round" stroke-linejoin="round" stroke="#0071bc" stroke-width="0.5" points="297.48,120.219 296.907,121.982 295.407,123.072 293.553,123.072 292.053,121.982 291.48,120.219 292.053,118.455 293.553,117.365 295.407,117.365 296.907,118.455 297.48,120.219"/>
   <polyline fill="none" stroke-linecap="round" stroke-linejoin="round" stroke="#0071bc" stroke-width="0.5" points="308.64,135.747 308.067,137.51 306.567,138.6 304.713,138.6 303.213,137.51 302.64,135.747 303.213,133.984 304.713,132.894 306.567,132.894 308.067,133.984 308.64,135.747"/>
   <polyline fill="none" stroke-linecap="round" stroke-linejoin="round" stroke="#0071bc" stroke-width="0.5" points="319.8,139.058 319.227,140.821 317.727,141.911 315.873,141.911 314.373,140.821 313.8,139.058 314.373,137.295 315.873,136.205 317.727,136.205 319.227,137.295 319.8,139.058"/>
   <polyline fill="none" stroke-linecap="round" stroke-linejoin="round" stroke="#0071bc" stroke-width="0.5" points="330.96,129.333 330.387,131.096 328.887,132.186 327.033,132.186 325.533,131.096 324.96,129.333 325.533,127.569 327.033,126.48 328.887,126.48 330.387,127.569 330.96,129.333"/>
   <polyline fill="none" stroke-linecap="round" stroke-linejoin="round" stroke="#0071bc" stroke-width="0.5" points="342.12,108.977 341.547,110.74 340.047,111.83 338.193,111.83 336.693,110.74 336.12,108.977 336.693,107.214 338.193,106.124 340.047,106.124 341.547,107.214 342.12,108.977"/>
   <polyline fill="none" stroke-linecap="round" stroke-linejoin="round" stroke="#0071bc" stroke-width="0.5" points="353.28,83.0264 352.707,84.7898 351.207,85.8796 349.353,85.8796 347.853,84.7898 347.28,83.0264 347.853,81.263 349.353,80.1732 351.207,80.1732 352.707,81.263 353.28,83.0264"/>
   <polyline fill="none" stroke-linecap="round" stroke-linejoin="round" stroke="#0071bc" stroke-width="0.5" points="364.44,57.9009 363.867,59.6642 362.367,60.7541 360.513,60.7541 359.013,59.6642 358.44,57.9009 359.013,56.1375 360.513,55.0477 362.367,55.0477 363.867,56.1375 364.44,57.9009"/>
   <polyline fill="none" stroke-linecap="round" stroke-linejoin="round" stroke="#0071bc" stroke-width="0.5" points="375.6,39.8162 375.027,41.5795 373.527,42.6693 371.673,42.6693 370.173,41.5795 369.6,39.8162 370.173,38.0528 371.673,36.963 373.527,36.963 375.027,38.0528 375.6,39.8162"/>
   <polyline fill="none" stroke-linecap="round" stroke-linejoin="round" stroke="#0071bc" stroke-width="0.5" points="386.76,33.2462 386.187,35.0095 384.687,36.0993 382.833,36.0993 381.333,35.0095 380.76,33.2462 381.333,31.4828 382.833,30.393 384.687,30.393 386.187,31.4828 386.76,33.2462"/>
   <polyline fill="none" stroke-linecap="round" stroke-linejoin="round" stroke="#0071bc" stroke-width="0.5" points="397.92,39.8162 397.347,41.5795 395.847,42.6693 393.993,42.6693 392.493,41.5795 391.92,39.8162 392.493,38.0528 393.993,36.963 395.847,36.963 397.347,38.0528 397.92,39.8162"/>
   <polyline fill="none" stroke-linecap="round" stroke-linejoin="round" stroke="#0071bc" stroke-width="0.5" points="409.08,57.9009 408.507,59.6642 407.007,60.7541 405.153,60.7541 403.653,59.6642 403.08,57.9009 403.653,56.1375 405.153,55.0477 407.007,55.0477 408.507,56.1375 409.08,57.9009"/>
   <polyline fill="none" stroke-linecap="round" stroke-linejoin="round" stroke="#0071bc" stroke-width="0.5" points="420.24,83.0264 419.667,84.7898 418.167,85.8796 416.313,85.8796 414.813,84.7898 414.24,83.0264 414.813,81.263 416.313,80.1732 418.167,80.1732 419.667,81.263 420.24,83.0264"/>
   <polyline fill="none" stroke-linecap="round" stroke-linejoin="round" stroke="#0071bc" stroke-width="0.5" points="431.4,108.977 430.827,110.74 429.327,111.83 427.473,111.83 425.973,110.74 425.4,108.977 425.973,107.214 427.473,106.124 429.327,106.124 430.827,107.214 431.4,108.977"/>
   <polyline fill="none" stroke-linecap="round" stroke-linejoin="round" stroke="#0071bc" stroke-width="0.5" points="442.56,129.333 441.987,131.096 440.487,132.186 438.633,132.186 437.133,131.096 436.56,129.333 437.133,127.569 438.633,126.48 440.487,126.48 441.987,127.569 442.56,129.333"/>
   <polyline fill="none" stroke-linecap="round" stroke-linejoin="round" stroke="#0071bc" stroke-width="0.5" points="453.72,139.058 453.147,140.821 451.647,141.911 449.793,141.911 448.293,140.821 447.72,139.058 448.293,137.295 449.793,136.205 451.647,136.205 453.147,137.295 453.72,139.058"/>
   <polyline fill="none" stroke-linecap="round" stroke-linejoin="round" stroke="#0071bc" stroke-width="0.5" points="464.88,135.747 464.307,137.51 462.807,138.6 460.953,138.6 459.453,137.51 458.88,135.747 459.453,133.984 460.953,132.894 462.807,132.894 464.307,133.984 464.88,135.747"/>
   <polyline fill="none" stroke-linecap="round" stroke-linejoin="round" stroke="#0071bc" stroke-width="0.5" points="476.04,120.219 475.467,121.982 473.967,123.072 472.113,123.072 470.613,121.982 470.04,120.219 470.613,118.455 472.113,117.365 473.967,117.365 475.467,118.455 476.04,120.219"/>
   <polyline fill="none" stroke-linecap="round" stroke-linejoin="round" stroke="#0071bc" stroke-width="0.5" points="487.2,96.3144 486.627,98.0777 485.127,99.1675 483.273,99.1675 481.773,98.0777 481.2,96.3144 481.773,94.551 483.273,93.4612 485.127,93.4612 486.627,94.551 487.2,96.3144"/>
   <polyline fill="none" stroke-linecap="round" stroke-linejoin="round" stroke="#0071bc" stroke-width="0.5" points="498.36,69.948 497.787,71.7113 496.287,72.8011 494.433,72.8011 492.933,71.7113 492.36,69.948 492.933,68.1846 494.433,67.0948 496.287,67.0948 497.787,68.1846 498.36,69.948"/>
   <polyline fill="none" stroke-linecap="round" stroke-linejoin="round" stroke="#0071bc" stroke-width="0.5" points="509.52,47.6421 508.947,49.4054 507.447,50.4953 505.593,50.4953 504.093,49.4054 503.52,47.6421 504.093,45.8787 505.593,44.7889 507.447,44.7889 508.947,45.8787 509.52,47.6421"/>
   <polyline fill="none" stroke-linecap="round" stroke-linejoin="round" stroke="#0071bc" stroke-width="0.5" points="520.68,34.9149 520.107,36.6782 518.607,37.768 516.753,37.768 515.253,36.6782 514.68,34.9149 515.253,33.1515 516.753,32.0617 518.607,32.0617 520.107,33.1515 520.68,34.9149"/>
   <polyline fill="none" stroke-linecap="round" stroke-linejoin="round" stroke="#0071bc" stroke-width="0.5" points="531.84,34.9149 531.267,36.6782 529.767,37.768 527.913,37.768 526.413,36.6782 525.84,34.9149 526.413,33.1515 527.913,32.0617 529.767,32.0617 531.267,33.1515 531.84,34.9149"/>
   <polyline fill="none" stroke-linecap="round" stroke-linejoin="round" stroke="#0071bc" stroke-width="0.5" points="543,47.6421 542.427,49.4054 540.927,50.4953 539.073,50.4953 537.573,49.4054 537,47.6421 537.573,45.8787 539.073,44.7889 540.927,44.7889 542.427,45.8787 543,47.6421"/>
   <polyline fill="none" stroke-linecap="round" stroke-linejoin="round" stroke="#0071bc" stroke-width="0.5" points="554.16,69.948 553.587,71.7113 552.087,72.8011 550.233,72.8011 548.733,71.7113 548.16,69.948 548.733,68.1846 550.233,67.0948 552.087,67.0948 553.587,68.1846 554.16,69.948"/>
   <polyline fill="none" stroke-linecap="round" stroke-linejoin="round" stroke="#0071bc" stroke-width="0.5" points="565.32,96.3144 564.747,98.0777 563.247,99.1675 561.393,99.1675 559.893,98.0777 559.32,96.3144 559.893,94.551 561.393,93.4612 563.247,93.4612 564.747,94.551 565.32,96.3144"/>
   <polyline fill="none" stroke-linecap="round" stroke-linejoin="round" stroke="#0071bc" stroke-width="0.5" points="576.48,120.219 575.907,121.982 574.407,123.072 572.553,123.072 571.053,121.982 570.48,120.219 571.053,118.455 572.553,117.365 574.407,117.365 575.907,118.455 576.48,120.219"/>
   <polyline fill="none" stroke-linecap="round" stroke-linejoin="round" stroke="#0071bc" stroke-width="0.5" points="587.64,135.747 587.067,137.51 585.567,138.6 583.713,138.6 582.213,137.51 581.64,135.747 582.213,133.984 583.713,132.894 585.567,132.894 587.067,133.984 587.64,135.747"/>
   <polyline fill="none" stroke-linecap="round" stroke-linejoin="round" stroke="#0071bc" stroke-width="0.5" points="598.8,139.058 598.227,140.821 596.727,141.911 594.873,141.911 593.373,140.821 592.8,139.058 593.373,137.295 594.873,136.205 596.727,136.205 598.227,137.295 598.8,139.058"/>
   <polyline fill="none" stroke-linecap="round" stroke-linejoin="round" stroke="#0071bc" stroke-width="0.5" points="609.96,129.333 609.387,131.096 607.887,132.186 606.033,132.186 604.533,131.096 603.96,129.333 604.533,127.569 606.033,126.48 607.887,126.48 609.387,127.569 609.96,129.333"/>
   <polyline fill="none" stroke-linecap="round" stroke-linejoin="round" stroke="#0071bc" stroke-width="0.5" points="621.12,108.977 620.547,110.74 619.047,111.83 617.193,111.83 615.693,110.74 615.12,108.977 615.693,107.214 617.193,106.124 619.047,106.124 620.547,107.214 621.12,108.977"/>
   <polyline fill="none" stroke-linecap="round" stroke-linejoin="round" stroke="#0071bc" stroke-width="0.5" points="632.28,83.0264 631.707,84.7898 630.207,85.8796 628.353,85.8796 626.853,84.7898 626.28,83.0264 626.853,81.263 628.353,80.1732 630.207,80.1732 631.707,81.263 632.28,83.0264"/>
   <polyline fill="none" stroke-linecap="round" stroke-linejoin="round" stroke="#0071bc" stroke-width="0.5" points="643.44,57.9009 642.867,59.6642 641.367,60.7541 639.513,60.7541 638.013,59.6642 637.44,57.9009 638.013,56.1375 639.513,55.0477 641.367,55.0477 642.867,56.1375 643.44,57.9009"/>
   <polyline fill="none" stroke-linecap="round" stroke-linejoin="round" stroke="#0071bc" stroke-width="0.5" points="654.6,39.8162 654.027,41.5795 652.527,42.6693 650.673,42.6693 649.173,41.5795 648.6,39.8162 649.173,38.0528 650.673,36.963 652.527,36.963 654.027,38.0528 654.6,39.8162"/>
  </g>
 </g>
</svg>
