<?xml version='1.0' encoding='UTF-8' standalone='no'?>
<svg width="720pt" xmlns:xlink="http://www.w3.org/1999/xlink" xmlns="http://www.w3.org/2000/svg" height="160pt" viewBox="0 0 720 160">
 <title>gl2ps_renderer figure</title>
 <desc>
Creator: GL2PS 1.4.0, (C) 1999-2017 C. Geuzaine
For: Octave
CreationDate: Sat Nov 28 21:22:11 2020
</desc>
 <defs/>
 <polygon fill="#ffffff" points="0,0 720,0 720,160 0,160"/>
 <g>
  <polygon shape-rendering="crispEdges" fill="#ffffff" points="0,160 720,160 720,0 0,0"/>
  <clipPath id="cp00720160">
   <polygon points="0,160 720,160 720,0 0,0"/>
  </clipPath>
  <g clip-path="url(#cp00720160)">
   <polyline stroke-linejoin="round" stroke="#0071bc" stroke-linecap="round" fill="none" stroke-width="0.5" points="96.6,75.7385 96.0271,77.5018 94.5271,78.5916 92.6729,78.5916 91.1729,77.5018 90.6,75.7385 91.1729,73.9751 92.6729,72.8853 94.5271,72.8853 96.0271,73.9751 96.6,75.7385"/>
   <polyline stroke-linejoin="round" stroke="#0071bc" stroke-linecap="round" fill="none" stroke-width="0.5" points="99.1043,62.1954 98.5314,63.9587 97.0314,65.0485 95.1772,65.0485 93.6772,63.9587 93.1043,62.1954 93.6772,60.432 95.1772,59.3422 97.0314,59.3422 98.5314,60.432 99.1043,62.1954"/>
   <polyline stroke-linejoin="round" stroke="#0071bc" stroke-linecap="round" fill="none" stroke-width="0.5" points="101.609,49.1969 101.036,50.9603 99.5357,52.0501 97.6815,52.0501 96.1815,50.9603 95.6086,49.1969 96.1815,47.4336 97.6815,46.3438 99.5357,46.3438 101.036,47.4336 101.609,49.1969"/>
   <polyline stroke-linejoin="round" stroke="#0071bc" stroke-linecap="round" fill="none" stroke-width="0.5" points="104.113,38.1407 103.54,39.904 102.04,40.9938 100.186,40.9938 98.6858,39.904 98.1129,38.1407 98.6858,36.3773 100.186,35.2875 102.04,35.2875 103.54,36.3773 104.113,38.1407"/>
   <polyline stroke-linejoin="round" stroke="#0071bc" stroke-linecap="round" fill="none" stroke-width="0.5" points="106.617,30.3008 106.044,32.0641 104.544,33.1539 102.69,33.1539 101.19,32.0641 100.617,30.3008 101.19,28.5374 102.69,27.4476 104.544,27.4476 106.044,28.5374 106.617,30.3008"/>
   <polyline stroke-linejoin="round" stroke="#0071bc" stroke-linecap="round" fill="none" stroke-width="0.5" points="109.121,26.6807 108.549,28.4441 107.049,29.5339 105.194,29.5339 103.694,28.4441 103.121,26.6807 103.694,24.9174 105.194,23.8276 107.049,23.8276 108.549,24.9174 109.121,26.6807"/>
   <polyline stroke-linejoin="round" stroke="#0071bc" stroke-linecap="round" fill="none" stroke-width="0.5" points="111.626,27.8875 111.053,29.6508 109.553,30.7406 107.699,30.7406 106.199,29.6508 105.626,27.8875 106.199,26.1241 107.699,25.0343 109.553,25.0343 111.053,26.1241 111.626,27.8875"/>
   <polyline stroke-linejoin="round" stroke="#0071bc" stroke-linecap="round" fill="none" stroke-width="0.5" points="114.13,34.043 113.557,35.8063 112.057,36.8961 110.203,36.8961 108.703,35.8063 108.13,34.043 108.703,32.2796 110.203,31.1898 112.057,31.1898 113.557,32.2796 114.13,34.043"/>
   <polyline stroke-linejoin="round" stroke="#0071bc" stroke-linecap="round" fill="none" stroke-width="0.5" points="116.634,44.7459 116.061,46.5092 114.561,47.5991 112.707,47.5991 111.207,46.5092 110.634,44.7459 111.207,42.9825 112.707,41.8927 114.561,41.8927 116.061,42.9825 116.634,44.7459"/>
   <polyline stroke-linejoin="round" stroke="#0071bc" stroke-linecap="round" fill="none" stroke-width="0.5" points="119.139,59.0897 118.566,60.853 117.066,61.9429 115.212,61.9429 113.712,60.853 113.139,59.0897 113.712,57.3263 115.212,56.2365 117.066,56.2365 118.566,57.3263 119.139,59.0897"/>
   <polyline stroke-linejoin="round" stroke="#0071bc" stroke-linecap="round" fill="none" stroke-width="0.5" points="121.643,75.7385 121.07,77.5018 119.57,78.5916 117.716,78.5916 116.216,77.5018 115.643,75.7385 116.216,73.9751 117.716,72.8853 119.57,72.8853 121.07,73.9751 121.643,75.7385"/>
   <polyline stroke-linejoin="round" stroke="#0071bc" stroke-linecap="round" fill="none" stroke-width="0.5" points="124.147,93.0543 123.574,94.8176 122.074,95.9074 120.22,95.9074 118.72,94.8176 118.147,93.0543 118.72,91.2909 120.22,90.2011 122.074,90.2011 123.574,91.2909 124.147,93.0543"/>
   <polyline stroke-linejoin="round" stroke="#0071bc" stroke-linecap="round" fill="none" stroke-width="0.5" points="126.652,109.264 126.079,111.027 124.579,112.117 122.725,112.117 121.225,111.027 120.652,109.264 121.225,107.5 122.725,106.41 124.579,106.41 126.079,107.5 126.652,109.264"/>
   <polyline stroke-linejoin="round" stroke="#0071bc" stroke-linecap="round" fill="none" stroke-width="0.5" points="129.156,122.645 128.583,124.409 127.083,125.499 125.229,125.499 123.729,124.409 123.156,122.645 123.729,120.882 125.229,119.792 127.083,119.792 128.583,120.882 129.156,122.645"/>
   <polyline stroke-linejoin="round" stroke="#0071bc" stroke-linecap="round" fill="none" stroke-width="0.5" points="131.66,131.72 131.087,133.484 129.587,134.573 127.733,134.573 126.233,133.484 125.66,131.72 126.233,129.957 127.733,128.867 129.587,128.867 131.087,129.957 131.66,131.72"/>
   <polyline stroke-linejoin="round" stroke="#0071bc" stroke-linecap="round" fill="none" stroke-width="0.5" points="134.164,135.419 133.592,137.183 132.092,138.272 130.237,138.272 128.737,137.183 128.164,135.419 128.737,133.656 130.237,132.566 132.092,132.566 133.592,133.656 134.164,135.419"/>
   <polyline stroke-linejoin="round" stroke="#0071bc" stroke-linecap="round" fill="none" stroke-width="0.5" points="136.669,133.212 136.096,134.975 134.596,136.065 132.742,136.065 131.242,134.975 130.669,133.212 131.242,131.448 132.742,130.359 134.596,130.359 136.096,131.448 136.669,133.212"/>
   <polyline stroke-linejoin="round" stroke="#0071bc" stroke-linecap="round" fill="none" stroke-width="0.5" points="139.173,125.178 138.6,126.941 137.1,128.031 135.246,128.031 133.746,126.941 133.173,125.178 133.746,123.415 135.246,122.325 137.1,122.325 138.6,123.415 139.173,125.178"/>
   <polyline stroke-linejoin="round" stroke="#0071bc" stroke-linecap="round" fill="none" stroke-width="0.5" points="141.677,112.014 141.104,113.778 139.604,114.868 137.75,114.868 136.25,113.778 135.677,112.014 136.25,110.251 137.75,109.161 139.604,109.161 141.104,110.251 141.677,112.014"/>
   <polyline stroke-linejoin="round" stroke="#0071bc" stroke-linecap="round" fill="none" stroke-width="0.5" points="144.182,94.9737 143.609,96.737 142.109,97.8268 140.255,97.8268 138.755,96.737 138.182,94.9737 138.755,93.2103 140.255,92.1205 142.109,92.1205 143.609,93.2103 144.182,94.9737"/>
   <polyline stroke-linejoin="round" stroke="#0071bc" stroke-linecap="round" fill="none" stroke-width="0.5" points="146.686,75.7385 146.113,77.5018 144.613,78.5916 142.759,78.5916 141.259,77.5018 140.686,75.7385 141.259,73.9751 142.759,72.8853 144.613,72.8853 146.113,73.9751 146.686,75.7385"/>
   <polyline stroke-linejoin="round" stroke="#0071bc" stroke-linecap="round" fill="none" stroke-width="0.5" points="149.19,56.2485 148.617,58.0118 147.117,59.1016 145.263,59.1016 143.763,58.0118 143.19,56.2485 143.763,54.4851 145.263,53.3953 147.117,53.3953 148.617,54.4851 149.19,56.2485"/>
   <polyline stroke-linejoin="round" stroke="#0071bc" stroke-linecap="round" fill="none" stroke-width="0.5" points="151.695,38.4951 151.122,40.2585 149.622,41.3483 147.768,41.3483 146.268,40.2585 145.695,38.4951 146.268,36.7318 147.768,35.642 149.622,35.642 151.122,36.7318 151.695,38.4951"/>
   <polyline stroke-linejoin="round" stroke="#0071bc" stroke-linecap="round" fill="none" stroke-width="0.5" points="154.199,24.3085 153.626,26.0719 152.126,27.1617 150.272,27.1617 148.772,26.0719 148.199,24.3085 148.772,22.5452 150.272,21.4553 152.126,21.4553 153.626,22.5452 154.199,24.3085"/>
   <polyline stroke-linejoin="round" stroke="#0071bc" stroke-linecap="round" fill="none" stroke-width="0.5" points="156.703,15.1595 156.13,16.9228 154.63,18.0126 152.776,18.0126 151.276,16.9228 150.703,15.1595 151.276,13.3961 152.776,12.3063 154.63,12.3063 156.13,13.3961 156.703,15.1595"/>
   <polyline stroke-linejoin="round" stroke="#0071bc" stroke-linecap="round" fill="none" stroke-width="0.5" points="159.207,12 158.635,13.7634 157.135,14.8532 155.28,14.8532 153.78,13.7634 153.207,12 153.78,10.2366 155.28,9.14684 157.135,9.14684 158.635,10.2366 159.207,12"/>
   <polyline stroke-linejoin="round" stroke="#0071bc" stroke-linecap="round" fill="none" stroke-width="0.5" points="161.712,15.1595 161.139,16.9228 159.639,18.0126 157.785,18.0126 156.285,16.9228 155.712,15.1595 156.285,13.3961 157.785,12.3063 159.639,12.3063 161.139,13.3961 161.712,15.1595"/>
   <polyline stroke-linejoin="round" stroke="#0071bc" stroke-linecap="round" fill="none" stroke-width="0.5" points="164.216,24.3085 163.643,26.0719 162.143,27.1617 160.289,27.1617 158.789,26.0719 158.216,24.3085 158.789,22.5452 160.289,21.4553 162.143,21.4553 163.643,22.5452 164.216,24.3085"/>
   <polyline stroke-linejoin="round" stroke="#0071bc" stroke-linecap="round" fill="none" stroke-width="0.5" points="166.72,38.4951 166.147,40.2585 164.647,41.3483 162.793,41.3483 161.293,40.2585 160.72,38.4951 161.293,36.7318 162.793,35.642 164.647,35.642 166.147,36.7318 166.72,38.4951"/>
   <polyline stroke-linejoin="round" stroke="#0071bc" stroke-linecap="round" fill="none" stroke-width="0.5" points="169.225,56.2485 168.652,58.0118 167.152,59.1016 165.298,59.1016 163.798,58.0118 163.225,56.2485 163.798,54.4851 165.298,53.3953 167.152,53.3953 168.652,54.4851 169.225,56.2485"/>
   <polyline stroke-linejoin="round" stroke="#0071bc" stroke-linecap="round" fill="none" stroke-width="0.5" points="171.729,75.7385 171.156,77.5018 169.656,78.5916 167.802,78.5916 166.302,77.5018 165.729,75.7385 166.302,73.9751 167.802,72.8853 169.656,72.8853 171.156,73.9751 171.729,75.7385"/>
   <polyline stroke-linejoin="round" stroke="#0071bc" stroke-linecap="round" fill="none" stroke-width="0.5" points="174.233,94.9737 173.66,96.737 172.16,97.8268 170.306,97.8268 168.806,96.737 168.233,94.9737 168.806,93.2103 170.306,92.1205 172.16,92.1205 173.66,93.2103 174.233,94.9737"/>
   <polyline stroke-linejoin="round" stroke="#0071bc" stroke-linecap="round" fill="none" stroke-width="0.5" points="176.738,112.014 176.165,113.778 174.665,114.868 172.81,114.868 171.31,113.778 170.738,112.014 171.31,110.251 172.81,109.161 174.665,109.161 176.165,110.251 176.738,112.014"/>
   <polyline stroke-linejoin="round" stroke="#0071bc" stroke-linecap="round" fill="none" stroke-width="0.5" points="179.242,125.178 178.669,126.941 177.169,128.031 175.315,128.031 173.815,126.941 173.242,125.178 173.815,123.415 175.315,122.325 177.169,122.325 178.669,123.415 179.242,125.178"/>
   <polyline stroke-linejoin="round" stroke="#0071bc" stroke-linecap="round" fill="none" stroke-width="0.5" points="181.746,133.212 181.173,134.975 179.673,136.065 177.819,136.065 176.319,134.975 175.746,133.212 176.319,131.448 177.819,130.359 179.673,130.359 181.173,131.448 181.746,133.212"/>
   <polyline stroke-linejoin="round" stroke="#0071bc" stroke-linecap="round" fill="none" stroke-width="0.5" points="184.25,135.419 183.678,137.183 182.177,138.272 180.323,138.272 178.823,137.183 178.25,135.419 178.823,133.656 180.323,132.566 182.177,132.566 183.678,133.656 184.25,135.419"/>
   <polyline stroke-linejoin="round" stroke="#0071bc" stroke-linecap="round" fill="none" stroke-width="0.5" points="186.755,131.72 186.182,133.484 184.682,134.573 182.828,134.573 181.328,133.484 180.755,131.72 181.328,129.957 182.828,128.867 184.682,128.867 186.182,129.957 186.755,131.72"/>
   <polyline stroke-linejoin="round" stroke="#0071bc" stroke-linecap="round" fill="none" stroke-width="0.5" points="189.259,122.645 188.686,124.409 187.186,125.499 185.332,125.499 183.832,124.409 183.259,122.645 183.832,120.882 185.332,119.792 187.186,119.792 188.686,120.882 189.259,122.645"/>
   <polyline stroke-linejoin="round" stroke="#0071bc" stroke-linecap="round" fill="none" stroke-width="0.5" points="191.763,109.264 191.19,111.027 189.69,112.117 187.836,112.117 186.336,111.027 185.763,109.264 186.336,107.5 187.836,106.41 189.69,106.41 191.19,107.5 191.763,109.264"/>
   <polyline stroke-linejoin="round" stroke="#0071bc" stroke-linecap="round" fill="none" stroke-width="0.5" points="194.268,93.0543 193.695,94.8176 192.195,95.9074 190.341,95.9074 188.841,94.8176 188.268,93.0543 188.841,91.2909 190.341,90.2011 192.195,90.2011 193.695,91.2909 194.268,93.0543"/>
   <polyline stroke-linejoin="round" stroke="#0071bc" stroke-linecap="round" fill="none" stroke-width="0.5" points="196.772,75.7385 196.199,77.5018 194.699,78.5916 192.845,78.5916 191.345,77.5018 190.772,75.7385 191.345,73.9751 192.845,72.8853 194.699,72.8853 196.199,73.9751 196.772,75.7385"/>
   <polyline stroke-linejoin="round" stroke="#0071bc" stroke-linecap="round" fill="none" stroke-width="0.5" points="199.276,59.0897 198.703,60.853 197.203,61.9429 195.349,61.9429 193.849,60.853 193.276,59.0897 193.849,57.3263 195.349,56.2365 197.203,56.2365 198.703,57.3263 199.276,59.0897"/>
   <polyline stroke-linejoin="round" stroke="#0071bc" stroke-linecap="round" fill="none" stroke-width="0.5" points="201.781,44.7459 201.208,46.5092 199.708,47.5991 197.853,47.5991 196.353,46.5092 195.781,44.7459 196.353,42.9825 197.853,41.8927 199.708,41.8927 201.208,42.9825 201.781,44.7459"/>
   <polyline stroke-linejoin="round" stroke="#0071bc" stroke-linecap="round" fill="none" stroke-width="0.5" points="204.285,34.043 203.712,35.8063 202.212,36.8961 200.358,36.8961 198.858,35.8063 198.285,34.043 198.858,32.2796 200.358,31.1898 202.212,31.1898 203.712,32.2796 204.285,34.043"/>
   <polyline stroke-linejoin="round" stroke="#0071bc" stroke-linecap="round" fill="none" stroke-width="0.5" points="206.789,27.8875 206.216,29.6508 204.716,30.7406 202.862,30.7406 201.362,29.6508 200.789,27.8875 201.362,26.1241 202.862,25.0343 204.716,25.0343 206.216,26.1241 206.789,27.8875"/>
   <polyline stroke-linejoin="round" stroke="#0071bc" stroke-linecap="round" fill="none" stroke-width="0.5" points="209.293,26.6807 208.72,28.4441 207.22,29.5339 205.366,29.5339 203.866,28.4441 203.293,26.6807 203.866,24.9174 205.366,23.8276 207.22,23.8276 208.72,24.9174 209.293,26.6807"/>
   <polyline stroke-linejoin="round" stroke="#0071bc" stroke-linecap="round" fill="none" stroke-width="0.5" points="211.798,30.3008 211.225,32.0641 209.725,33.1539 207.871,33.1539 206.371,32.0641 205.798,30.3008 206.371,28.5374 207.871,27.4476 209.725,27.4476 211.225,28.5374 211.798,30.3008"/>
   <polyline stroke-linejoin="round" stroke="#0071bc" stroke-linecap="round" fill="none" stroke-width="0.5" points="214.302,38.1407 213.729,39.904 212.229,40.9938 210.375,40.9938 208.875,39.904 208.302,38.1407 208.875,36.3773 210.375,35.2875 212.229,35.2875 213.729,36.3773 214.302,38.1407"/>
   <polyline stroke-linejoin="round" stroke="#0071bc" stroke-linecap="round" fill="none" stroke-width="0.5" points="216.806,49.1969 216.233,50.9603 214.733,52.0501 212.879,52.0501 211.379,50.9603 210.806,49.1969 211.379,47.4336 212.879,46.3438 214.733,46.3438 216.233,47.4336 216.806,49.1969"/>
   <polyline stroke-linejoin="round" stroke="#0071bc" stroke-linecap="round" fill="none" stroke-width="0.5" points="219.311,62.1954 218.738,63.9587 217.238,65.0485 215.384,65.0485 213.884,63.9587 213.311,62.1954 213.884,60.432 215.384,59.3422 217.238,59.3422 218.738,60.432 219.311,62.1954"/>
   <polyline stroke-linejoin="round" stroke="#0071bc" stroke-linecap="round" fill="none" stroke-width="0.5" points="221.815,75.7385 221.242,77.5018 219.742,78.5916 217.888,78.5916 216.388,77.5018 215.815,75.7385 216.388,73.9751 217.888,72.8853 219.742,72.8853 221.242,73.9751 221.815,75.7385"/>
   <polyline stroke-linejoin="round" stroke="#0071bc" stroke-linecap="round" fill="none" stroke-width="0.5" points="224.319,88.4571 223.746,90.2204 222.246,91.3102 220.392,91.3102 218.892,90.2204 218.319,88.4571 218.892,86.6937 220.392,85.6039 222.246,85.6039 223.746,86.6937 224.319,88.4571"/>
   <polyline stroke-linejoin="round" stroke="#0071bc" stroke-linecap="round" fill="none" stroke-width="0.5" points="226.824,99.1496 226.251,100.913 224.751,102.003 222.896,102.003 221.396,100.913 220.824,99.1496 221.396,97.3863 222.896,96.2965 224.751,96.2965 226.251,97.3863 226.824,99.1496"/>
   <polyline stroke-linejoin="round" stroke="#0071bc" stroke-linecap="round" fill="none" stroke-width="0.5" points="229.328,106.895 228.755,108.658 227.255,109.748 225.401,109.748 223.901,108.658 223.328,106.895 223.901,105.131 225.401,104.041 227.255,104.041 228.755,105.131 229.328,106.895"/>
   <polyline stroke-linejoin="round" stroke="#0071bc" stroke-linecap="round" fill="none" stroke-width="0.5" points="231.832,111.126 231.259,112.889 229.759,113.979 227.905,113.979 226.405,112.889 225.832,111.126 226.405,109.363 227.905,108.273 229.759,108.273 231.259,109.363 231.832,111.126"/>
   <polyline stroke-linejoin="round" stroke="#0071bc" stroke-linecap="round" fill="none" stroke-width="0.5" points="234.336,111.665 233.763,113.429 232.263,114.519 230.409,114.519 228.909,113.429 228.336,111.665 228.909,109.902 230.409,108.812 232.263,108.812 233.763,109.902 234.336,111.665"/>
   <polyline stroke-linejoin="round" stroke="#0071bc" stroke-linecap="round" fill="none" stroke-width="0.5" points="236.841,108.713 236.268,110.476 234.768,111.566 232.914,111.566 231.414,110.476 230.841,108.713 231.414,106.949 232.914,105.859 234.768,105.859 236.268,106.949 236.841,108.713"/>
   <polyline stroke-linejoin="round" stroke="#0071bc" stroke-linecap="round" fill="none" stroke-width="0.5" points="239.345,102.797 238.772,104.56 237.272,105.65 235.418,105.65 233.918,104.56 233.345,102.797 233.918,101.034 235.418,99.9438 237.272,99.9438 238.772,101.034 239.345,102.797"/>
   <polyline stroke-linejoin="round" stroke="#0071bc" stroke-linecap="round" fill="none" stroke-width="0.5" points="241.849,94.6986 241.276,96.4619 239.776,97.5518 237.922,97.5518 236.422,96.4619 235.849,94.6986 236.422,92.9352 237.922,91.8454 239.776,91.8454 241.276,92.9352 241.849,94.6986"/>
   <polyline stroke-linejoin="round" stroke="#0071bc" stroke-linecap="round" fill="none" stroke-width="0.5" points="244.354,85.3514 243.781,87.1147 242.281,88.2046 240.427,88.2046 238.927,87.1147 238.354,85.3514 238.927,83.588 240.427,82.4982 242.281,82.4982 243.781,83.588 244.354,85.3514"/>
   <polyline stroke-linejoin="round" stroke="#0071bc" stroke-linecap="round" fill="none" stroke-width="0.5" points="246.858,75.7385 246.285,77.5018 244.785,78.5916 242.931,78.5916 241.431,77.5018 240.858,75.7385 241.431,73.9751 242.931,72.8853 244.785,72.8853 246.285,73.9751 246.858,75.7385"/>
   <polyline stroke-linejoin="round" stroke="#0071bc" stroke-linecap="round" fill="none" stroke-width="0.5" points="249.362,66.7926 248.789,68.5559 247.289,69.6457 245.435,69.6457 243.935,68.5559 243.362,66.7926 243.935,65.0292 245.435,63.9394 247.289,63.9394 248.789,65.0292 249.362,66.7926"/>
   <polyline stroke-linejoin="round" stroke="#0071bc" stroke-linecap="round" fill="none" stroke-width="0.5" points="251.866,59.3109 251.294,61.0742 249.794,62.164 247.939,62.164 246.439,61.0742 245.866,59.3109 246.439,57.5475 247.939,56.4577 249.794,56.4577 251.294,57.5475 251.866,59.3109"/>
   <polyline stroke-linejoin="round" stroke="#0071bc" stroke-linecap="round" fill="none" stroke-width="0.5" points="254.371,53.8913 253.798,55.6547 252.298,56.7445 250.444,56.7445 248.944,55.6547 248.371,53.8913 248.944,52.128 250.444,51.0382 252.298,51.0382 253.798,52.128 254.371,53.8913"/>
   <polyline stroke-linejoin="round" stroke="#0071bc" stroke-linecap="round" fill="none" stroke-width="0.5" points="256.875,50.8951 256.302,52.6584 254.802,53.7483 252.948,53.7483 251.448,52.6584 250.875,50.8951 251.448,49.1317 252.948,48.0419 254.802,48.0419 256.302,49.1317 256.875,50.8951"/>
   <polyline stroke-linejoin="round" stroke="#0071bc" stroke-linecap="round" fill="none" stroke-width="0.5" points="259.379,50.4347 258.806,52.198 257.306,53.2878 255.452,53.2878 253.952,52.198 253.379,50.4347 253.952,48.6713 255.452,47.5815 257.306,47.5815 258.806,48.6713 259.379,50.4347"/>
   <polyline stroke-linejoin="round" stroke="#0071bc" stroke-linecap="round" fill="none" stroke-width="0.5" points="261.884,52.3866 261.311,54.15 259.811,55.2398 257.957,55.2398 256.457,54.15 255.884,52.3866 256.457,50.6233 257.957,49.5334 259.811,49.5334 261.311,50.6233 261.884,52.3866"/>
   <polyline stroke-linejoin="round" stroke="#0071bc" stroke-linecap="round" fill="none" stroke-width="0.5" points="264.388,56.4239 263.815,58.1872 262.315,59.277 260.461,59.277 258.961,58.1872 258.388,56.4239 258.961,54.6605 260.461,53.5707 262.315,53.5707 263.815,54.6605 264.388,56.4239"/>
   <polyline stroke-linejoin="round" stroke="#0071bc" stroke-linecap="round" fill="none" stroke-width="0.5" points="266.892,62.0618 266.319,63.8251 264.819,64.9149 262.965,64.9149 261.465,63.8251 260.892,62.0618 261.465,60.2984 262.965,59.2086 264.819,59.2086 266.319,60.2984 266.892,62.0618"/>
   <polyline stroke-linejoin="round" stroke="#0071bc" stroke-linecap="round" fill="none" stroke-width="0.5" points="269.397,68.712 268.824,70.4753 267.324,71.5652 265.47,71.5652 263.97,70.4753 263.397,68.712 263.97,66.9486 265.47,65.8588 267.324,65.8588 268.824,66.9486 269.397,68.712"/>
   <polyline stroke-linejoin="round" stroke="#0071bc" stroke-linecap="round" fill="none" stroke-width="0.5" points="271.901,75.7385 271.328,77.5018 269.828,78.5916 267.974,78.5916 266.474,77.5018 265.901,75.7385 266.474,73.9751 267.974,72.8853 269.828,72.8853 271.328,73.9751 271.901,75.7385"/>
   <polyline stroke-linejoin="round" stroke="#0071bc" stroke-linecap="round" fill="none" stroke-width="0.5" points="274.405,82.5101 273.832,84.2735 272.332,85.3633 270.478,85.3633 268.978,84.2735 268.405,82.5101 268.978,80.7468 270.478,79.657 272.332,79.657 273.832,80.7468 274.405,82.5101"/>
   <polyline stroke-linejoin="round" stroke="#0071bc" stroke-linecap="round" fill="none" stroke-width="0.5" points="276.909,88.4478 276.337,90.2112 274.837,91.301 272.982,91.301 271.482,90.2112 270.909,88.4478 271.482,86.6845 272.982,85.5947 274.837,85.5947 276.337,86.6845 276.909,88.4478"/>
   <polyline stroke-linejoin="round" stroke="#0071bc" stroke-linecap="round" fill="none" stroke-width="0.5" points="279.414,93.0625 278.841,94.8259 277.341,95.9157 275.487,95.9157 273.987,94.8259 273.414,93.0625 273.987,91.2991 275.487,90.2093 277.341,90.2093 278.841,91.2991 279.414,93.0625"/>
   <polyline stroke-linejoin="round" stroke="#0071bc" stroke-linecap="round" fill="none" stroke-width="0.5" points="281.918,95.9846 281.345,97.748 279.845,98.8378 277.991,98.8378 276.491,97.748 275.918,95.9846 276.491,94.2213 277.991,93.1315 279.845,93.1315 281.345,94.2213 281.918,95.9846"/>
   <polyline stroke-linejoin="round" stroke="#0071bc" stroke-linecap="round" fill="none" stroke-width="0.5" points="284.422,96.9846 283.849,98.748 282.349,99.8378 280.495,99.8378 278.995,98.748 278.422,96.9846 278.995,95.2213 280.495,94.1315 282.349,94.1315 283.849,95.2213 284.422,96.9846"/>
   <polyline stroke-linejoin="round" stroke="#0071bc" stroke-linecap="round" fill="none" stroke-width="0.5" points="286.927,95.9846 286.354,97.748 284.854,98.8378 283,98.8378 281.5,97.748 280.927,95.9846 281.5,94.2213 283,93.1315 284.854,93.1315 286.354,94.2213 286.927,95.9846"/>
   <polyline stroke-linejoin="round" stroke="#0071bc" stroke-linecap="round" fill="none" stroke-width="0.5" points="289.431,93.0625 288.858,94.8259 287.358,95.9157 285.504,95.9157 284.004,94.8259 283.431,93.0625 284.004,91.2991 285.504,90.2093 287.358,90.2093 288.858,91.2991 289.431,93.0625"/>
   <polyline stroke-linejoin="round" stroke="#0071bc" stroke-linecap="round" fill="none" stroke-width="0.5" points="291.935,88.4478 291.362,90.2112 289.862,91.301 288.008,91.301 286.508,90.2112 285.935,88.4478 286.508,86.6845 288.008,85.5947 289.862,85.5947 291.362,86.6845 291.935,88.4478"/>
   <polyline stroke-linejoin="round" stroke="#0071bc" stroke-linecap="round" fill="none" stroke-width="0.5" points="294.44,82.5101 293.867,84.2735 292.367,85.3633 290.513,85.3633 289.013,84.2735 288.44,82.5101 289.013,80.7468 290.513,79.657 292.367,79.657 293.867,80.7468 294.44,82.5101"/>
   <polyline stroke-linejoin="round" stroke="#0071bc" stroke-linecap="round" fill="none" stroke-width="0.5" points="296.944,75.7385 296.371,77.5018 294.871,78.5916 293.017,78.5916 291.517,77.5018 290.944,75.7385 291.517,73.9751 293.017,72.8853 294.871,72.8853 296.371,73.9751 296.944,75.7385"/>
   <polyline stroke-linejoin="round" stroke="#0071bc" stroke-linecap="round" fill="none" stroke-width="0.5" points="299.448,68.712 298.875,70.4753 297.375,71.5652 295.521,71.5652 294.021,70.4753 293.448,68.712 294.021,66.9486 295.521,65.8588 297.375,65.8588 298.875,66.9486 299.448,68.712"/>
   <polyline stroke-linejoin="round" stroke="#0071bc" stroke-linecap="round" fill="none" stroke-width="0.5" points="301.952,62.0618 301.379,63.8251 299.88,64.9149 298.025,64.9149 296.525,63.8251 295.952,62.0618 296.525,60.2984 298.025,59.2086 299.88,59.2086 301.379,60.2984 301.952,62.0618"/>
   <polyline stroke-linejoin="round" stroke="#0071bc" stroke-linecap="round" fill="none" stroke-width="0.5" points="304.457,56.4239 303.884,58.1872 302.384,59.277 300.53,59.277 299.03,58.1872 298.457,56.4239 299.03,54.6605 300.53,53.5707 302.384,53.5707 303.884,54.6605 304.457,56.4239"/>
   <polyline stroke-linejoin="round" stroke="#0071bc" stroke-linecap="round" fill="none" stroke-width="0.5" points="306.961,52.3866 306.388,54.15 304.888,55.2398 303.034,55.2398 301.534,54.15 300.961,52.3866 301.534,50.6233 303.034,49.5334 304.888,49.5334 306.388,50.6233 306.961,52.3866"/>
   <polyline stroke-linejoin="round" stroke="#0071bc" stroke-linecap="round" fill="none" stroke-width="0.5" points="309.465,50.4347 308.892,52.198 307.392,53.2878 305.538,53.2878 304.038,52.198 303.465,50.4347 304.038,48.6713 305.538,47.5815 307.392,47.5815 308.892,48.6713 309.465,50.4347"/>
   <polyline stroke-linejoin="round" stroke="#0071bc" stroke-linecap="round" fill="none" stroke-width="0.5" points="311.97,50.8951 311.397,52.6584 309.897,53.7483 308.043,53.7483 306.543,52.6584 305.97,50.8951 306.543,49.1317 308.043,48.0419 309.897,48.0419 311.397,49.1317 311.97,50.8951"/>
   <polyline stroke-linejoin="round" stroke="#0071bc" stroke-linecap="round" fill="none" stroke-width="0.5" points="314.474,53.8913 313.901,55.6547 312.401,56.7445 310.547,56.7445 309.047,55.6547 308.474,53.8913 309.047,52.128 310.547,51.0382 312.401,51.0382 313.901,52.128 314.474,53.8913"/>
   <polyline stroke-linejoin="round" stroke="#0071bc" stroke-linecap="round" fill="none" stroke-width="0.5" points="316.978,59.3109 316.405,61.0742 314.905,62.164 313.051,62.164 311.551,61.0742 310.978,59.3109 311.551,57.5475 313.051,56.4577 314.905,56.4577 316.405,57.5475 316.978,59.3109"/>
   <polyline stroke-linejoin="round" stroke="#0071bc" stroke-linecap="round" fill="none" stroke-width="0.5" points="319.483,66.7926 318.91,68.5559 317.41,69.6457 315.556,69.6457 314.056,68.5559 313.483,66.7926 314.056,65.0292 315.556,63.9394 317.41,63.9394 318.91,65.0292 319.483,66.7926"/>
   <polyline stroke-linejoin="round" stroke="#0071bc" stroke-linecap="round" fill="none" stroke-width="0.5" points="321.987,75.7385 321.414,77.5018 319.914,78.5916 318.06,78.5916 316.56,77.5018 315.987,75.7385 316.56,73.9751 318.06,72.8853 319.914,72.8853 321.414,73.9751 321.987,75.7385"/>
   <polyline stroke-linejoin="round" stroke="#0071bc" stroke-linecap="round" fill="none" stroke-width="0.5" points="324.491,85.3514 323.918,87.1147 322.418,88.2046 320.564,88.2046 319.064,87.1147 318.491,85.3514 319.064,83.588 320.564,82.4982 322.418,82.4982 323.918,83.588 324.491,85.3514"/>
   <polyline stroke-linejoin="round" stroke="#0071bc" stroke-linecap="round" fill="none" stroke-width="0.5" points="326.995,94.6986 326.422,96.4619 324.922,97.5518 323.068,97.5518 321.568,96.4619 320.995,94.6986 321.568,92.9352 323.068,91.8454 324.922,91.8454 326.422,92.9352 326.995,94.6986"/>
   <polyline stroke-linejoin="round" stroke="#0071bc" stroke-linecap="round" fill="none" stroke-width="0.5" points="329.5,102.797 328.927,104.56 327.427,105.65 325.573,105.65 324.073,104.56 323.5,102.797 324.073,101.034 325.573,99.9438 327.427,99.9438 328.927,101.034 329.5,102.797"/>
   <polyline stroke-linejoin="round" stroke="#0071bc" stroke-linecap="round" fill="none" stroke-width="0.5" points="332.004,108.713 331.431,110.476 329.931,111.566 328.077,111.566 326.577,110.476 326.004,108.713 326.577,106.949 328.077,105.859 329.931,105.859 331.431,106.949 332.004,108.713"/>
   <polyline stroke-linejoin="round" stroke="#0071bc" stroke-linecap="round" fill="none" stroke-width="0.5" points="334.508,111.665 333.935,113.429 332.435,114.519 330.581,114.519 329.081,113.429 328.508,111.665 329.081,109.902 330.581,108.812 332.435,108.812 333.935,109.902 334.508,111.665"/>
   <polyline stroke-linejoin="round" stroke="#0071bc" stroke-linecap="round" fill="none" stroke-width="0.5" points="337.013,111.126 336.44,112.889 334.94,113.979 333.086,113.979 331.586,112.889 331.013,111.126 331.586,109.363 333.086,108.273 334.94,108.273 336.44,109.363 337.013,111.126"/>
   <polyline stroke-linejoin="round" stroke="#0071bc" stroke-linecap="round" fill="none" stroke-width="0.5" points="339.517,106.895 338.944,108.658 337.444,109.748 335.59,109.748 334.09,108.658 333.517,106.895 334.09,105.131 335.59,104.041 337.444,104.041 338.944,105.131 339.517,106.895"/>
   <polyline stroke-linejoin="round" stroke="#0071bc" stroke-linecap="round" fill="none" stroke-width="0.5" points="342.021,99.1496 341.448,100.913 339.948,102.003 338.094,102.003 336.594,100.913 336.021,99.1496 336.594,97.3863 338.094,96.2965 339.948,96.2965 341.448,97.3863 342.021,99.1496"/>
   <polyline stroke-linejoin="round" stroke="#0071bc" stroke-linecap="round" fill="none" stroke-width="0.5" points="344.526,88.4571 343.953,90.2204 342.453,91.3102 340.598,91.3102 339.098,90.2204 338.526,88.4571 339.098,86.6937 340.598,85.6039 342.453,85.6039 343.953,86.6937 344.526,88.4571"/>
   <polyline stroke-linejoin="round" stroke="#0071bc" stroke-linecap="round" fill="none" stroke-width="0.5" points="347.03,75.7385 346.457,77.5018 344.957,78.5916 343.103,78.5916 341.603,77.5018 341.03,75.7385 341.603,73.9751 343.103,72.8853 344.957,72.8853 346.457,73.9751 347.03,75.7385"/>
   <polyline stroke-linejoin="round" stroke="#0071bc" stroke-linecap="round" fill="none" stroke-width="0.5" points="349.534,62.1954 348.961,63.9587 347.461,65.0485 345.607,65.0485 344.107,63.9587 343.534,62.1954 344.107,60.432 345.607,59.3422 347.461,59.3422 348.961,60.432 349.534,62.1954"/>
   <polyline stroke-linejoin="round" stroke="#0071bc" stroke-linecap="round" fill="none" stroke-width="0.5" points="352.038,49.1969 351.465,50.9603 349.965,52.0501 348.111,52.0501 346.611,50.9603 346.038,49.1969 346.611,47.4336 348.111,46.3438 349.965,46.3438 351.465,47.4336 352.038,49.1969"/>
   <polyline stroke-linejoin="round" stroke="#0071bc" stroke-linecap="round" fill="none" stroke-width="0.5" points="354.543,38.1407 353.97,39.904 352.47,40.9938 350.616,40.9938 349.116,39.904 348.543,38.1407 349.116,36.3773 350.616,35.2875 352.47,35.2875 353.97,36.3773 354.543,38.1407"/>
   <polyline stroke-linejoin="round" stroke="#0071bc" stroke-linecap="round" fill="none" stroke-width="0.5" points="357.047,30.3008 356.474,32.0641 354.974,33.1539 353.12,33.1539 351.62,32.0641 351.047,30.3008 351.62,28.5374 353.12,27.4476 354.974,27.4476 356.474,28.5374 357.047,30.3008"/>
   <polyline stroke-linejoin="round" stroke="#0071bc" stroke-linecap="round" fill="none" stroke-width="0.5" points="359.551,26.6807 358.978,28.4441 357.478,29.5339 355.624,29.5339 354.124,28.4441 353.551,26.6807 354.124,24.9174 355.624,23.8276 357.478,23.8276 358.978,24.9174 359.551,26.6807"/>
   <polyline stroke-linejoin="round" stroke="#0071bc" stroke-linecap="round" fill="none" stroke-width="0.5" points="362.056,27.8875 361.483,29.6508 359.983,30.7406 358.129,30.7406 356.629,29.6508 356.056,27.8875 356.629,26.1241 358.129,25.0343 359.983,25.0343 361.483,26.1241 362.056,27.8875"/>
   <polyline stroke-linejoin="round" stroke="#0071bc" stroke-linecap="round" fill="none" stroke-width="0.5" points="364.56,34.043 363.987,35.8063 362.487,36.8961 360.633,36.8961 359.133,35.8063 358.56,34.043 359.133,32.2796 360.633,31.1898 362.487,31.1898 363.987,32.2796 364.56,34.043"/>
   <polyline stroke-linejoin="round" stroke="#0071bc" stroke-linecap="round" fill="none" stroke-width="0.5" points="367.064,44.7459 366.491,46.5092 364.991,47.5991 363.137,47.5991 361.637,46.5092 361.064,44.7459 361.637,42.9825 363.137,41.8927 364.991,41.8927 366.491,42.9825 367.064,44.7459"/>
   <polyline stroke-linejoin="round" stroke="#0071bc" stroke-linecap="round" fill="none" stroke-width="0.5" points="369.569,59.0897 368.996,60.853 367.496,61.9429 365.641,61.9429 364.141,60.853 363.569,59.0897 364.141,57.3263 365.641,56.2365 367.496,56.2365 368.996,57.3263 369.569,59.0897"/>
   <polyline stroke-linejoin="round" stroke="#0071bc" stroke-linecap="round" fill="none" stroke-width="0.5" points="372.073,75.7385 371.5,77.5018 370,78.5916 368.146,78.5916 366.646,77.5018 366.073,75.7385 366.646,73.9751 368.146,72.8853 370,72.8853 371.5,73.9751 372.073,75.7385"/>
   <polyline stroke-linejoin="round" stroke="#0071bc" stroke-linecap="round" fill="none" stroke-width="0.5" points="374.577,93.0543 374.004,94.8176 372.504,95.9074 370.65,95.9074 369.15,94.8176 368.577,93.0543 369.15,91.2909 370.65,90.2011 372.504,90.2011 374.004,91.2909 374.577,93.0543"/>
   <polyline stroke-linejoin="round" stroke="#0071bc" stroke-linecap="round" fill="none" stroke-width="0.5" points="377.081,109.264 376.508,111.027 375.008,112.117 373.154,112.117 371.654,111.027 371.081,109.264 371.654,107.5 373.154,106.41 375.008,106.41 376.508,107.5 377.081,109.264"/>
   <polyline stroke-linejoin="round" stroke="#0071bc" stroke-linecap="round" fill="none" stroke-width="0.5" points="379.586,122.645 379.013,124.409 377.513,125.499 375.659,125.499 374.159,124.409 373.586,122.645 374.159,120.882 375.659,119.792 377.513,119.792 379.013,120.882 379.586,122.645"/>
   <polyline stroke-linejoin="round" stroke="#0071bc" stroke-linecap="round" fill="none" stroke-width="0.5" points="382.09,131.72 381.517,133.484 380.017,134.573 378.163,134.573 376.663,133.484 376.09,131.72 376.663,129.957 378.163,128.867 380.017,128.867 381.517,129.957 382.09,131.72"/>
   <polyline stroke-linejoin="round" stroke="#0071bc" stroke-linecap="round" fill="none" stroke-width="0.5" points="384.594,135.419 384.021,137.183 382.521,138.272 380.667,138.272 379.167,137.183 378.594,135.419 379.167,133.656 380.667,132.566 382.521,132.566 384.021,133.656 384.594,135.419"/>
   <polyline stroke-linejoin="round" stroke="#0071bc" stroke-linecap="round" fill="none" stroke-width="0.5" points="387.099,133.212 386.526,134.975 385.026,136.065 383.172,136.065 381.672,134.975 381.099,133.212 381.672,131.448 383.172,130.359 385.026,130.359 386.526,131.448 387.099,133.212"/>
   <polyline stroke-linejoin="round" stroke="#0071bc" stroke-linecap="round" fill="none" stroke-width="0.5" points="389.603,125.178 389.03,126.941 387.53,128.031 385.676,128.031 384.176,126.941 383.603,125.178 384.176,123.415 385.676,122.325 387.53,122.325 389.03,123.415 389.603,125.178"/>
   <polyline stroke-linejoin="round" stroke="#0071bc" stroke-linecap="round" fill="none" stroke-width="0.5" points="392.107,112.014 391.534,113.778 390.034,114.868 388.18,114.868 386.68,113.778 386.107,112.014 386.68,110.251 388.18,109.161 390.034,109.161 391.534,110.251 392.107,112.014"/>
   <polyline stroke-linejoin="round" stroke="#0071bc" stroke-linecap="round" fill="none" stroke-width="0.5" points="394.611,94.9737 394.039,96.737 392.539,97.8268 390.684,97.8268 389.184,96.737 388.611,94.9737 389.184,93.2103 390.684,92.1205 392.539,92.1205 394.039,93.2103 394.611,94.9737"/>
   <polyline stroke-linejoin="round" stroke="#0071bc" stroke-linecap="round" fill="none" stroke-width="0.5" points="397.116,75.7385 396.543,77.5018 395.043,78.5916 393.189,78.5916 391.689,77.5018 391.116,75.7385 391.689,73.9751 393.189,72.8853 395.043,72.8853 396.543,73.9751 397.116,75.7385"/>
   <polyline stroke-linejoin="round" stroke="#0071bc" stroke-linecap="round" fill="none" stroke-width="0.5" points="399.62,56.2485 399.047,58.0118 397.547,59.1016 395.693,59.1016 394.193,58.0118 393.62,56.2485 394.193,54.4851 395.693,53.3953 397.547,53.3953 399.047,54.4851 399.62,56.2485"/>
   <polyline stroke-linejoin="round" stroke="#0071bc" stroke-linecap="round" fill="none" stroke-width="0.5" points="402.124,38.4951 401.551,40.2585 400.051,41.3483 398.197,41.3483 396.697,40.2585 396.124,38.4951 396.697,36.7318 398.197,35.642 400.051,35.642 401.551,36.7318 402.124,38.4951"/>
   <polyline stroke-linejoin="round" stroke="#0071bc" stroke-linecap="round" fill="none" stroke-width="0.5" points="404.629,24.3085 404.056,26.0719 402.556,27.1617 400.702,27.1617 399.202,26.0719 398.629,24.3085 399.202,22.5452 400.702,21.4553 402.556,21.4553 404.056,22.5452 404.629,24.3085"/>
   <polyline stroke-linejoin="round" stroke="#0071bc" stroke-linecap="round" fill="none" stroke-width="0.5" points="407.133,15.1595 406.56,16.9228 405.06,18.0126 403.206,18.0126 401.706,16.9228 401.133,15.1595 401.706,13.3961 403.206,12.3063 405.06,12.3063 406.56,13.3961 407.133,15.1595"/>
   <polyline stroke-linejoin="round" stroke="#0071bc" stroke-linecap="round" fill="none" stroke-width="0.5" points="409.637,12 409.064,13.7634 407.564,14.8532 405.71,14.8532 404.21,13.7634 403.637,12 404.21,10.2366 405.71,9.14684 407.564,9.14684 409.064,10.2366 409.637,12"/>
   <polyline stroke-linejoin="round" stroke="#0071bc" stroke-linecap="round" fill="none" stroke-width="0.5" points="412.142,15.1595 411.569,16.9228 410.069,18.0126 408.215,18.0126 406.715,16.9228 406.142,15.1595 406.715,13.3961 408.215,12.3063 410.069,12.3063 411.569,13.3961 412.142,15.1595"/>
   <polyline stroke-linejoin="round" stroke="#0071bc" stroke-linecap="round" fill="none" stroke-width="0.5" points="414.646,24.3085 414.073,26.0719 412.573,27.1617 410.719,27.1617 409.219,26.0719 408.646,24.3085 409.219,22.5452 410.719,21.4553 412.573,21.4553 414.073,22.5452 414.646,24.3085"/>
   <polyline stroke-linejoin="round" stroke="#0071bc" stroke-linecap="round" fill="none" stroke-width="0.5" points="417.15,38.4951 416.577,40.2585 415.077,41.3483 413.223,41.3483 411.723,40.2585 411.15,38.4951 411.723,36.7318 413.223,35.642 415.077,35.642 416.577,36.7318 417.15,38.4951"/>
   <polyline stroke-linejoin="round" stroke="#0071bc" stroke-linecap="round" fill="none" stroke-width="0.5" points="419.654,56.2485 419.082,58.0118 417.582,59.1016 415.727,59.1016 414.227,58.0118 413.654,56.2485 414.227,54.4851 415.727,53.3953 417.582,53.3953 419.082,54.4851 419.654,56.2485"/>
   <polyline stroke-linejoin="round" stroke="#0071bc" stroke-linecap="round" fill="none" stroke-width="0.5" points="422.159,75.7385 421.586,77.5018 420.086,78.5916 418.232,78.5916 416.732,77.5018 416.159,75.7385 416.732,73.9751 418.232,72.8853 420.086,72.8853 421.586,73.9751 422.159,75.7385"/>
   <polyline stroke-linejoin="round" stroke="#0071bc" stroke-linecap="round" fill="none" stroke-width="0.5" points="424.663,94.9737 424.09,96.737 422.59,97.8268 420.736,97.8268 419.236,96.737 418.663,94.9737 419.236,93.2103 420.736,92.1205 422.59,92.1205 424.09,93.2103 424.663,94.9737"/>
   <polyline stroke-linejoin="round" stroke="#0071bc" stroke-linecap="round" fill="none" stroke-width="0.5" points="427.167,112.014 426.594,113.778 425.094,114.868 423.24,114.868 421.74,113.778 421.167,112.014 421.74,110.251 423.24,109.161 425.094,109.161 426.594,110.251 427.167,112.014"/>
   <polyline stroke-linejoin="round" stroke="#0071bc" stroke-linecap="round" fill="none" stroke-width="0.5" points="429.672,125.178 429.099,126.941 427.599,128.031 425.745,128.031 424.245,126.941 423.672,125.178 424.245,123.415 425.745,122.325 427.599,122.325 429.099,123.415 429.672,125.178"/>
   <polyline stroke-linejoin="round" stroke="#0071bc" stroke-linecap="round" fill="none" stroke-width="0.5" points="432.176,133.212 431.603,134.975 430.103,136.065 428.249,136.065 426.749,134.975 426.176,133.212 426.749,131.448 428.249,130.359 430.103,130.359 431.603,131.448 432.176,133.212"/>
   <polyline stroke-linejoin="round" stroke="#0071bc" stroke-linecap="round" fill="none" stroke-width="0.5" points="434.68,135.419 434.107,137.183 432.607,138.272 430.753,138.272 429.253,137.183 428.68,135.419 429.253,133.656 430.753,132.566 432.607,132.566 434.107,133.656 434.68,135.419"/>
   <polyline stroke-linejoin="round" stroke="#0071bc" stroke-linecap="round" fill="none" stroke-width="0.5" points="437.185,131.72 436.612,133.484 435.112,134.573 433.257,134.573 431.757,133.484 431.185,131.72 431.757,129.957 433.257,128.867 435.112,128.867 436.612,129.957 437.185,131.72"/>
   <polyline stroke-linejoin="round" stroke="#0071bc" stroke-linecap="round" fill="none" stroke-width="0.5" points="439.689,122.645 439.116,124.409 437.616,125.499 435.762,125.499 434.262,124.409 433.689,122.645 434.262,120.882 435.762,119.792 437.616,119.792 439.116,120.882 439.689,122.645"/>
   <polyline stroke-linejoin="round" stroke="#0071bc" stroke-linecap="round" fill="none" stroke-width="0.5" points="442.193,109.264 441.62,111.027 440.12,112.117 438.266,112.117 436.766,111.027 436.193,109.264 436.766,107.5 438.266,106.41 440.12,106.41 441.62,107.5 442.193,109.264"/>
   <polyline stroke-linejoin="round" stroke="#0071bc" stroke-linecap="round" fill="none" stroke-width="0.5" points="444.697,93.0543 444.125,94.8176 442.625,95.9074 440.77,95.9074 439.27,94.8176 438.697,93.0543 439.27,91.2909 440.77,90.2011 442.625,90.2011 444.125,91.2909 444.697,93.0543"/>
   <polyline stroke-linejoin="round" stroke="#0071bc" stroke-linecap="round" fill="none" stroke-width="0.5" points="447.202,75.7385 446.629,77.5018 445.129,78.5916 443.275,78.5916 441.775,77.5018 441.202,75.7385 441.775,73.9751 443.275,72.8853 445.129,72.8853 446.629,73.9751 447.202,75.7385"/>
   <polyline stroke-linejoin="round" stroke="#0071bc" stroke-linecap="round" fill="none" stroke-width="0.5" points="449.706,59.0897 449.133,60.853 447.633,61.9429 445.779,61.9429 444.279,60.853 443.706,59.0897 444.279,57.3263 445.779,56.2365 447.633,56.2365 449.133,57.3263 449.706,59.0897"/>
   <polyline stroke-linejoin="round" stroke="#0071bc" stroke-linecap="round" fill="none" stroke-width="0.5" points="452.21,44.7459 451.637,46.5092 450.137,47.5991 448.283,47.5991 446.783,46.5092 446.21,44.7459 446.783,42.9825 448.283,41.8927 450.137,41.8927 451.637,42.9825 452.21,44.7459"/>
   <polyline stroke-linejoin="round" stroke="#0071bc" stroke-linecap="round" fill="none" stroke-width="0.5" points="454.715,34.043 454.142,35.8063 452.642,36.8961 450.788,36.8961 449.288,35.8063 448.715,34.043 449.288,32.2796 450.788,31.1898 452.642,31.1898 454.142,32.2796 454.715,34.043"/>
   <polyline stroke-linejoin="round" stroke="#0071bc" stroke-linecap="round" fill="none" stroke-width="0.5" points="457.219,27.8875 456.646,29.6508 455.146,30.7406 453.292,30.7406 451.792,29.6508 451.219,27.8875 451.792,26.1241 453.292,25.0343 455.146,25.0343 456.646,26.1241 457.219,27.8875"/>
   <polyline stroke-linejoin="round" stroke="#0071bc" stroke-linecap="round" fill="none" stroke-width="0.5" points="459.723,26.6807 459.15,28.4441 457.65,29.5339 455.796,29.5339 454.296,28.4441 453.723,26.6807 454.296,24.9174 455.796,23.8276 457.65,23.8276 459.15,24.9174 459.723,26.6807"/>
   <polyline stroke-linejoin="round" stroke="#0071bc" stroke-linecap="round" fill="none" stroke-width="0.5" points="462.228,30.3008 461.655,32.0641 460.155,33.1539 458.301,33.1539 456.801,32.0641 456.228,30.3008 456.801,28.5374 458.301,27.4476 460.155,27.4476 461.655,28.5374 462.228,30.3008"/>
   <polyline stroke-linejoin="round" stroke="#0071bc" stroke-linecap="round" fill="none" stroke-width="0.5" points="464.732,38.1407 464.159,39.904 462.659,40.9938 460.805,40.9938 459.305,39.904 458.732,38.1407 459.305,36.3773 460.805,35.2875 462.659,35.2875 464.159,36.3773 464.732,38.1407"/>
   <polyline stroke-linejoin="round" stroke="#0071bc" stroke-linecap="round" fill="none" stroke-width="0.5" points="467.236,49.1969 466.663,50.9603 465.163,52.0501 463.309,52.0501 461.809,50.9603 461.236,49.1969 461.809,47.4336 463.309,46.3438 465.163,46.3438 466.663,47.4336 467.236,49.1969"/>
   <polyline stroke-linejoin="round" stroke="#0071bc" stroke-linecap="round" fill="none" stroke-width="0.5" points="469.74,62.1954 469.167,63.9587 467.667,65.0485 465.813,65.0485 464.313,63.9587 463.74,62.1954 464.313,60.432 465.813,59.3422 467.667,59.3422 469.167,60.432 469.74,62.1954"/>
   <polyline stroke-linejoin="round" stroke="#0071bc" stroke-linecap="round" fill="none" stroke-width="0.5" points="472.245,75.7385 471.672,77.5018 470.172,78.5916 468.318,78.5916 466.818,77.5018 466.245,75.7385 466.818,73.9751 468.318,72.8853 470.172,72.8853 471.672,73.9751 472.245,75.7385"/>
   <polyline stroke-linejoin="round" stroke="#0071bc" stroke-linecap="round" fill="none" stroke-width="0.5" points="474.749,88.4571 474.176,90.2204 472.676,91.3102 470.822,91.3102 469.322,90.2204 468.749,88.4571 469.322,86.6937 470.822,85.6039 472.676,85.6039 474.176,86.6937 474.749,88.4571"/>
   <polyline stroke-linejoin="round" stroke="#0071bc" stroke-linecap="round" fill="none" stroke-width="0.5" points="477.253,99.1496 476.68,100.913 475.18,102.003 473.326,102.003 471.826,100.913 471.253,99.1496 471.826,97.3863 473.326,96.2965 475.18,96.2965 476.68,97.3863 477.253,99.1496"/>
   <polyline stroke-linejoin="round" stroke="#0071bc" stroke-linecap="round" fill="none" stroke-width="0.5" points="479.758,106.895 479.185,108.658 477.685,109.748 475.831,109.748 474.331,108.658 473.758,106.895 474.331,105.131 475.831,104.041 477.685,104.041 479.185,105.131 479.758,106.895"/>
   <polyline stroke-linejoin="round" stroke="#0071bc" stroke-linecap="round" fill="none" stroke-width="0.5" points="482.262,111.126 481.689,112.889 480.189,113.979 478.335,113.979 476.835,112.889 476.262,111.126 476.835,109.363 478.335,108.273 480.189,108.273 481.689,109.363 482.262,111.126"/>
   <polyline stroke-linejoin="round" stroke="#0071bc" stroke-linecap="round" fill="none" stroke-width="0.5" points="484.766,111.665 484.193,113.429 482.693,114.519 480.839,114.519 479.339,113.429 478.766,111.665 479.339,109.902 480.839,108.812 482.693,108.812 484.193,109.902 484.766,111.665"/>
   <polyline stroke-linejoin="round" stroke="#0071bc" stroke-linecap="round" fill="none" stroke-width="0.5" points="487.271,108.713 486.698,110.476 485.198,111.566 483.343,111.566 481.843,110.476 481.271,108.713 481.843,106.949 483.343,105.859 485.198,105.859 486.698,106.949 487.271,108.713"/>
   <polyline stroke-linejoin="round" stroke="#0071bc" stroke-linecap="round" fill="none" stroke-width="0.5" points="489.775,102.797 489.202,104.56 487.702,105.65 485.848,105.65 484.348,104.56 483.775,102.797 484.348,101.034 485.848,99.9438 487.702,99.9438 489.202,101.034 489.775,102.797"/>
   <polyline stroke-linejoin="round" stroke="#0071bc" stroke-linecap="round" fill="none" stroke-width="0.5" points="492.279,94.6986 491.706,96.4619 490.206,97.5518 488.352,97.5518 486.852,96.4619 486.279,94.6986 486.852,92.9352 488.352,91.8454 490.206,91.8454 491.706,92.9352 492.279,94.6986"/>
   <polyline stroke-linejoin="round" stroke="#0071bc" stroke-linecap="round" fill="none" stroke-width="0.5" points="494.783,85.3514 494.21,87.1147 492.71,88.2046 490.856,88.2046 489.356,87.1147 488.783,85.3514 489.356,83.588 490.856,82.4982 492.71,82.4982 494.21,83.588 494.783,85.3514"/>
   <polyline stroke-linejoin="round" stroke="#0071bc" stroke-linecap="round" fill="none" stroke-width="0.5" points="497.288,75.7385 496.715,77.5018 495.215,78.5916 493.361,78.5916 491.861,77.5018 491.288,75.7385 491.861,73.9751 493.361,72.8853 495.215,72.8853 496.715,73.9751 497.288,75.7385"/>
   <polyline stroke-linejoin="round" stroke="#0071bc" stroke-linecap="round" fill="none" stroke-width="0.5" points="499.792,66.7926 499.219,68.5559 497.719,69.6457 495.865,69.6457 494.365,68.5559 493.792,66.7926 494.365,65.0292 495.865,63.9394 497.719,63.9394 499.219,65.0292 499.792,66.7926"/>
   <polyline stroke-linejoin="round" stroke="#0071bc" stroke-linecap="round" fill="none" stroke-width="0.5" points="502.296,59.3109 501.723,61.0742 500.223,62.164 498.369,62.164 496.869,61.0742 496.296,59.3109 496.869,57.5475 498.369,56.4577 500.223,56.4577 501.723,57.5475 502.296,59.3109"/>
   <polyline stroke-linejoin="round" stroke="#0071bc" stroke-linecap="round" fill="none" stroke-width="0.5" points="504.801,53.8913 504.228,55.6547 502.728,56.7445 500.874,56.7445 499.374,55.6547 498.801,53.8913 499.374,52.128 500.874,51.0382 502.728,51.0382 504.228,52.128 504.801,53.8913"/>
   <polyline stroke-linejoin="round" stroke="#0071bc" stroke-linecap="round" fill="none" stroke-width="0.5" points="507.305,50.8951 506.732,52.6584 505.232,53.7483 503.378,53.7483 501.878,52.6584 501.305,50.8951 501.878,49.1317 503.378,48.0419 505.232,48.0419 506.732,49.1317 507.305,50.8951"/>
   <polyline stroke-linejoin="round" stroke="#0071bc" stroke-linecap="round" fill="none" stroke-width="0.5" points="509.809,50.4347 509.236,52.198 507.736,53.2878 505.882,53.2878 504.382,52.198 503.809,50.4347 504.382,48.6713 505.882,47.5815 507.736,47.5815 509.236,48.6713 509.809,50.4347"/>
   <polyline stroke-linejoin="round" stroke="#0071bc" stroke-linecap="round" fill="none" stroke-width="0.5" points="512.314,52.3866 511.741,54.15 510.241,55.2398 508.386,55.2398 506.886,54.15 506.314,52.3866 506.886,50.6233 508.386,49.5334 510.241,49.5334 511.741,50.6233 512.314,52.3866"/>
   <polyline stroke-linejoin="round" stroke="#0071bc" stroke-linecap="round" fill="none" stroke-width="0.5" points="514.818,56.4239 514.245,58.1872 512.745,59.277 510.891,59.277 509.391,58.1872 508.818,56.4239 509.391,54.6605 510.891,53.5707 512.745,53.5707 514.245,54.6605 514.818,56.4239"/>
   <polyline stroke-linejoin="round" stroke="#0071bc" stroke-linecap="round" fill="none" stroke-width="0.5" points="517.322,62.0618 516.749,63.8251 515.249,64.9149 513.395,64.9149 511.895,63.8251 511.322,62.0618 511.895,60.2984 513.395,59.2086 515.249,59.2086 516.749,60.2984 517.322,62.0618"/>
   <polyline stroke-linejoin="round" stroke="#0071bc" stroke-linecap="round" fill="none" stroke-width="0.5" points="519.826,68.712 519.253,70.4753 517.753,71.5652 515.899,71.5652 514.399,70.4753 513.826,68.712 514.399,66.9486 515.899,65.8588 517.753,65.8588 519.253,66.9486 519.826,68.712"/>
   <polyline stroke-linejoin="round" stroke="#0071bc" stroke-linecap="round" fill="none" stroke-width="0.5" points="522.331,75.7385 521.758,77.5018 520.258,78.5916 518.404,78.5916 516.904,77.5018 516.331,75.7385 516.904,73.9751 518.404,72.8853 520.258,72.8853 521.758,73.9751 522.331,75.7385"/>
   <polyline stroke-linejoin="round" stroke="#0071bc" stroke-linecap="round" fill="none" stroke-width="0.5" points="524.835,82.5101 524.262,84.2735 522.762,85.3633 520.908,85.3633 519.408,84.2735 518.835,82.5101 519.408,80.7468 520.908,79.657 522.762,79.657 524.262,80.7468 524.835,82.5101"/>
   <polyline stroke-linejoin="round" stroke="#0071bc" stroke-linecap="round" fill="none" stroke-width="0.5" points="527.339,88.4478 526.766,90.2112 525.266,91.301 523.412,91.301 521.912,90.2112 521.339,88.4478 521.912,86.6845 523.412,85.5947 525.266,85.5947 526.766,86.6845 527.339,88.4478"/>
   <polyline stroke-linejoin="round" stroke="#0071bc" stroke-linecap="round" fill="none" stroke-width="0.5" points="529.844,93.0625 529.271,94.8259 527.771,95.9157 525.917,95.9157 524.417,94.8259 523.844,93.0625 524.417,91.2991 525.917,90.2093 527.771,90.2093 529.271,91.2991 529.844,93.0625"/>
   <polyline stroke-linejoin="round" stroke="#0071bc" stroke-linecap="round" fill="none" stroke-width="0.5" points="532.348,95.9846 531.775,97.748 530.275,98.8378 528.421,98.8378 526.921,97.748 526.348,95.9846 526.921,94.2213 528.421,93.1315 530.275,93.1315 531.775,94.2213 532.348,95.9846"/>
   <polyline stroke-linejoin="round" stroke="#0071bc" stroke-linecap="round" fill="none" stroke-width="0.5" points="534.852,96.9846 534.279,98.748 532.779,99.8378 530.925,99.8378 529.425,98.748 528.852,96.9846 529.425,95.2213 530.925,94.1315 532.779,94.1315 534.279,95.2213 534.852,96.9846"/>
   <polyline stroke-linejoin="round" stroke="#0071bc" stroke-linecap="round" fill="none" stroke-width="0.5" points="537.356,95.9846 536.784,97.748 535.284,98.8378 533.429,98.8378 531.929,97.748 531.356,95.9846 531.929,94.2213 533.429,93.1315 535.284,93.1315 536.784,94.2213 537.356,95.9846"/>
   <polyline stroke-linejoin="round" stroke="#0071bc" stroke-linecap="round" fill="none" stroke-width="0.5" points="539.861,93.0625 539.288,94.8259 537.788,95.9157 535.934,95.9157 534.434,94.8259 533.861,93.0625 534.434,91.2991 535.934,90.2093 537.788,90.2093 539.288,91.2991 539.861,93.0625"/>
   <polyline stroke-linejoin="round" stroke="#0071bc" stroke-linecap="round" fill="none" stroke-width="0.5" points="542.365,88.4478 541.792,90.2112 540.292,91.301 538.438,91.301 536.938,90.2112 536.365,88.4478 536.938,86.6845 538.438,85.5947 540.292,85.5947 541.792,86.6845 542.365,88.4478"/>
   <polyline stroke-linejoin="round" stroke="#0071bc" stroke-linecap="round" fill="none" stroke-width="0.5" points="544.869,82.5101 544.296,84.2735 542.796,85.3633 540.942,85.3633 539.442,84.2735 538.869,82.5101 539.442,80.7468 540.942,79.657 542.796,79.657 544.296,80.7468 544.869,82.5101"/>
   <polyline stroke-linejoin="round" stroke="#0071bc" stroke-linecap="round" fill="none" stroke-width="0.5" points="547.374,75.7385 546.801,77.5018 545.301,78.5916 543.447,78.5916 541.947,77.5018 541.374,75.7385 541.947,73.9751 543.447,72.8853 545.301,72.8853 546.801,73.9751 547.374,75.7385"/>
   <polyline stroke-linejoin="round" stroke="#0071bc" stroke-linecap="round" fill="none" stroke-width="0.5" points="549.878,68.712 549.305,70.4753 547.805,71.5652 545.951,71.5652 544.451,70.4753 543.878,68.712 544.451,66.9486 545.951,65.8588 547.805,65.8588 549.305,66.9486 549.878,68.712"/>
   <polyline stroke-linejoin="round" stroke="#0071bc" stroke-linecap="round" fill="none" stroke-width="0.5" points="552.382,62.0618 551.809,63.8251 550.309,64.9149 548.455,64.9149 546.955,63.8251 546.382,62.0618 546.955,60.2984 548.455,59.2086 550.309,59.2086 551.809,60.2984 552.382,62.0618"/>
   <polyline stroke-linejoin="round" stroke="#0071bc" stroke-linecap="round" fill="none" stroke-width="0.5" points="554.887,56.4239 554.314,58.1872 552.814,59.277 550.96,59.277 549.46,58.1872 548.887,56.4239 549.46,54.6605 550.96,53.5707 552.814,53.5707 554.314,54.6605 554.887,56.4239"/>
   <polyline stroke-linejoin="round" stroke="#0071bc" stroke-linecap="round" fill="none" stroke-width="0.5" points="557.391,52.3866 556.818,54.15 555.318,55.2398 553.464,55.2398 551.964,54.15 551.391,52.3866 551.964,50.6233 553.464,49.5334 555.318,49.5334 556.818,50.6233 557.391,52.3866"/>
   <polyline stroke-linejoin="round" stroke="#0071bc" stroke-linecap="round" fill="none" stroke-width="0.5" points="559.895,50.4347 559.322,52.198 557.822,53.2878 555.968,53.2878 554.468,52.198 553.895,50.4347 554.468,48.6713 555.968,47.5815 557.822,47.5815 559.322,48.6713 559.895,50.4347"/>
   <polyline stroke-linejoin="round" stroke="#0071bc" stroke-linecap="round" fill="none" stroke-width="0.5" points="562.399,50.8951 561.827,52.6584 560.327,53.7483 558.472,53.7483 556.972,52.6584 556.399,50.8951 556.972,49.1317 558.472,48.0419 560.327,48.0419 561.827,49.1317 562.399,50.8951"/>
   <polyline stroke-linejoin="round" stroke="#0071bc" stroke-linecap="round" fill="none" stroke-width="0.5" points="564.904,53.8913 564.331,55.6547 562.831,56.7445 560.977,56.7445 559.477,55.6547 558.904,53.8913 559.477,52.128 560.977,51.0382 562.831,51.0382 564.331,52.128 564.904,53.8913"/>
   <polyline stroke-linejoin="round" stroke="#0071bc" stroke-linecap="round" fill="none" stroke-width="0.5" points="567.408,59.3109 566.835,61.0742 565.335,62.164 563.481,62.164 561.981,61.0742 561.408,59.3109 561.981,57.5475 563.481,56.4577 565.335,56.4577 566.835,57.5475 567.408,59.3109"/>
   <polyline stroke-linejoin="round" stroke="#0071bc" stroke-linecap="round" fill="none" stroke-width="0.5" points="569.912,66.7926 569.339,68.5559 567.839,69.6457 565.985,69.6457 564.485,68.5559 563.912,66.7926 564.485,65.0292 565.985,63.9394 567.839,63.9394 569.339,65.0292 569.912,66.7926"/>
   <polyline stroke-linejoin="round" stroke="#0071bc" stroke-linecap="round" fill="none" stroke-width="0.5" points="572.417,75.7385 571.844,77.5018 570.344,78.5916 568.49,78.5916 566.99,77.5018 566.417,75.7385 566.99,73.9751 568.49,72.8853 570.344,72.8853 571.844,73.9751 572.417,75.7385"/>
   <polyline stroke-linejoin="round" stroke="#0071bc" stroke-linecap="round" fill="none" stroke-width="0.5" points="574.921,85.3514 574.348,87.1147 572.848,88.2046 570.994,88.2046 569.494,87.1147 568.921,85.3514 569.494,83.588 570.994,82.4982 572.848,82.4982 574.348,83.588 574.921,85.3514"/>
   <polyline stroke-linejoin="round" stroke="#0071bc" stroke-linecap="round" fill="none" stroke-width="0.5" points="577.425,94.6986 576.852,96.4619 575.352,97.5518 573.498,97.5518 571.998,96.4619 571.425,94.6986 571.998,92.9352 573.498,91.8454 575.352,91.8454 576.852,92.9352 577.425,94.6986"/>
   <polyline stroke-linejoin="round" stroke="#0071bc" stroke-linecap="round" fill="none" stroke-width="0.5" points="579.93,102.797 579.357,104.56 577.857,105.65 576.003,105.65 574.503,104.56 573.93,102.797 574.503,101.034 576.003,99.9438 577.857,99.9438 579.357,101.034 579.93,102.797"/>
   <polyline stroke-linejoin="round" stroke="#0071bc" stroke-linecap="round" fill="none" stroke-width="0.5" points="582.434,108.713 581.861,110.476 580.361,111.566 578.507,111.566 577.007,110.476 576.434,108.713 577.007,106.949 578.507,105.859 580.361,105.859 581.861,106.949 582.434,108.713"/>
   <polyline stroke-linejoin="round" stroke="#0071bc" stroke-linecap="round" fill="none" stroke-width="0.5" points="584.938,111.665 584.365,113.429 582.865,114.519 581.011,114.519 579.511,113.429 578.938,111.665 579.511,109.902 581.011,108.812 582.865,108.812 584.365,109.902 584.938,111.665"/>
   <polyline stroke-linejoin="round" stroke="#0071bc" stroke-linecap="round" fill="none" stroke-width="0.5" points="587.442,111.126 586.87,112.889 585.37,113.979 583.515,113.979 582.015,112.889 581.442,111.126 582.015,109.363 583.515,108.273 585.37,108.273 586.87,109.363 587.442,111.126"/>
   <polyline stroke-linejoin="round" stroke="#0071bc" stroke-linecap="round" fill="none" stroke-width="0.5" points="589.947,106.895 589.374,108.658 587.874,109.748 586.02,109.748 584.52,108.658 583.947,106.895 584.52,105.131 586.02,104.041 587.874,104.041 589.374,105.131 589.947,106.895"/>
   <polyline stroke-linejoin="round" stroke="#0071bc" stroke-linecap="round" fill="none" stroke-width="0.5" points="592.451,99.1496 591.878,100.913 590.378,102.003 588.524,102.003 587.024,100.913 586.451,99.1496 587.024,97.3863 588.524,96.2965 590.378,96.2965 591.878,97.3863 592.451,99.1496"/>
   <polyline stroke-linejoin="round" stroke="#0071bc" stroke-linecap="round" fill="none" stroke-width="0.5" points="594.955,88.4571 594.382,90.2204 592.882,91.3102 591.028,91.3102 589.528,90.2204 588.955,88.4571 589.528,86.6937 591.028,85.6039 592.882,85.6039 594.382,86.6937 594.955,88.4571"/>
  </g>
 </g>
</svg>
