<?xml version='1.0' encoding='UTF-8' standalone='no'?>
<svg viewBox="0 0 720 160" height="160pt" xmlns:xlink="http://www.w3.org/1999/xlink" xmlns="http://www.w3.org/2000/svg" width="720pt">
 <title>gl2ps_renderer figure</title>
 <desc>
Creator: GL2PS 1.4.0, (C) 1999-2017 C. Geuzaine
For: Octave
CreationDate: Sat Nov 28 21:22:11 2020
</desc>
 <defs/>
 <polygon points="0,0 720,0 720,160 0,160" fill="#ffffff"/>
 <g>
  <polygon points="0,160 720,160 720,0 0,0" fill="#ffffff" shape-rendering="crispEdges"/>
  <clipPath id="cp00720160">
   <polygon points="0,160 720,160 720,0 0,0"/>
  </clipPath>
  <g clip-path="url(#cp00720160)">
   <polyline stroke="#0071bc" points="96.6,139.477 96.0271,141.24 94.5271,142.33 92.6729,142.33 91.1729,141.24 90.6,139.477 91.1729,137.714 92.6729,136.624 94.5271,136.624 96.0271,137.714 96.6,139.477" fill="none" stroke-linejoin="round" stroke-width="0.5" stroke-linecap="round"/>
   <polyline stroke="#0071bc" points="99.1043,139.477 98.5314,141.24 97.0314,142.33 95.1772,142.33 93.6772,141.24 93.1043,139.477 93.6772,137.714 95.1772,136.624 97.0314,136.624 98.5314,137.714 99.1043,139.477" fill="none" stroke-linejoin="round" stroke-width="0.5" stroke-linecap="round"/>
   <polyline stroke="#0071bc" points="101.609,139.477 101.036,141.24 99.5357,142.33 97.6815,142.33 96.1815,141.24 95.6086,139.477 96.1815,137.714 97.6815,136.624 99.5357,136.624 101.036,137.714 101.609,139.477" fill="none" stroke-linejoin="round" stroke-width="0.5" stroke-linecap="round"/>
   <polyline stroke="#0071bc" points="104.113,139.477 103.54,141.24 102.04,142.33 100.186,142.33 98.6858,141.24 98.1129,139.477 98.6858,137.714 100.186,136.624 102.04,136.624 103.54,137.714 104.113,139.477" fill="none" stroke-linejoin="round" stroke-width="0.5" stroke-linecap="round"/>
   <polyline stroke="#0071bc" points="106.617,139.477 106.044,141.24 104.544,142.33 102.69,142.33 101.19,141.24 100.617,139.477 101.19,137.714 102.69,136.624 104.544,136.624 106.044,137.714 106.617,139.477" fill="none" stroke-linejoin="round" stroke-width="0.5" stroke-linecap="round"/>
   <polyline stroke="#0071bc" points="109.121,139.477 108.549,141.24 107.049,142.33 105.194,142.33 103.694,141.24 103.121,139.477 103.694,137.714 105.194,136.624 107.049,136.624 108.549,137.714 109.121,139.477" fill="none" stroke-linejoin="round" stroke-width="0.5" stroke-linecap="round"/>
   <polyline stroke="#0071bc" points="111.626,139.477 111.053,141.24 109.553,142.33 107.699,142.33 106.199,141.24 105.626,139.477 106.199,137.714 107.699,136.624 109.553,136.624 111.053,137.714 111.626,139.477" fill="none" stroke-linejoin="round" stroke-width="0.5" stroke-linecap="round"/>
   <polyline stroke="#0071bc" points="114.13,139.477 113.557,141.24 112.057,142.33 110.203,142.33 108.703,141.24 108.13,139.477 108.703,137.714 110.203,136.624 112.057,136.624 113.557,137.714 114.13,139.477" fill="none" stroke-linejoin="round" stroke-width="0.5" stroke-linecap="round"/>
   <polyline stroke="#0071bc" points="116.634,112.919 116.061,114.683 114.561,115.772 112.707,115.772 111.207,114.683 110.634,112.919 111.207,111.156 112.707,110.066 114.561,110.066 116.061,111.156 116.634,112.919" fill="none" stroke-linejoin="round" stroke-width="0.5" stroke-linecap="round"/>
   <polyline stroke="#0071bc" points="119.139,139.477 118.566,141.24 117.066,142.33 115.212,142.33 113.712,141.24 113.139,139.477 113.712,137.714 115.212,136.624 117.066,136.624 118.566,137.714 119.139,139.477" fill="none" stroke-linejoin="round" stroke-width="0.5" stroke-linecap="round"/>
   <polyline stroke="#0071bc" points="121.643,33.2462 121.07,35.0095 119.57,36.0993 117.716,36.0993 116.216,35.0095 115.643,33.2462 116.216,31.4828 117.716,30.393 119.57,30.393 121.07,31.4828 121.643,33.2462" fill="none" stroke-linejoin="round" stroke-width="0.5" stroke-linecap="round"/>
   <polyline stroke="#0071bc" points="124.147,139.477 123.574,141.24 122.074,142.33 120.22,142.33 118.72,141.24 118.147,139.477 118.72,137.714 120.22,136.624 122.074,136.624 123.574,137.714 124.147,139.477" fill="none" stroke-linejoin="round" stroke-width="0.5" stroke-linecap="round"/>
   <polyline stroke="#0071bc" points="126.652,112.919 126.079,114.683 124.579,115.772 122.725,115.772 121.225,114.683 120.652,112.919 121.225,111.156 122.725,110.066 124.579,110.066 126.079,111.156 126.652,112.919" fill="none" stroke-linejoin="round" stroke-width="0.5" stroke-linecap="round"/>
   <polyline stroke="#0071bc" points="129.156,139.477 128.583,141.24 127.083,142.33 125.229,142.33 123.729,141.24 123.156,139.477 123.729,137.714 125.229,136.624 127.083,136.624 128.583,137.714 129.156,139.477" fill="none" stroke-linejoin="round" stroke-width="0.5" stroke-linecap="round"/>
   <polyline stroke="#0071bc" points="131.66,139.477 131.087,141.24 129.587,142.33 127.733,142.33 126.233,141.24 125.66,139.477 126.233,137.714 127.733,136.624 129.587,136.624 131.087,137.714 131.66,139.477" fill="none" stroke-linejoin="round" stroke-width="0.5" stroke-linecap="round"/>
   <polyline stroke="#0071bc" points="134.164,139.477 133.592,141.24 132.092,142.33 130.237,142.33 128.737,141.24 128.164,139.477 128.737,137.714 130.237,136.624 132.092,136.624 133.592,137.714 134.164,139.477" fill="none" stroke-linejoin="round" stroke-width="0.5" stroke-linecap="round"/>
   <polyline stroke="#0071bc" points="136.669,139.477 136.096,141.24 134.596,142.33 132.742,142.33 131.242,141.24 130.669,139.477 131.242,137.714 132.742,136.624 134.596,136.624 136.096,137.714 136.669,139.477" fill="none" stroke-linejoin="round" stroke-width="0.5" stroke-linecap="round"/>
   <polyline stroke="#0071bc" points="139.173,139.477 138.6,141.24 137.1,142.33 135.246,142.33 133.746,141.24 133.173,139.477 133.746,137.714 135.246,136.624 137.1,136.624 138.6,137.714 139.173,139.477" fill="none" stroke-linejoin="round" stroke-width="0.5" stroke-linecap="round"/>
   <polyline stroke="#0071bc" points="141.677,139.477 141.104,141.24 139.604,142.33 137.75,142.33 136.25,141.24 135.677,139.477 136.25,137.714 137.75,136.624 139.604,136.624 141.104,137.714 141.677,139.477" fill="none" stroke-linejoin="round" stroke-width="0.5" stroke-linecap="round"/>
   <polyline stroke="#0071bc" points="144.182,139.477 143.609,141.24 142.109,142.33 140.255,142.33 138.755,141.24 138.182,139.477 138.755,137.714 140.255,136.624 142.109,136.624 143.609,137.714 144.182,139.477" fill="none" stroke-linejoin="round" stroke-width="0.5" stroke-linecap="round"/>
   <polyline stroke="#0071bc" points="146.686,139.477 146.113,141.24 144.613,142.33 142.759,142.33 141.259,141.24 140.686,139.477 141.259,137.714 142.759,136.624 144.613,136.624 146.113,137.714 146.686,139.477" fill="none" stroke-linejoin="round" stroke-width="0.5" stroke-linecap="round"/>
   <polyline stroke="#0071bc" points="149.19,139.477 148.617,141.24 147.117,142.33 145.263,142.33 143.763,141.24 143.19,139.477 143.763,137.714 145.263,136.624 147.117,136.624 148.617,137.714 149.19,139.477" fill="none" stroke-linejoin="round" stroke-width="0.5" stroke-linecap="round"/>
   <polyline stroke="#0071bc" points="151.695,139.477 151.122,141.24 149.622,142.33 147.768,142.33 146.268,141.24 145.695,139.477 146.268,137.714 147.768,136.624 149.622,136.624 151.122,137.714 151.695,139.477" fill="none" stroke-linejoin="round" stroke-width="0.5" stroke-linecap="round"/>
   <polyline stroke="#0071bc" points="154.199,139.477 153.626,141.24 152.126,142.33 150.272,142.33 148.772,141.24 148.199,139.477 148.772,137.714 150.272,136.624 152.126,136.624 153.626,137.714 154.199,139.477" fill="none" stroke-linejoin="round" stroke-width="0.5" stroke-linecap="round"/>
   <polyline stroke="#0071bc" points="156.703,139.477 156.13,141.24 154.63,142.33 152.776,142.33 151.276,141.24 150.703,139.477 151.276,137.714 152.776,136.624 154.63,136.624 156.13,137.714 156.703,139.477" fill="none" stroke-linejoin="round" stroke-width="0.5" stroke-linecap="round"/>
   <polyline stroke="#0071bc" points="159.207,139.477 158.635,141.24 157.135,142.33 155.28,142.33 153.78,141.24 153.207,139.477 153.78,137.714 155.28,136.624 157.135,136.624 158.635,137.714 159.207,139.477" fill="none" stroke-linejoin="round" stroke-width="0.5" stroke-linecap="round"/>
   <polyline stroke="#0071bc" points="161.712,139.477 161.139,141.24 159.639,142.33 157.785,142.33 156.285,141.24 155.712,139.477 156.285,137.714 157.785,136.624 159.639,136.624 161.139,137.714 161.712,139.477" fill="none" stroke-linejoin="round" stroke-width="0.5" stroke-linecap="round"/>
   <polyline stroke="#0071bc" points="164.216,139.477 163.643,141.24 162.143,142.33 160.289,142.33 158.789,141.24 158.216,139.477 158.789,137.714 160.289,136.624 162.143,136.624 163.643,137.714 164.216,139.477" fill="none" stroke-linejoin="round" stroke-width="0.5" stroke-linecap="round"/>
   <polyline stroke="#0071bc" points="166.72,139.477 166.147,141.24 164.647,142.33 162.793,142.33 161.293,141.24 160.72,139.477 161.293,137.714 162.793,136.624 164.647,136.624 166.147,137.714 166.72,139.477" fill="none" stroke-linejoin="round" stroke-width="0.5" stroke-linecap="round"/>
   <polyline stroke="#0071bc" points="169.225,139.477 168.652,141.24 167.152,142.33 165.298,142.33 163.798,141.24 163.225,139.477 163.798,137.714 165.298,136.624 167.152,136.624 168.652,137.714 169.225,139.477" fill="none" stroke-linejoin="round" stroke-width="0.5" stroke-linecap="round"/>
   <polyline stroke="#0071bc" points="171.729,139.477 171.156,141.24 169.656,142.33 167.802,142.33 166.302,141.24 165.729,139.477 166.302,137.714 167.802,136.624 169.656,136.624 171.156,137.714 171.729,139.477" fill="none" stroke-linejoin="round" stroke-width="0.5" stroke-linecap="round"/>
   <polyline stroke="#0071bc" points="174.233,139.477 173.66,141.24 172.16,142.33 170.306,142.33 168.806,141.24 168.233,139.477 168.806,137.714 170.306,136.624 172.16,136.624 173.66,137.714 174.233,139.477" fill="none" stroke-linejoin="round" stroke-width="0.5" stroke-linecap="round"/>
   <polyline stroke="#0071bc" points="176.738,139.477 176.165,141.24 174.665,142.33 172.81,142.33 171.31,141.24 170.738,139.477 171.31,137.714 172.81,136.624 174.665,136.624 176.165,137.714 176.738,139.477" fill="none" stroke-linejoin="round" stroke-width="0.5" stroke-linecap="round"/>
   <polyline stroke="#0071bc" points="179.242,139.477 178.669,141.24 177.169,142.33 175.315,142.33 173.815,141.24 173.242,139.477 173.815,137.714 175.315,136.624 177.169,136.624 178.669,137.714 179.242,139.477" fill="none" stroke-linejoin="round" stroke-width="0.5" stroke-linecap="round"/>
   <polyline stroke="#0071bc" points="181.746,139.477 181.173,141.24 179.673,142.33 177.819,142.33 176.319,141.24 175.746,139.477 176.319,137.714 177.819,136.624 179.673,136.624 181.173,137.714 181.746,139.477" fill="none" stroke-linejoin="round" stroke-width="0.5" stroke-linecap="round"/>
   <polyline stroke="#0071bc" points="184.25,139.477 183.678,141.24 182.177,142.33 180.323,142.33 178.823,141.24 178.25,139.477 178.823,137.714 180.323,136.624 182.177,136.624 183.678,137.714 184.25,139.477" fill="none" stroke-linejoin="round" stroke-width="0.5" stroke-linecap="round"/>
   <polyline stroke="#0071bc" points="186.755,139.477 186.182,141.24 184.682,142.33 182.828,142.33 181.328,141.24 180.755,139.477 181.328,137.714 182.828,136.624 184.682,136.624 186.182,137.714 186.755,139.477" fill="none" stroke-linejoin="round" stroke-width="0.5" stroke-linecap="round"/>
   <polyline stroke="#0071bc" points="189.259,139.477 188.686,141.24 187.186,142.33 185.332,142.33 183.832,141.24 183.259,139.477 183.832,137.714 185.332,136.624 187.186,136.624 188.686,137.714 189.259,139.477" fill="none" stroke-linejoin="round" stroke-width="0.5" stroke-linecap="round"/>
   <polyline stroke="#0071bc" points="191.763,139.477 191.19,141.24 189.69,142.33 187.836,142.33 186.336,141.24 185.763,139.477 186.336,137.714 187.836,136.624 189.69,136.624 191.19,137.714 191.763,139.477" fill="none" stroke-linejoin="round" stroke-width="0.5" stroke-linecap="round"/>
   <polyline stroke="#0071bc" points="194.268,139.477 193.695,141.24 192.195,142.33 190.341,142.33 188.841,141.24 188.268,139.477 188.841,137.714 190.341,136.624 192.195,136.624 193.695,137.714 194.268,139.477" fill="none" stroke-linejoin="round" stroke-width="0.5" stroke-linecap="round"/>
   <polyline stroke="#0071bc" points="196.772,139.477 196.199,141.24 194.699,142.33 192.845,142.33 191.345,141.24 190.772,139.477 191.345,137.714 192.845,136.624 194.699,136.624 196.199,137.714 196.772,139.477" fill="none" stroke-linejoin="round" stroke-width="0.5" stroke-linecap="round"/>
   <polyline stroke="#0071bc" points="199.276,139.477 198.703,141.24 197.203,142.33 195.349,142.33 193.849,141.24 193.276,139.477 193.849,137.714 195.349,136.624 197.203,136.624 198.703,137.714 199.276,139.477" fill="none" stroke-linejoin="round" stroke-width="0.5" stroke-linecap="round"/>
   <polyline stroke="#0071bc" points="201.781,139.477 201.208,141.24 199.708,142.33 197.853,142.33 196.353,141.24 195.781,139.477 196.353,137.714 197.853,136.624 199.708,136.624 201.208,137.714 201.781,139.477" fill="none" stroke-linejoin="round" stroke-width="0.5" stroke-linecap="round"/>
   <polyline stroke="#0071bc" points="204.285,139.477 203.712,141.24 202.212,142.33 200.358,142.33 198.858,141.24 198.285,139.477 198.858,137.714 200.358,136.624 202.212,136.624 203.712,137.714 204.285,139.477" fill="none" stroke-linejoin="round" stroke-width="0.5" stroke-linecap="round"/>
   <polyline stroke="#0071bc" points="206.789,139.477 206.216,141.24 204.716,142.33 202.862,142.33 201.362,141.24 200.789,139.477 201.362,137.714 202.862,136.624 204.716,136.624 206.216,137.714 206.789,139.477" fill="none" stroke-linejoin="round" stroke-width="0.5" stroke-linecap="round"/>
   <polyline stroke="#0071bc" points="209.293,139.477 208.72,141.24 207.22,142.33 205.366,142.33 203.866,141.24 203.293,139.477 203.866,137.714 205.366,136.624 207.22,136.624 208.72,137.714 209.293,139.477" fill="none" stroke-linejoin="round" stroke-width="0.5" stroke-linecap="round"/>
   <polyline stroke="#0071bc" points="211.798,139.477 211.225,141.24 209.725,142.33 207.871,142.33 206.371,141.24 205.798,139.477 206.371,137.714 207.871,136.624 209.725,136.624 211.225,137.714 211.798,139.477" fill="none" stroke-linejoin="round" stroke-width="0.5" stroke-linecap="round"/>
   <polyline stroke="#0071bc" points="214.302,139.477 213.729,141.24 212.229,142.33 210.375,142.33 208.875,141.24 208.302,139.477 208.875,137.714 210.375,136.624 212.229,136.624 213.729,137.714 214.302,139.477" fill="none" stroke-linejoin="round" stroke-width="0.5" stroke-linecap="round"/>
   <polyline stroke="#0071bc" points="216.806,139.477 216.233,141.24 214.733,142.33 212.879,142.33 211.379,141.24 210.806,139.477 211.379,137.714 212.879,136.624 214.733,136.624 216.233,137.714 216.806,139.477" fill="none" stroke-linejoin="round" stroke-width="0.5" stroke-linecap="round"/>
   <polyline stroke="#0071bc" points="219.311,139.477 218.738,141.24 217.238,142.33 215.384,142.33 213.884,141.24 213.311,139.477 213.884,137.714 215.384,136.624 217.238,136.624 218.738,137.714 219.311,139.477" fill="none" stroke-linejoin="round" stroke-width="0.5" stroke-linecap="round"/>
   <polyline stroke="#0071bc" points="221.815,139.477 221.242,141.24 219.742,142.33 217.888,142.33 216.388,141.24 215.815,139.477 216.388,137.714 217.888,136.624 219.742,136.624 221.242,137.714 221.815,139.477" fill="none" stroke-linejoin="round" stroke-width="0.5" stroke-linecap="round"/>
   <polyline stroke="#0071bc" points="224.319,139.477 223.746,141.24 222.246,142.33 220.392,142.33 218.892,141.24 218.319,139.477 218.892,137.714 220.392,136.624 222.246,136.624 223.746,137.714 224.319,139.477" fill="none" stroke-linejoin="round" stroke-width="0.5" stroke-linecap="round"/>
   <polyline stroke="#0071bc" points="226.824,139.477 226.251,141.24 224.751,142.33 222.896,142.33 221.396,141.24 220.824,139.477 221.396,137.714 222.896,136.624 224.751,136.624 226.251,137.714 226.824,139.477" fill="none" stroke-linejoin="round" stroke-width="0.5" stroke-linecap="round"/>
   <polyline stroke="#0071bc" points="229.328,139.477 228.755,141.24 227.255,142.33 225.401,142.33 223.901,141.24 223.328,139.477 223.901,137.714 225.401,136.624 227.255,136.624 228.755,137.714 229.328,139.477" fill="none" stroke-linejoin="round" stroke-width="0.5" stroke-linecap="round"/>
   <polyline stroke="#0071bc" points="231.832,139.477 231.259,141.24 229.759,142.33 227.905,142.33 226.405,141.24 225.832,139.477 226.405,137.714 227.905,136.624 229.759,136.624 231.259,137.714 231.832,139.477" fill="none" stroke-linejoin="round" stroke-width="0.5" stroke-linecap="round"/>
   <polyline stroke="#0071bc" points="234.336,139.477 233.763,141.24 232.263,142.33 230.409,142.33 228.909,141.24 228.336,139.477 228.909,137.714 230.409,136.624 232.263,136.624 233.763,137.714 234.336,139.477" fill="none" stroke-linejoin="round" stroke-width="0.5" stroke-linecap="round"/>
   <polyline stroke="#0071bc" points="236.841,139.477 236.268,141.24 234.768,142.33 232.914,142.33 231.414,141.24 230.841,139.477 231.414,137.714 232.914,136.624 234.768,136.624 236.268,137.714 236.841,139.477" fill="none" stroke-linejoin="round" stroke-width="0.5" stroke-linecap="round"/>
   <polyline stroke="#0071bc" points="239.345,139.477 238.772,141.24 237.272,142.33 235.418,142.33 233.918,141.24 233.345,139.477 233.918,137.714 235.418,136.624 237.272,136.624 238.772,137.714 239.345,139.477" fill="none" stroke-linejoin="round" stroke-width="0.5" stroke-linecap="round"/>
   <polyline stroke="#0071bc" points="241.849,139.477 241.276,141.24 239.776,142.33 237.922,142.33 236.422,141.24 235.849,139.477 236.422,137.714 237.922,136.624 239.776,136.624 241.276,137.714 241.849,139.477" fill="none" stroke-linejoin="round" stroke-width="0.5" stroke-linecap="round"/>
   <polyline stroke="#0071bc" points="244.354,139.477 243.781,141.24 242.281,142.33 240.427,142.33 238.927,141.24 238.354,139.477 238.927,137.714 240.427,136.624 242.281,136.624 243.781,137.714 244.354,139.477" fill="none" stroke-linejoin="round" stroke-width="0.5" stroke-linecap="round"/>
   <polyline stroke="#0071bc" points="246.858,139.477 246.285,141.24 244.785,142.33 242.931,142.33 241.431,141.24 240.858,139.477 241.431,137.714 242.931,136.624 244.785,136.624 246.285,137.714 246.858,139.477" fill="none" stroke-linejoin="round" stroke-width="0.5" stroke-linecap="round"/>
   <polyline stroke="#0071bc" points="249.362,139.477 248.789,141.24 247.289,142.33 245.435,142.33 243.935,141.24 243.362,139.477 243.935,137.714 245.435,136.624 247.289,136.624 248.789,137.714 249.362,139.477" fill="none" stroke-linejoin="round" stroke-width="0.5" stroke-linecap="round"/>
   <polyline stroke="#0071bc" points="251.866,139.477 251.294,141.24 249.794,142.33 247.939,142.33 246.439,141.24 245.866,139.477 246.439,137.714 247.939,136.624 249.794,136.624 251.294,137.714 251.866,139.477" fill="none" stroke-linejoin="round" stroke-width="0.5" stroke-linecap="round"/>
   <polyline stroke="#0071bc" points="254.371,139.477 253.798,141.24 252.298,142.33 250.444,142.33 248.944,141.24 248.371,139.477 248.944,137.714 250.444,136.624 252.298,136.624 253.798,137.714 254.371,139.477" fill="none" stroke-linejoin="round" stroke-width="0.5" stroke-linecap="round"/>
   <polyline stroke="#0071bc" points="256.875,139.477 256.302,141.24 254.802,142.33 252.948,142.33 251.448,141.24 250.875,139.477 251.448,137.714 252.948,136.624 254.802,136.624 256.302,137.714 256.875,139.477" fill="none" stroke-linejoin="round" stroke-width="0.5" stroke-linecap="round"/>
   <polyline stroke="#0071bc" points="259.379,139.477 258.806,141.24 257.306,142.33 255.452,142.33 253.952,141.24 253.379,139.477 253.952,137.714 255.452,136.624 257.306,136.624 258.806,137.714 259.379,139.477" fill="none" stroke-linejoin="round" stroke-width="0.5" stroke-linecap="round"/>
   <polyline stroke="#0071bc" points="261.884,139.477 261.311,141.24 259.811,142.33 257.957,142.33 256.457,141.24 255.884,139.477 256.457,137.714 257.957,136.624 259.811,136.624 261.311,137.714 261.884,139.477" fill="none" stroke-linejoin="round" stroke-width="0.5" stroke-linecap="round"/>
   <polyline stroke="#0071bc" points="264.388,139.477 263.815,141.24 262.315,142.33 260.461,142.33 258.961,141.24 258.388,139.477 258.961,137.714 260.461,136.624 262.315,136.624 263.815,137.714 264.388,139.477" fill="none" stroke-linejoin="round" stroke-width="0.5" stroke-linecap="round"/>
   <polyline stroke="#0071bc" points="266.892,139.477 266.319,141.24 264.819,142.33 262.965,142.33 261.465,141.24 260.892,139.477 261.465,137.714 262.965,136.624 264.819,136.624 266.319,137.714 266.892,139.477" fill="none" stroke-linejoin="round" stroke-width="0.5" stroke-linecap="round"/>
   <polyline stroke="#0071bc" points="269.397,139.477 268.824,141.24 267.324,142.33 265.47,142.33 263.97,141.24 263.397,139.477 263.97,137.714 265.47,136.624 267.324,136.624 268.824,137.714 269.397,139.477" fill="none" stroke-linejoin="round" stroke-width="0.5" stroke-linecap="round"/>
   <polyline stroke="#0071bc" points="271.901,139.477 271.328,141.24 269.828,142.33 267.974,142.33 266.474,141.24 265.901,139.477 266.474,137.714 267.974,136.624 269.828,136.624 271.328,137.714 271.901,139.477" fill="none" stroke-linejoin="round" stroke-width="0.5" stroke-linecap="round"/>
   <polyline stroke="#0071bc" points="274.405,139.477 273.832,141.24 272.332,142.33 270.478,142.33 268.978,141.24 268.405,139.477 268.978,137.714 270.478,136.624 272.332,136.624 273.832,137.714 274.405,139.477" fill="none" stroke-linejoin="round" stroke-width="0.5" stroke-linecap="round"/>
   <polyline stroke="#0071bc" points="276.909,139.477 276.337,141.24 274.837,142.33 272.982,142.33 271.482,141.24 270.909,139.477 271.482,137.714 272.982,136.624 274.837,136.624 276.337,137.714 276.909,139.477" fill="none" stroke-linejoin="round" stroke-width="0.5" stroke-linecap="round"/>
   <polyline stroke="#0071bc" points="279.414,139.477 278.841,141.24 277.341,142.33 275.487,142.33 273.987,141.24 273.414,139.477 273.987,137.714 275.487,136.624 277.341,136.624 278.841,137.714 279.414,139.477" fill="none" stroke-linejoin="round" stroke-width="0.5" stroke-linecap="round"/>
   <polyline stroke="#0071bc" points="281.918,139.477 281.345,141.24 279.845,142.33 277.991,142.33 276.491,141.24 275.918,139.477 276.491,137.714 277.991,136.624 279.845,136.624 281.345,137.714 281.918,139.477" fill="none" stroke-linejoin="round" stroke-width="0.5" stroke-linecap="round"/>
   <polyline stroke="#0071bc" points="284.422,139.477 283.849,141.24 282.349,142.33 280.495,142.33 278.995,141.24 278.422,139.477 278.995,137.714 280.495,136.624 282.349,136.624 283.849,137.714 284.422,139.477" fill="none" stroke-linejoin="round" stroke-width="0.5" stroke-linecap="round"/>
   <polyline stroke="#0071bc" points="286.927,139.477 286.354,141.24 284.854,142.33 283,142.33 281.5,141.24 280.927,139.477 281.5,137.714 283,136.624 284.854,136.624 286.354,137.714 286.927,139.477" fill="none" stroke-linejoin="round" stroke-width="0.5" stroke-linecap="round"/>
   <polyline stroke="#0071bc" points="289.431,139.477 288.858,141.24 287.358,142.33 285.504,142.33 284.004,141.24 283.431,139.477 284.004,137.714 285.504,136.624 287.358,136.624 288.858,137.714 289.431,139.477" fill="none" stroke-linejoin="round" stroke-width="0.5" stroke-linecap="round"/>
   <polyline stroke="#0071bc" points="291.935,139.477 291.362,141.24 289.862,142.33 288.008,142.33 286.508,141.24 285.935,139.477 286.508,137.714 288.008,136.624 289.862,136.624 291.362,137.714 291.935,139.477" fill="none" stroke-linejoin="round" stroke-width="0.5" stroke-linecap="round"/>
   <polyline stroke="#0071bc" points="294.44,139.477 293.867,141.24 292.367,142.33 290.513,142.33 289.013,141.24 288.44,139.477 289.013,137.714 290.513,136.624 292.367,136.624 293.867,137.714 294.44,139.477" fill="none" stroke-linejoin="round" stroke-width="0.5" stroke-linecap="round"/>
   <polyline stroke="#0071bc" points="296.944,139.477 296.371,141.24 294.871,142.33 293.017,142.33 291.517,141.24 290.944,139.477 291.517,137.714 293.017,136.624 294.871,136.624 296.371,137.714 296.944,139.477" fill="none" stroke-linejoin="round" stroke-width="0.5" stroke-linecap="round"/>
   <polyline stroke="#0071bc" points="299.448,139.477 298.875,141.24 297.375,142.33 295.521,142.33 294.021,141.24 293.448,139.477 294.021,137.714 295.521,136.624 297.375,136.624 298.875,137.714 299.448,139.477" fill="none" stroke-linejoin="round" stroke-width="0.5" stroke-linecap="round"/>
   <polyline stroke="#0071bc" points="301.952,139.477 301.379,141.24 299.88,142.33 298.025,142.33 296.525,141.24 295.952,139.477 296.525,137.714 298.025,136.624 299.88,136.624 301.379,137.714 301.952,139.477" fill="none" stroke-linejoin="round" stroke-width="0.5" stroke-linecap="round"/>
   <polyline stroke="#0071bc" points="304.457,139.477 303.884,141.24 302.384,142.33 300.53,142.33 299.03,141.24 298.457,139.477 299.03,137.714 300.53,136.624 302.384,136.624 303.884,137.714 304.457,139.477" fill="none" stroke-linejoin="round" stroke-width="0.5" stroke-linecap="round"/>
   <polyline stroke="#0071bc" points="306.961,139.477 306.388,141.24 304.888,142.33 303.034,142.33 301.534,141.24 300.961,139.477 301.534,137.714 303.034,136.624 304.888,136.624 306.388,137.714 306.961,139.477" fill="none" stroke-linejoin="round" stroke-width="0.5" stroke-linecap="round"/>
   <polyline stroke="#0071bc" points="309.465,139.477 308.892,141.24 307.392,142.33 305.538,142.33 304.038,141.24 303.465,139.477 304.038,137.714 305.538,136.624 307.392,136.624 308.892,137.714 309.465,139.477" fill="none" stroke-linejoin="round" stroke-width="0.5" stroke-linecap="round"/>
   <polyline stroke="#0071bc" points="311.97,139.477 311.397,141.24 309.897,142.33 308.043,142.33 306.543,141.24 305.97,139.477 306.543,137.714 308.043,136.624 309.897,136.624 311.397,137.714 311.97,139.477" fill="none" stroke-linejoin="round" stroke-width="0.5" stroke-linecap="round"/>
   <polyline stroke="#0071bc" points="314.474,139.477 313.901,141.24 312.401,142.33 310.547,142.33 309.047,141.24 308.474,139.477 309.047,137.714 310.547,136.624 312.401,136.624 313.901,137.714 314.474,139.477" fill="none" stroke-linejoin="round" stroke-width="0.5" stroke-linecap="round"/>
   <polyline stroke="#0071bc" points="316.978,139.477 316.405,141.24 314.905,142.33 313.051,142.33 311.551,141.24 310.978,139.477 311.551,137.714 313.051,136.624 314.905,136.624 316.405,137.714 316.978,139.477" fill="none" stroke-linejoin="round" stroke-width="0.5" stroke-linecap="round"/>
   <polyline stroke="#0071bc" points="319.483,139.477 318.91,141.24 317.41,142.33 315.556,142.33 314.056,141.24 313.483,139.477 314.056,137.714 315.556,136.624 317.41,136.624 318.91,137.714 319.483,139.477" fill="none" stroke-linejoin="round" stroke-width="0.5" stroke-linecap="round"/>
   <polyline stroke="#0071bc" points="321.987,139.477 321.414,141.24 319.914,142.33 318.06,142.33 316.56,141.24 315.987,139.477 316.56,137.714 318.06,136.624 319.914,136.624 321.414,137.714 321.987,139.477" fill="none" stroke-linejoin="round" stroke-width="0.5" stroke-linecap="round"/>
   <polyline stroke="#0071bc" points="324.491,139.477 323.918,141.24 322.418,142.33 320.564,142.33 319.064,141.24 318.491,139.477 319.064,137.714 320.564,136.624 322.418,136.624 323.918,137.714 324.491,139.477" fill="none" stroke-linejoin="round" stroke-width="0.5" stroke-linecap="round"/>
   <polyline stroke="#0071bc" points="326.995,139.477 326.422,141.24 324.922,142.33 323.068,142.33 321.568,141.24 320.995,139.477 321.568,137.714 323.068,136.624 324.922,136.624 326.422,137.714 326.995,139.477" fill="none" stroke-linejoin="round" stroke-width="0.5" stroke-linecap="round"/>
   <polyline stroke="#0071bc" points="329.5,139.477 328.927,141.24 327.427,142.33 325.573,142.33 324.073,141.24 323.5,139.477 324.073,137.714 325.573,136.624 327.427,136.624 328.927,137.714 329.5,139.477" fill="none" stroke-linejoin="round" stroke-width="0.5" stroke-linecap="round"/>
   <polyline stroke="#0071bc" points="332.004,139.477 331.431,141.24 329.931,142.33 328.077,142.33 326.577,141.24 326.004,139.477 326.577,137.714 328.077,136.624 329.931,136.624 331.431,137.714 332.004,139.477" fill="none" stroke-linejoin="round" stroke-width="0.5" stroke-linecap="round"/>
   <polyline stroke="#0071bc" points="334.508,139.477 333.935,141.24 332.435,142.33 330.581,142.33 329.081,141.24 328.508,139.477 329.081,137.714 330.581,136.624 332.435,136.624 333.935,137.714 334.508,139.477" fill="none" stroke-linejoin="round" stroke-width="0.5" stroke-linecap="round"/>
   <polyline stroke="#0071bc" points="337.013,139.477 336.44,141.24 334.94,142.33 333.086,142.33 331.586,141.24 331.013,139.477 331.586,137.714 333.086,136.624 334.94,136.624 336.44,137.714 337.013,139.477" fill="none" stroke-linejoin="round" stroke-width="0.5" stroke-linecap="round"/>
   <polyline stroke="#0071bc" points="339.517,139.477 338.944,141.24 337.444,142.33 335.59,142.33 334.09,141.24 333.517,139.477 334.09,137.714 335.59,136.624 337.444,136.624 338.944,137.714 339.517,139.477" fill="none" stroke-linejoin="round" stroke-width="0.5" stroke-linecap="round"/>
   <polyline stroke="#0071bc" points="342.021,139.477 341.448,141.24 339.948,142.33 338.094,142.33 336.594,141.24 336.021,139.477 336.594,137.714 338.094,136.624 339.948,136.624 341.448,137.714 342.021,139.477" fill="none" stroke-linejoin="round" stroke-width="0.5" stroke-linecap="round"/>
   <polyline stroke="#0071bc" points="344.526,139.477 343.953,141.24 342.453,142.33 340.598,142.33 339.098,141.24 338.526,139.477 339.098,137.714 340.598,136.624 342.453,136.624 343.953,137.714 344.526,139.477" fill="none" stroke-linejoin="round" stroke-width="0.5" stroke-linecap="round"/>
   <polyline stroke="#0071bc" points="347.03,139.477 346.457,141.24 344.957,142.33 343.103,142.33 341.603,141.24 341.03,139.477 341.603,137.714 343.103,136.624 344.957,136.624 346.457,137.714 347.03,139.477" fill="none" stroke-linejoin="round" stroke-width="0.5" stroke-linecap="round"/>
   <polyline stroke="#0071bc" points="349.534,139.477 348.961,141.24 347.461,142.33 345.607,142.33 344.107,141.24 343.534,139.477 344.107,137.714 345.607,136.624 347.461,136.624 348.961,137.714 349.534,139.477" fill="none" stroke-linejoin="round" stroke-width="0.5" stroke-linecap="round"/>
   <polyline stroke="#0071bc" points="352.038,139.477 351.465,141.24 349.965,142.33 348.111,142.33 346.611,141.24 346.038,139.477 346.611,137.714 348.111,136.624 349.965,136.624 351.465,137.714 352.038,139.477" fill="none" stroke-linejoin="round" stroke-width="0.5" stroke-linecap="round"/>
   <polyline stroke="#0071bc" points="354.543,139.477 353.97,141.24 352.47,142.33 350.616,142.33 349.116,141.24 348.543,139.477 349.116,137.714 350.616,136.624 352.47,136.624 353.97,137.714 354.543,139.477" fill="none" stroke-linejoin="round" stroke-width="0.5" stroke-linecap="round"/>
   <polyline stroke="#0071bc" points="357.047,139.477 356.474,141.24 354.974,142.33 353.12,142.33 351.62,141.24 351.047,139.477 351.62,137.714 353.12,136.624 354.974,136.624 356.474,137.714 357.047,139.477" fill="none" stroke-linejoin="round" stroke-width="0.5" stroke-linecap="round"/>
   <polyline stroke="#0071bc" points="359.551,139.477 358.978,141.24 357.478,142.33 355.624,142.33 354.124,141.24 353.551,139.477 354.124,137.714 355.624,136.624 357.478,136.624 358.978,137.714 359.551,139.477" fill="none" stroke-linejoin="round" stroke-width="0.5" stroke-linecap="round"/>
   <polyline stroke="#0071bc" points="362.056,139.477 361.483,141.24 359.983,142.33 358.129,142.33 356.629,141.24 356.056,139.477 356.629,137.714 358.129,136.624 359.983,136.624 361.483,137.714 362.056,139.477" fill="none" stroke-linejoin="round" stroke-width="0.5" stroke-linecap="round"/>
   <polyline stroke="#0071bc" points="364.56,139.477 363.987,141.24 362.487,142.33 360.633,142.33 359.133,141.24 358.56,139.477 359.133,137.714 360.633,136.624 362.487,136.624 363.987,137.714 364.56,139.477" fill="none" stroke-linejoin="round" stroke-width="0.5" stroke-linecap="round"/>
   <polyline stroke="#0071bc" points="367.064,139.477 366.491,141.24 364.991,142.33 363.137,142.33 361.637,141.24 361.064,139.477 361.637,137.714 363.137,136.624 364.991,136.624 366.491,137.714 367.064,139.477" fill="none" stroke-linejoin="round" stroke-width="0.5" stroke-linecap="round"/>
   <polyline stroke="#0071bc" points="369.569,139.477 368.996,141.24 367.496,142.33 365.641,142.33 364.141,141.24 363.569,139.477 364.141,137.714 365.641,136.624 367.496,136.624 368.996,137.714 369.569,139.477" fill="none" stroke-linejoin="round" stroke-width="0.5" stroke-linecap="round"/>
   <polyline stroke="#0071bc" points="372.073,139.477 371.5,141.24 370,142.33 368.146,142.33 366.646,141.24 366.073,139.477 366.646,137.714 368.146,136.624 370,136.624 371.5,137.714 372.073,139.477" fill="none" stroke-linejoin="round" stroke-width="0.5" stroke-linecap="round"/>
   <polyline stroke="#0071bc" points="374.577,139.477 374.004,141.24 372.504,142.33 370.65,142.33 369.15,141.24 368.577,139.477 369.15,137.714 370.65,136.624 372.504,136.624 374.004,137.714 374.577,139.477" fill="none" stroke-linejoin="round" stroke-width="0.5" stroke-linecap="round"/>
   <polyline stroke="#0071bc" points="377.081,139.477 376.508,141.24 375.008,142.33 373.154,142.33 371.654,141.24 371.081,139.477 371.654,137.714 373.154,136.624 375.008,136.624 376.508,137.714 377.081,139.477" fill="none" stroke-linejoin="round" stroke-width="0.5" stroke-linecap="round"/>
   <polyline stroke="#0071bc" points="379.586,139.477 379.013,141.24 377.513,142.33 375.659,142.33 374.159,141.24 373.586,139.477 374.159,137.714 375.659,136.624 377.513,136.624 379.013,137.714 379.586,139.477" fill="none" stroke-linejoin="round" stroke-width="0.5" stroke-linecap="round"/>
   <polyline stroke="#0071bc" points="382.09,139.477 381.517,141.24 380.017,142.33 378.163,142.33 376.663,141.24 376.09,139.477 376.663,137.714 378.163,136.624 380.017,136.624 381.517,137.714 382.09,139.477" fill="none" stroke-linejoin="round" stroke-width="0.5" stroke-linecap="round"/>
   <polyline stroke="#0071bc" points="384.594,139.477 384.021,141.24 382.521,142.33 380.667,142.33 379.167,141.24 378.594,139.477 379.167,137.714 380.667,136.624 382.521,136.624 384.021,137.714 384.594,139.477" fill="none" stroke-linejoin="round" stroke-width="0.5" stroke-linecap="round"/>
   <polyline stroke="#0071bc" points="387.099,139.477 386.526,141.24 385.026,142.33 383.172,142.33 381.672,141.24 381.099,139.477 381.672,137.714 383.172,136.624 385.026,136.624 386.526,137.714 387.099,139.477" fill="none" stroke-linejoin="round" stroke-width="0.5" stroke-linecap="round"/>
   <polyline stroke="#0071bc" points="389.603,139.477 389.03,141.24 387.53,142.33 385.676,142.33 384.176,141.24 383.603,139.477 384.176,137.714 385.676,136.624 387.53,136.624 389.03,137.714 389.603,139.477" fill="none" stroke-linejoin="round" stroke-width="0.5" stroke-linecap="round"/>
   <polyline stroke="#0071bc" points="392.107,139.477 391.534,141.24 390.034,142.33 388.18,142.33 386.68,141.24 386.107,139.477 386.68,137.714 388.18,136.624 390.034,136.624 391.534,137.714 392.107,139.477" fill="none" stroke-linejoin="round" stroke-width="0.5" stroke-linecap="round"/>
   <polyline stroke="#0071bc" points="394.611,139.477 394.039,141.24 392.539,142.33 390.684,142.33 389.184,141.24 388.611,139.477 389.184,137.714 390.684,136.624 392.539,136.624 394.039,137.714 394.611,139.477" fill="none" stroke-linejoin="round" stroke-width="0.5" stroke-linecap="round"/>
   <polyline stroke="#0071bc" points="397.116,139.477 396.543,141.24 395.043,142.33 393.189,142.33 391.689,141.24 391.116,139.477 391.689,137.714 393.189,136.624 395.043,136.624 396.543,137.714 397.116,139.477" fill="none" stroke-linejoin="round" stroke-width="0.5" stroke-linecap="round"/>
   <polyline stroke="#0071bc" points="399.62,139.477 399.047,141.24 397.547,142.33 395.693,142.33 394.193,141.24 393.62,139.477 394.193,137.714 395.693,136.624 397.547,136.624 399.047,137.714 399.62,139.477" fill="none" stroke-linejoin="round" stroke-width="0.5" stroke-linecap="round"/>
   <polyline stroke="#0071bc" points="402.124,139.477 401.551,141.24 400.051,142.33 398.197,142.33 396.697,141.24 396.124,139.477 396.697,137.714 398.197,136.624 400.051,136.624 401.551,137.714 402.124,139.477" fill="none" stroke-linejoin="round" stroke-width="0.5" stroke-linecap="round"/>
   <polyline stroke="#0071bc" points="404.629,139.477 404.056,141.24 402.556,142.33 400.702,142.33 399.202,141.24 398.629,139.477 399.202,137.714 400.702,136.624 402.556,136.624 404.056,137.714 404.629,139.477" fill="none" stroke-linejoin="round" stroke-width="0.5" stroke-linecap="round"/>
   <polyline stroke="#0071bc" points="407.133,139.477 406.56,141.24 405.06,142.33 403.206,142.33 401.706,141.24 401.133,139.477 401.706,137.714 403.206,136.624 405.06,136.624 406.56,137.714 407.133,139.477" fill="none" stroke-linejoin="round" stroke-width="0.5" stroke-linecap="round"/>
   <polyline stroke="#0071bc" points="409.637,139.477 409.064,141.24 407.564,142.33 405.71,142.33 404.21,141.24 403.637,139.477 404.21,137.714 405.71,136.624 407.564,136.624 409.064,137.714 409.637,139.477" fill="none" stroke-linejoin="round" stroke-width="0.5" stroke-linecap="round"/>
   <polyline stroke="#0071bc" points="412.142,139.477 411.569,141.24 410.069,142.33 408.215,142.33 406.715,141.24 406.142,139.477 406.715,137.714 408.215,136.624 410.069,136.624 411.569,137.714 412.142,139.477" fill="none" stroke-linejoin="round" stroke-width="0.5" stroke-linecap="round"/>
   <polyline stroke="#0071bc" points="414.646,139.477 414.073,141.24 412.573,142.33 410.719,142.33 409.219,141.24 408.646,139.477 409.219,137.714 410.719,136.624 412.573,136.624 414.073,137.714 414.646,139.477" fill="none" stroke-linejoin="round" stroke-width="0.5" stroke-linecap="round"/>
   <polyline stroke="#0071bc" points="417.15,139.477 416.577,141.24 415.077,142.33 413.223,142.33 411.723,141.24 411.15,139.477 411.723,137.714 413.223,136.624 415.077,136.624 416.577,137.714 417.15,139.477" fill="none" stroke-linejoin="round" stroke-width="0.5" stroke-linecap="round"/>
   <polyline stroke="#0071bc" points="419.654,139.477 419.082,141.24 417.582,142.33 415.727,142.33 414.227,141.24 413.654,139.477 414.227,137.714 415.727,136.624 417.582,136.624 419.082,137.714 419.654,139.477" fill="none" stroke-linejoin="round" stroke-width="0.5" stroke-linecap="round"/>
   <polyline stroke="#0071bc" points="422.159,139.477 421.586,141.24 420.086,142.33 418.232,142.33 416.732,141.24 416.159,139.477 416.732,137.714 418.232,136.624 420.086,136.624 421.586,137.714 422.159,139.477" fill="none" stroke-linejoin="round" stroke-width="0.5" stroke-linecap="round"/>
   <polyline stroke="#0071bc" points="424.663,139.477 424.09,141.24 422.59,142.33 420.736,142.33 419.236,141.24 418.663,139.477 419.236,137.714 420.736,136.624 422.59,136.624 424.09,137.714 424.663,139.477" fill="none" stroke-linejoin="round" stroke-width="0.5" stroke-linecap="round"/>
   <polyline stroke="#0071bc" points="427.167,139.477 426.594,141.24 425.094,142.33 423.24,142.33 421.74,141.24 421.167,139.477 421.74,137.714 423.24,136.624 425.094,136.624 426.594,137.714 427.167,139.477" fill="none" stroke-linejoin="round" stroke-width="0.5" stroke-linecap="round"/>
   <polyline stroke="#0071bc" points="429.672,139.477 429.099,141.24 427.599,142.33 425.745,142.33 424.245,141.24 423.672,139.477 424.245,137.714 425.745,136.624 427.599,136.624 429.099,137.714 429.672,139.477" fill="none" stroke-linejoin="round" stroke-width="0.5" stroke-linecap="round"/>
   <polyline stroke="#0071bc" points="432.176,139.477 431.603,141.24 430.103,142.33 428.249,142.33 426.749,141.24 426.176,139.477 426.749,137.714 428.249,136.624 430.103,136.624 431.603,137.714 432.176,139.477" fill="none" stroke-linejoin="round" stroke-width="0.5" stroke-linecap="round"/>
   <polyline stroke="#0071bc" points="434.68,139.477 434.107,141.24 432.607,142.33 430.753,142.33 429.253,141.24 428.68,139.477 429.253,137.714 430.753,136.624 432.607,136.624 434.107,137.714 434.68,139.477" fill="none" stroke-linejoin="round" stroke-width="0.5" stroke-linecap="round"/>
   <polyline stroke="#0071bc" points="437.185,139.477 436.612,141.24 435.112,142.33 433.257,142.33 431.757,141.24 431.185,139.477 431.757,137.714 433.257,136.624 435.112,136.624 436.612,137.714 437.185,139.477" fill="none" stroke-linejoin="round" stroke-width="0.5" stroke-linecap="round"/>
   <polyline stroke="#0071bc" points="439.689,139.477 439.116,141.24 437.616,142.33 435.762,142.33 434.262,141.24 433.689,139.477 434.262,137.714 435.762,136.624 437.616,136.624 439.116,137.714 439.689,139.477" fill="none" stroke-linejoin="round" stroke-width="0.5" stroke-linecap="round"/>
   <polyline stroke="#0071bc" points="442.193,139.477 441.62,141.24 440.12,142.33 438.266,142.33 436.766,141.24 436.193,139.477 436.766,137.714 438.266,136.624 440.12,136.624 441.62,137.714 442.193,139.477" fill="none" stroke-linejoin="round" stroke-width="0.5" stroke-linecap="round"/>
   <polyline stroke="#0071bc" points="444.697,139.477 444.125,141.24 442.625,142.33 440.77,142.33 439.27,141.24 438.697,139.477 439.27,137.714 440.77,136.624 442.625,136.624 444.125,137.714 444.697,139.477" fill="none" stroke-linejoin="round" stroke-width="0.5" stroke-linecap="round"/>
   <polyline stroke="#0071bc" points="447.202,139.477 446.629,141.24 445.129,142.33 443.275,142.33 441.775,141.24 441.202,139.477 441.775,137.714 443.275,136.624 445.129,136.624 446.629,137.714 447.202,139.477" fill="none" stroke-linejoin="round" stroke-width="0.5" stroke-linecap="round"/>
   <polyline stroke="#0071bc" points="449.706,139.477 449.133,141.24 447.633,142.33 445.779,142.33 444.279,141.24 443.706,139.477 444.279,137.714 445.779,136.624 447.633,136.624 449.133,137.714 449.706,139.477" fill="none" stroke-linejoin="round" stroke-width="0.5" stroke-linecap="round"/>
   <polyline stroke="#0071bc" points="452.21,139.477 451.637,141.24 450.137,142.33 448.283,142.33 446.783,141.24 446.21,139.477 446.783,137.714 448.283,136.624 450.137,136.624 451.637,137.714 452.21,139.477" fill="none" stroke-linejoin="round" stroke-width="0.5" stroke-linecap="round"/>
   <polyline stroke="#0071bc" points="454.715,139.477 454.142,141.24 452.642,142.33 450.788,142.33 449.288,141.24 448.715,139.477 449.288,137.714 450.788,136.624 452.642,136.624 454.142,137.714 454.715,139.477" fill="none" stroke-linejoin="round" stroke-width="0.5" stroke-linecap="round"/>
   <polyline stroke="#0071bc" points="457.219,139.477 456.646,141.24 455.146,142.33 453.292,142.33 451.792,141.24 451.219,139.477 451.792,137.714 453.292,136.624 455.146,136.624 456.646,137.714 457.219,139.477" fill="none" stroke-linejoin="round" stroke-width="0.5" stroke-linecap="round"/>
   <polyline stroke="#0071bc" points="459.723,139.477 459.15,141.24 457.65,142.33 455.796,142.33 454.296,141.24 453.723,139.477 454.296,137.714 455.796,136.624 457.65,136.624 459.15,137.714 459.723,139.477" fill="none" stroke-linejoin="round" stroke-width="0.5" stroke-linecap="round"/>
   <polyline stroke="#0071bc" points="462.228,139.477 461.655,141.24 460.155,142.33 458.301,142.33 456.801,141.24 456.228,139.477 456.801,137.714 458.301,136.624 460.155,136.624 461.655,137.714 462.228,139.477" fill="none" stroke-linejoin="round" stroke-width="0.5" stroke-linecap="round"/>
   <polyline stroke="#0071bc" points="464.732,139.477 464.159,141.24 462.659,142.33 460.805,142.33 459.305,141.24 458.732,139.477 459.305,137.714 460.805,136.624 462.659,136.624 464.159,137.714 464.732,139.477" fill="none" stroke-linejoin="round" stroke-width="0.5" stroke-linecap="round"/>
   <polyline stroke="#0071bc" points="467.236,139.477 466.663,141.24 465.163,142.33 463.309,142.33 461.809,141.24 461.236,139.477 461.809,137.714 463.309,136.624 465.163,136.624 466.663,137.714 467.236,139.477" fill="none" stroke-linejoin="round" stroke-width="0.5" stroke-linecap="round"/>
   <polyline stroke="#0071bc" points="469.74,139.477 469.167,141.24 467.667,142.33 465.813,142.33 464.313,141.24 463.74,139.477 464.313,137.714 465.813,136.624 467.667,136.624 469.167,137.714 469.74,139.477" fill="none" stroke-linejoin="round" stroke-width="0.5" stroke-linecap="round"/>
   <polyline stroke="#0071bc" points="472.245,139.477 471.672,141.24 470.172,142.33 468.318,142.33 466.818,141.24 466.245,139.477 466.818,137.714 468.318,136.624 470.172,136.624 471.672,137.714 472.245,139.477" fill="none" stroke-linejoin="round" stroke-width="0.5" stroke-linecap="round"/>
   <polyline stroke="#0071bc" points="474.749,139.477 474.176,141.24 472.676,142.33 470.822,142.33 469.322,141.24 468.749,139.477 469.322,137.714 470.822,136.624 472.676,136.624 474.176,137.714 474.749,139.477" fill="none" stroke-linejoin="round" stroke-width="0.5" stroke-linecap="round"/>
   <polyline stroke="#0071bc" points="477.253,139.477 476.68,141.24 475.18,142.33 473.326,142.33 471.826,141.24 471.253,139.477 471.826,137.714 473.326,136.624 475.18,136.624 476.68,137.714 477.253,139.477" fill="none" stroke-linejoin="round" stroke-width="0.5" stroke-linecap="round"/>
   <polyline stroke="#0071bc" points="479.758,139.477 479.185,141.24 477.685,142.33 475.831,142.33 474.331,141.24 473.758,139.477 474.331,137.714 475.831,136.624 477.685,136.624 479.185,137.714 479.758,139.477" fill="none" stroke-linejoin="round" stroke-width="0.5" stroke-linecap="round"/>
   <polyline stroke="#0071bc" points="482.262,139.477 481.689,141.24 480.189,142.33 478.335,142.33 476.835,141.24 476.262,139.477 476.835,137.714 478.335,136.624 480.189,136.624 481.689,137.714 482.262,139.477" fill="none" stroke-linejoin="round" stroke-width="0.5" stroke-linecap="round"/>
   <polyline stroke="#0071bc" points="484.766,139.477 484.193,141.24 482.693,142.33 480.839,142.33 479.339,141.24 478.766,139.477 479.339,137.714 480.839,136.624 482.693,136.624 484.193,137.714 484.766,139.477" fill="none" stroke-linejoin="round" stroke-width="0.5" stroke-linecap="round"/>
   <polyline stroke="#0071bc" points="487.271,139.477 486.698,141.24 485.198,142.33 483.343,142.33 481.843,141.24 481.271,139.477 481.843,137.714 483.343,136.624 485.198,136.624 486.698,137.714 487.271,139.477" fill="none" stroke-linejoin="round" stroke-width="0.5" stroke-linecap="round"/>
   <polyline stroke="#0071bc" points="489.775,139.477 489.202,141.24 487.702,142.33 485.848,142.33 484.348,141.24 483.775,139.477 484.348,137.714 485.848,136.624 487.702,136.624 489.202,137.714 489.775,139.477" fill="none" stroke-linejoin="round" stroke-width="0.5" stroke-linecap="round"/>
   <polyline stroke="#0071bc" points="492.279,139.477 491.706,141.24 490.206,142.33 488.352,142.33 486.852,141.24 486.279,139.477 486.852,137.714 488.352,136.624 490.206,136.624 491.706,137.714 492.279,139.477" fill="none" stroke-linejoin="round" stroke-width="0.5" stroke-linecap="round"/>
   <polyline stroke="#0071bc" points="494.783,139.477 494.21,141.24 492.71,142.33 490.856,142.33 489.356,141.24 488.783,139.477 489.356,137.714 490.856,136.624 492.71,136.624 494.21,137.714 494.783,139.477" fill="none" stroke-linejoin="round" stroke-width="0.5" stroke-linecap="round"/>
   <polyline stroke="#0071bc" points="497.288,139.477 496.715,141.24 495.215,142.33 493.361,142.33 491.861,141.24 491.288,139.477 491.861,137.714 493.361,136.624 495.215,136.624 496.715,137.714 497.288,139.477" fill="none" stroke-linejoin="round" stroke-width="0.5" stroke-linecap="round"/>
   <polyline stroke="#0071bc" points="499.792,139.477 499.219,141.24 497.719,142.33 495.865,142.33 494.365,141.24 493.792,139.477 494.365,137.714 495.865,136.624 497.719,136.624 499.219,137.714 499.792,139.477" fill="none" stroke-linejoin="round" stroke-width="0.5" stroke-linecap="round"/>
   <polyline stroke="#0071bc" points="502.296,139.477 501.723,141.24 500.223,142.33 498.369,142.33 496.869,141.24 496.296,139.477 496.869,137.714 498.369,136.624 500.223,136.624 501.723,137.714 502.296,139.477" fill="none" stroke-linejoin="round" stroke-width="0.5" stroke-linecap="round"/>
   <polyline stroke="#0071bc" points="504.801,139.477 504.228,141.24 502.728,142.33 500.874,142.33 499.374,141.24 498.801,139.477 499.374,137.714 500.874,136.624 502.728,136.624 504.228,137.714 504.801,139.477" fill="none" stroke-linejoin="round" stroke-width="0.5" stroke-linecap="round"/>
   <polyline stroke="#0071bc" points="507.305,139.477 506.732,141.24 505.232,142.33 503.378,142.33 501.878,141.24 501.305,139.477 501.878,137.714 503.378,136.624 505.232,136.624 506.732,137.714 507.305,139.477" fill="none" stroke-linejoin="round" stroke-width="0.5" stroke-linecap="round"/>
   <polyline stroke="#0071bc" points="509.809,139.477 509.236,141.24 507.736,142.33 505.882,142.33 504.382,141.24 503.809,139.477 504.382,137.714 505.882,136.624 507.736,136.624 509.236,137.714 509.809,139.477" fill="none" stroke-linejoin="round" stroke-width="0.5" stroke-linecap="round"/>
   <polyline stroke="#0071bc" points="512.314,139.477 511.741,141.24 510.241,142.33 508.386,142.33 506.886,141.24 506.314,139.477 506.886,137.714 508.386,136.624 510.241,136.624 511.741,137.714 512.314,139.477" fill="none" stroke-linejoin="round" stroke-width="0.5" stroke-linecap="round"/>
   <polyline stroke="#0071bc" points="514.818,139.477 514.245,141.24 512.745,142.33 510.891,142.33 509.391,141.24 508.818,139.477 509.391,137.714 510.891,136.624 512.745,136.624 514.245,137.714 514.818,139.477" fill="none" stroke-linejoin="round" stroke-width="0.5" stroke-linecap="round"/>
   <polyline stroke="#0071bc" points="517.322,139.477 516.749,141.24 515.249,142.33 513.395,142.33 511.895,141.24 511.322,139.477 511.895,137.714 513.395,136.624 515.249,136.624 516.749,137.714 517.322,139.477" fill="none" stroke-linejoin="round" stroke-width="0.5" stroke-linecap="round"/>
   <polyline stroke="#0071bc" points="519.826,139.477 519.253,141.24 517.753,142.33 515.899,142.33 514.399,141.24 513.826,139.477 514.399,137.714 515.899,136.624 517.753,136.624 519.253,137.714 519.826,139.477" fill="none" stroke-linejoin="round" stroke-width="0.5" stroke-linecap="round"/>
   <polyline stroke="#0071bc" points="522.331,139.477 521.758,141.24 520.258,142.33 518.404,142.33 516.904,141.24 516.331,139.477 516.904,137.714 518.404,136.624 520.258,136.624 521.758,137.714 522.331,139.477" fill="none" stroke-linejoin="round" stroke-width="0.5" stroke-linecap="round"/>
   <polyline stroke="#0071bc" points="524.835,139.477 524.262,141.24 522.762,142.33 520.908,142.33 519.408,141.24 518.835,139.477 519.408,137.714 520.908,136.624 522.762,136.624 524.262,137.714 524.835,139.477" fill="none" stroke-linejoin="round" stroke-width="0.5" stroke-linecap="round"/>
   <polyline stroke="#0071bc" points="527.339,139.477 526.766,141.24 525.266,142.33 523.412,142.33 521.912,141.24 521.339,139.477 521.912,137.714 523.412,136.624 525.266,136.624 526.766,137.714 527.339,139.477" fill="none" stroke-linejoin="round" stroke-width="0.5" stroke-linecap="round"/>
   <polyline stroke="#0071bc" points="529.844,139.477 529.271,141.24 527.771,142.33 525.917,142.33 524.417,141.24 523.844,139.477 524.417,137.714 525.917,136.624 527.771,136.624 529.271,137.714 529.844,139.477" fill="none" stroke-linejoin="round" stroke-width="0.5" stroke-linecap="round"/>
   <polyline stroke="#0071bc" points="532.348,139.477 531.775,141.24 530.275,142.33 528.421,142.33 526.921,141.24 526.348,139.477 526.921,137.714 528.421,136.624 530.275,136.624 531.775,137.714 532.348,139.477" fill="none" stroke-linejoin="round" stroke-width="0.5" stroke-linecap="round"/>
   <polyline stroke="#0071bc" points="534.852,139.477 534.279,141.24 532.779,142.33 530.925,142.33 529.425,141.24 528.852,139.477 529.425,137.714 530.925,136.624 532.779,136.624 534.279,137.714 534.852,139.477" fill="none" stroke-linejoin="round" stroke-width="0.5" stroke-linecap="round"/>
   <polyline stroke="#0071bc" points="537.356,139.477 536.784,141.24 535.284,142.33 533.429,142.33 531.929,141.24 531.356,139.477 531.929,137.714 533.429,136.624 535.284,136.624 536.784,137.714 537.356,139.477" fill="none" stroke-linejoin="round" stroke-width="0.5" stroke-linecap="round"/>
   <polyline stroke="#0071bc" points="539.861,139.477 539.288,141.24 537.788,142.33 535.934,142.33 534.434,141.24 533.861,139.477 534.434,137.714 535.934,136.624 537.788,136.624 539.288,137.714 539.861,139.477" fill="none" stroke-linejoin="round" stroke-width="0.5" stroke-linecap="round"/>
   <polyline stroke="#0071bc" points="542.365,139.477 541.792,141.24 540.292,142.33 538.438,142.33 536.938,141.24 536.365,139.477 536.938,137.714 538.438,136.624 540.292,136.624 541.792,137.714 542.365,139.477" fill="none" stroke-linejoin="round" stroke-width="0.5" stroke-linecap="round"/>
   <polyline stroke="#0071bc" points="544.869,139.477 544.296,141.24 542.796,142.33 540.942,142.33 539.442,141.24 538.869,139.477 539.442,137.714 540.942,136.624 542.796,136.624 544.296,137.714 544.869,139.477" fill="none" stroke-linejoin="round" stroke-width="0.5" stroke-linecap="round"/>
   <polyline stroke="#0071bc" points="547.374,139.477 546.801,141.24 545.301,142.33 543.447,142.33 541.947,141.24 541.374,139.477 541.947,137.714 543.447,136.624 545.301,136.624 546.801,137.714 547.374,139.477" fill="none" stroke-linejoin="round" stroke-width="0.5" stroke-linecap="round"/>
   <polyline stroke="#0071bc" points="549.878,139.477 549.305,141.24 547.805,142.33 545.951,142.33 544.451,141.24 543.878,139.477 544.451,137.714 545.951,136.624 547.805,136.624 549.305,137.714 549.878,139.477" fill="none" stroke-linejoin="round" stroke-width="0.5" stroke-linecap="round"/>
   <polyline stroke="#0071bc" points="552.382,139.477 551.809,141.24 550.309,142.33 548.455,142.33 546.955,141.24 546.382,139.477 546.955,137.714 548.455,136.624 550.309,136.624 551.809,137.714 552.382,139.477" fill="none" stroke-linejoin="round" stroke-width="0.5" stroke-linecap="round"/>
   <polyline stroke="#0071bc" points="554.887,139.477 554.314,141.24 552.814,142.33 550.96,142.33 549.46,141.24 548.887,139.477 549.46,137.714 550.96,136.624 552.814,136.624 554.314,137.714 554.887,139.477" fill="none" stroke-linejoin="round" stroke-width="0.5" stroke-linecap="round"/>
   <polyline stroke="#0071bc" points="557.391,139.477 556.818,141.24 555.318,142.33 553.464,142.33 551.964,141.24 551.391,139.477 551.964,137.714 553.464,136.624 555.318,136.624 556.818,137.714 557.391,139.477" fill="none" stroke-linejoin="round" stroke-width="0.5" stroke-linecap="round"/>
   <polyline stroke="#0071bc" points="559.895,139.477 559.322,141.24 557.822,142.33 555.968,142.33 554.468,141.24 553.895,139.477 554.468,137.714 555.968,136.624 557.822,136.624 559.322,137.714 559.895,139.477" fill="none" stroke-linejoin="round" stroke-width="0.5" stroke-linecap="round"/>
   <polyline stroke="#0071bc" points="562.399,139.477 561.827,141.24 560.327,142.33 558.472,142.33 556.972,141.24 556.399,139.477 556.972,137.714 558.472,136.624 560.327,136.624 561.827,137.714 562.399,139.477" fill="none" stroke-linejoin="round" stroke-width="0.5" stroke-linecap="round"/>
   <polyline stroke="#0071bc" points="564.904,139.477 564.331,141.24 562.831,142.33 560.977,142.33 559.477,141.24 558.904,139.477 559.477,137.714 560.977,136.624 562.831,136.624 564.331,137.714 564.904,139.477" fill="none" stroke-linejoin="round" stroke-width="0.5" stroke-linecap="round"/>
   <polyline stroke="#0071bc" points="567.408,112.919 566.835,114.683 565.335,115.772 563.481,115.772 561.981,114.683 561.408,112.919 561.981,111.156 563.481,110.066 565.335,110.066 566.835,111.156 567.408,112.919" fill="none" stroke-linejoin="round" stroke-width="0.5" stroke-linecap="round"/>
   <polyline stroke="#0071bc" points="569.912,139.477 569.339,141.24 567.839,142.33 565.985,142.33 564.485,141.24 563.912,139.477 564.485,137.714 565.985,136.624 567.839,136.624 569.339,137.714 569.912,139.477" fill="none" stroke-linejoin="round" stroke-width="0.5" stroke-linecap="round"/>
   <polyline stroke="#0071bc" points="572.417,33.2462 571.844,35.0095 570.344,36.0993 568.49,36.0993 566.99,35.0095 566.417,33.2462 566.99,31.4828 568.49,30.393 570.344,30.393 571.844,31.4828 572.417,33.2462" fill="none" stroke-linejoin="round" stroke-width="0.5" stroke-linecap="round"/>
   <polyline stroke="#0071bc" points="574.921,139.477 574.348,141.24 572.848,142.33 570.994,142.33 569.494,141.24 568.921,139.477 569.494,137.714 570.994,136.624 572.848,136.624 574.348,137.714 574.921,139.477" fill="none" stroke-linejoin="round" stroke-width="0.5" stroke-linecap="round"/>
   <polyline stroke="#0071bc" points="577.425,112.919 576.852,114.683 575.352,115.772 573.498,115.772 571.998,114.683 571.425,112.919 571.998,111.156 573.498,110.066 575.352,110.066 576.852,111.156 577.425,112.919" fill="none" stroke-linejoin="round" stroke-width="0.5" stroke-linecap="round"/>
   <polyline stroke="#0071bc" points="579.93,139.477 579.357,141.24 577.857,142.33 576.003,142.33 574.503,141.24 573.93,139.477 574.503,137.714 576.003,136.624 577.857,136.624 579.357,137.714 579.93,139.477" fill="none" stroke-linejoin="round" stroke-width="0.5" stroke-linecap="round"/>
   <polyline stroke="#0071bc" points="582.434,139.477 581.861,141.24 580.361,142.33 578.507,142.33 577.007,141.24 576.434,139.477 577.007,137.714 578.507,136.624 580.361,136.624 581.861,137.714 582.434,139.477" fill="none" stroke-linejoin="round" stroke-width="0.5" stroke-linecap="round"/>
   <polyline stroke="#0071bc" points="584.938,139.477 584.365,141.24 582.865,142.33 581.011,142.33 579.511,141.24 578.938,139.477 579.511,137.714 581.011,136.624 582.865,136.624 584.365,137.714 584.938,139.477" fill="none" stroke-linejoin="round" stroke-width="0.5" stroke-linecap="round"/>
   <polyline stroke="#0071bc" points="587.442,139.477 586.87,141.24 585.37,142.33 583.515,142.33 582.015,141.24 581.442,139.477 582.015,137.714 583.515,136.624 585.37,136.624 586.87,137.714 587.442,139.477" fill="none" stroke-linejoin="round" stroke-width="0.5" stroke-linecap="round"/>
   <polyline stroke="#0071bc" points="589.947,139.477 589.374,141.24 587.874,142.33 586.02,142.33 584.52,141.24 583.947,139.477 584.52,137.714 586.02,136.624 587.874,136.624 589.374,137.714 589.947,139.477" fill="none" stroke-linejoin="round" stroke-width="0.5" stroke-linecap="round"/>
   <polyline stroke="#0071bc" points="592.451,139.477 591.878,141.24 590.378,142.33 588.524,142.33 587.024,141.24 586.451,139.477 587.024,137.714 588.524,136.624 590.378,136.624 591.878,137.714 592.451,139.477" fill="none" stroke-linejoin="round" stroke-width="0.5" stroke-linecap="round"/>
   <polyline stroke="#0071bc" points="594.955,139.477 594.382,141.24 592.882,142.33 591.028,142.33 589.528,141.24 588.955,139.477 589.528,137.714 591.028,136.624 592.882,136.624 594.382,137.714 594.955,139.477" fill="none" stroke-linejoin="round" stroke-width="0.5" stroke-linecap="round"/>
  </g>
 </g>
</svg>
