<?xml version='1.0' encoding='UTF-8' standalone='no'?>
<svg xmlns:xlink="http://www.w3.org/1999/xlink" width="720pt" xmlns="http://www.w3.org/2000/svg" viewBox="0 0 720 160" height="160pt">
 <title>gl2ps_renderer figure</title>
 <desc>
Creator: GL2PS 1.4.0, (C) 1999-2017 C. Geuzaine
For: Octave
CreationDate: Sat Nov 28 21:22:05 2020
</desc>
 <defs/>
 <polygon fill="#ffffff" points="0,0 720,0 720,160 0,160"/>
 <g>
  <polygon shape-rendering="crispEdges" fill="#ffffff" points="0,160 720,160 720,0 0,0"/>
  <clipPath id="cp00720160">
   <polygon points="0,160 720,160 720,0 0,0"/>
  </clipPath>
  <g clip-path="url(#cp00720160)">
   <polyline stroke-width="0.5" stroke="#0071bc" stroke-linejoin="round" stroke-linecap="butt" fill="none" points="93.6,12 94.3972,12.0032 95.1943,12.0128 95.9915,12.0287 96.7886,12.051 97.5857,12.0797 98.3829,12.1147 99.18,12.1561 99.9771,12.2039 100.774,12.258 101.571,12.3184 102.369,12.3852 103.166,12.4584 103.963,12.5378 104.76,12.6236 105.557,12.7157 106.354,12.8141 107.151,12.9188 107.949,13.0298 108.746,13.147 109.543,13.2705 110.34,13.4003 111.137,13.5363 111.934,13.6785 112.731,13.8269 113.529,13.9815 114.326,14.1423 115.123,14.3092 115.92,14.4823 116.717,14.6615 117.514,14.8468 118.311,15.0382 119.109,15.2357 119.906,15.4392 120.703,15.6487 121.5,15.8643 122.297,16.0858 123.094,16.3134 123.891,16.5468 124.689,16.7862 125.486,17.0314 126.283,17.2826 127.08,17.5396 127.877,17.8024 128.674,18.071 129.471,18.3454 130.269,18.6255 131.066,18.9113 131.863,19.2028 132.66,19.4999 133.457,19.8027 134.254,20.1111 135.051,20.425 135.849,20.7445 136.646,21.0694 137.443,21.3999 138.24,21.7357 139.037,22.077 139.834,22.4236 140.631,22.7756 141.429,23.1328 142.226,23.4954 143.023,23.8631 143.82,24.236 144.617,24.6141 145.414,24.9973 146.211,25.3856 147.009,25.7789 147.806,26.1772 148.603,26.5804 149.4,26.9886 150.197,27.4016 150.994,27.8195 151.791,28.2422 152.589,28.6696 153.386,29.1017 154.183,29.5385 154.98,29.9799 155.777,30.4259 156.574,30.8764 157.371,31.3315 158.169,31.7909 158.966,32.2547 159.763,32.7229 160.56,33.1954 161.357,33.6721 162.154,34.1531 162.951,34.6382 163.749,35.1274 164.546,35.6207 165.343,36.118 166.14,36.6193 166.937,37.1244 167.734,37.6334 168.531,38.1463 169.329,38.6629 170.126,39.1832 170.923,39.7071 171.72,40.2347 172.517,40.7658 173.314,41.3004 174.111,41.8385 174.909,42.3799 175.706,42.9247 176.503,43.4728 177.3,44.024 178.097,44.5785 178.894,45.1361 179.691,45.6967 180.489,46.2604 181.286,46.8269 182.083,47.3964 182.88,47.9687 183.677,48.5438 184.474,49.1216 185.271,49.7021 186.069,50.2852 186.866,50.8708 187.663,51.4589 188.46,52.0494 189.257,52.6423 190.054,53.2375 190.851,53.835 191.649,54.4347 192.446,55.0364 193.243,55.6403 194.04,56.2462 194.837,56.854 195.634,57.4637 196.431,58.0752 197.229,58.6885 198.026,59.3035 198.823,59.9201 199.62,60.5384 200.417,61.1581 201.214,61.7793 202.011,62.4019 202.809,63.0258 203.606,63.651 204.403,64.2775 205.2,64.905 205.997,65.5337 206.794,66.1633 207.591,66.7939 208.389,67.4255 209.186,68.0578 209.983,68.6909 210.78,69.3247 211.577,69.9592 212.374,70.5942 213.171,71.2298 213.969,71.8658 214.766,72.5022 215.563,73.1389 216.36,73.7759 217.157,74.413 217.954,75.0503 218.751,75.6877 219.549,76.3251 220.346,76.9624 221.143,77.5996 221.94,78.2366 222.737,78.8734 223.534,79.5098 224.331,80.1459 225.129,80.7815 225.926,81.4166 226.723,82.0512 227.52,82.6851 228.317,83.3183 229.114,83.9508 229.911,84.5825 230.709,85.2132 231.506,85.843 232.303,86.4719 233.1,87.0996 233.897,87.7262 234.694,88.3516 235.491,88.9757 236.289,89.5985 237.086,90.22 237.883,90.84 238.68,91.4584 239.477,92.0753 240.274,92.6906 241.071,93.3042 241.869,93.916 242.666,94.526 243.463,95.1341 244.26,95.7403 245.057,96.3444 245.854,96.9466 246.651,97.5466 247.449,98.1444 248.246,98.7399 249.043,99.3332 249.84,99.9241 250.637,100.513 251.434,101.099 252.231,101.682 253.029,102.263 253.826,102.841 254.623,103.417 255.42,103.99 256.217,104.559 257.014,105.127 257.811,105.691 258.609,106.252 259.406,106.81 260.203,107.365 261,107.917 261.797,108.465 262.594,109.01 263.391,109.552 264.189,110.091 264.986,110.626 265.783,111.158 266.58,111.686 267.377,112.211 268.174,112.731 268.971,113.249 269.769,113.762 270.566,114.272 271.363,114.777 272.16,115.279 272.957,115.777 273.754,116.271 274.551,116.761 275.349,117.247 276.146,117.728 276.943,118.206 277.74,118.679 278.537,119.148 279.334,119.612 280.131,120.073 280.929,120.528 281.726,120.98 282.523,121.426 283.32,121.868 284.117,122.306 284.914,122.739 285.711,123.167 286.509,123.59 287.306,124.009 288.103,124.423 288.9,124.832 289.697,125.236 290.494,125.635 291.291,126.029 292.089,126.418 292.886,126.802 293.683,127.181 294.48,127.555 295.277,127.923 296.074,128.287 296.871,128.645 297.669,128.998 298.466,129.345 299.263,129.687 300.06,130.024 300.857,130.355 301.654,130.681 302.451,131.001 303.249,131.316 304.046,131.625 304.843,131.929 305.64,132.227 306.437,132.52 307.234,132.806 308.031,133.087 308.829,133.363 309.626,133.632 310.423,133.896 311.22,134.154 312.017,134.406 312.814,134.652 313.611,134.892 314.409,135.127 315.206,135.355 316.003,135.578 316.8,135.794 317.597,136.005 318.394,136.209 319.191,136.408 319.989,136.6 320.786,136.786 321.583,136.967 322.38,137.141 323.177,137.309 323.974,137.47 324.771,137.626 325.569,137.775 326.366,137.918 327.163,138.055 327.96,138.186 328.757,138.311 329.554,138.429 330.351,138.541 331.149,138.647 331.946,138.746 332.743,138.839 333.54,138.926 334.337,139.006 335.134,139.08 335.931,139.148 336.729,139.21 337.526,139.265 338.323,139.314 339.12,139.356 339.917,139.392 340.714,139.422 341.511,139.445 342.309,139.462 343.106,139.473 343.903,139.477 344.7,139.475 345.497,139.466 346.294,139.451 347.091,139.43 347.889,139.402 348.686,139.368 349.483,139.328 350.28,139.281 351.077,139.228 351.874,139.169 352.671,139.103 353.469,139.031 354.266,138.952 355.063,138.867 355.86,138.776 356.657,138.679 357.454,138.575 358.251,138.465 359.049,138.349 359.846,138.226 360.643,138.098 361.44,137.963 362.237,137.822 363.034,137.674 363.831,137.52 364.629,137.361 365.426,137.195 366.223,137.023 367.02,136.844 367.817,136.66 368.614,136.47 369.411,136.273 370.209,136.071 371.006,135.862 371.803,135.647 372.6,135.427 373.397,135.2 374.194,134.968 374.991,134.729 375.789,134.485 376.586,134.235 377.383,133.979 378.18,133.717 378.977,133.449 379.774,133.176 380.571,132.896 381.369,132.612 382.166,132.321 382.963,132.025 383.76,131.723 384.557,131.415 385.354,131.102 386.151,130.784 386.949,130.46 387.746,130.13 388.543,129.795 389.34,129.455 390.137,129.109 390.934,128.758 391.731,128.401 392.529,128.04 393.326,127.673 394.123,127.301 394.92,126.923 395.717,126.541 396.514,126.154 397.311,125.761 398.109,125.364 398.906,124.961 399.703,124.554 400.5,124.141 401.297,123.724 402.094,123.302 402.891,122.876 403.689,122.444 404.486,122.008 405.283,121.568 406.08,121.122 406.877,120.673 407.674,120.218 408.471,119.76 409.269,119.296 410.066,118.829 410.863,118.357 411.66,117.881 412.457,117.401 413.254,116.916 414.051,116.428 414.849,115.935 415.646,115.438 416.443,114.938 417.24,114.433 418.037,113.925 418.834,113.413 419.632,112.897 420.429,112.377 421.226,111.853 422.023,111.326 422.82,110.796 423.617,110.262 424.414,109.724 425.211,109.183 426.009,108.639 426.806,108.092 427.603,107.541 428.4,106.987 429.197,106.43 429.994,105.87 430.791,105.307 431.589,104.74 432.386,104.171 433.183,103.6 433.98,103.025 434.777,102.448 435.574,101.867 436.371,101.285 437.169,100.7 437.966,100.112 438.763,99.5217 439.56,98.9292 440.357,98.3343 441.154,97.7372 441.951,97.1379 442.749,96.5365 443.546,95.9329 444.343,95.3274 445.14,94.7199 445.937,94.1105 446.734,93.4992 447.531,92.8862 448.329,92.2715 449.126,91.6551 449.923,91.0371 450.72,90.4176 451.517,89.7966 452.314,89.1743 453.111,88.5505 453.909,87.9255 454.706,87.2993 455.503,86.6719 456.3,86.0435 457.097,85.414 457.894,84.7835 458.691,84.1521 459.489,83.5199 460.286,82.8869 461.083,82.2532 461.88,81.6188 462.677,80.9839 463.474,80.3484 464.271,79.7125 465.069,79.0761 465.866,78.4395 466.663,77.8025 467.46,77.1654 468.257,76.5281 469.054,75.8907 469.851,75.2534 470.649,74.616 471.446,73.9788 472.243,73.3418 473.04,72.705 473.837,72.0685 474.634,71.4323 475.431,70.7966 476.229,70.1614 477.026,69.5268 477.823,68.8927 478.62,68.2594 479.417,67.6268 480.214,66.995 481.012,66.3641 481.809,65.7341 482.606,65.1051 483.403,64.4772 484.2,63.8505 484.997,63.2249 485.794,62.6005 486.591,61.9775 487.389,61.3558 488.186,60.7356 488.983,60.1169 489.78,59.4997 490.577,58.8842 491.374,58.2704 492.171,57.6583 492.969,57.048 493.766,56.4396 494.563,55.8331 495.36,55.2286 496.157,54.6261 496.954,54.0258 497.751,53.4276 498.549,52.8317 499.346,52.238 500.143,51.6467 500.94,51.0579 501.737,50.4714 502.534,49.8876 503.331,49.3062 504.129,48.7276 504.926,48.1516 505.723,47.5784 506.52,47.008 507.317,46.4405 508.114,45.8759 508.911,45.3143 509.709,44.7558 510.506,44.2003 511.303,43.648 512.1,43.0989 512.897,42.5531 513.694,42.0106 514.491,41.4714 515.289,40.9357 516.086,40.4035 516.883,39.8748 517.68,39.3497 518.477,38.8282 519.274,38.3104 520.071,37.7964 520.869,37.2861 521.666,36.7797 522.463,36.2772 523.26,35.7787 524.057,35.2841 524.854,34.7936 525.651,34.3072 526.449,33.8249 527.246,33.3468 528.043,32.873 528.84,32.4034 529.637,31.9382 530.434,31.4773 531.231,31.0209 532.029,30.5689 532.826,30.1215 533.623,29.6786 534.42,29.2404 535.217,28.8067 536.014,28.3778 536.811,27.9536 537.609,27.5342 538.406,27.1196 539.203,26.7099 540,26.3051 540.797,25.9052 541.594,25.5103 542.391,25.1204 543.189,24.7356 543.986,24.3559 544.783,23.9813 545.58,23.6119 546.377,23.2477 547.174,22.8888 547.971,22.5352 548.769,22.1868 549.566,21.8438 550.363,21.5063 551.16,21.1741 551.957,20.8474 552.754,20.5262 553.552,20.2105 554.349,19.9003 555.146,19.5958 555.943,19.2968 556.74,19.0035 557.537,18.7159 558.334,18.434 559.132,18.1578 559.929,17.8873 560.726,17.6227 561.523,17.3638 562.32,17.1108 563.117,16.8637 563.914,16.6224 564.711,16.3871 565.509,16.1577 566.306,15.9342 567.103,15.7167 567.9,15.5053 568.697,15.2998 569.494,15.1004 570.292,14.9071 571.089,14.7198 571.886,14.5387 572.683,14.3637 573.48,14.1948 574.277,14.032 575.074,13.8755 575.872,13.7251 576.669,13.5809 577.466,13.4429 578.263,13.3112 579.06,13.1857 579.857,13.0664 580.654,12.9535 581.451,12.8468 582.249,12.7464 583.046,12.6523 583.843,12.5645 584.64,12.483 585.437,12.4078 586.234,12.339 587.031,12.2765 587.829,12.2204 588.626,12.1706 589.423,12.1272 590.22,12.0901 591.017,12.0594 591.814,12.0351 592.612,12.0171 593.409,12.0055 594.206,12.0003"/>
   <polyline stroke-width="0.5" stroke="#d85218" stroke-linejoin="round" stroke-linecap="butt" fill="none" points="93.6,75.7385 94.3972,75.1011 95.1943,74.4638 95.9915,73.8266 96.7886,73.1896 97.5857,72.5529 98.3829,71.9165 99.18,71.2804 99.9771,70.6448 100.774,70.0097 101.571,69.3752 102.369,68.7414 103.166,68.1082 103.963,67.4758 104.76,66.8442 105.557,66.2135 106.354,65.5838 107.151,64.955 107.949,64.3274 108.746,63.7009 109.543,63.0756 110.34,62.4516 111.137,61.8288 111.934,61.2075 112.731,60.5877 113.529,59.9693 114.326,59.3525 115.123,58.7374 115.92,58.124 116.717,57.5123 117.514,56.9025 118.311,56.2945 119.109,55.6885 119.906,55.0845 120.703,54.4825 121.5,53.8827 122.297,53.285 123.094,52.6897 123.891,52.0966 124.689,51.5058 125.486,50.9175 126.283,50.3317 127.08,49.7484 127.877,49.1678 128.674,48.5897 129.471,48.0144 130.269,47.4419 131.066,46.8722 131.863,46.3054 132.66,45.7415 133.457,45.1806 134.254,44.6228 135.051,44.0681 135.849,43.5165 136.646,42.9682 137.443,42.4232 138.24,41.8815 139.037,41.3431 139.834,40.8083 140.631,40.2769 141.429,39.749 142.226,39.2248 143.023,38.7042 143.82,38.1873 144.617,37.6741 145.414,37.1648 146.211,36.6593 147.009,36.1578 147.806,35.6602 148.603,35.1666 149.4,34.677 150.197,34.1916 150.994,33.7103 151.791,33.2332 152.589,32.7604 153.386,32.2919 154.183,31.8277 154.98,31.3679 155.777,30.9125 156.574,30.4616 157.371,30.0153 158.169,29.5735 158.966,29.1364 159.763,28.7039 160.56,28.2761 161.357,27.853 162.154,27.4347 162.951,27.0213 163.749,26.6127 164.546,26.2091 165.343,25.8104 166.14,25.4167 166.937,25.028 167.734,24.6444 168.531,24.2659 169.329,23.8926 170.126,23.5244 170.923,23.1615 171.72,22.8038 172.517,22.4515 173.314,22.1044 174.111,21.7627 174.909,21.4264 175.706,21.0956 176.503,20.7701 177.3,20.4502 178.097,20.1359 178.894,19.8271 179.691,19.5238 180.489,19.2262 181.286,18.9343 182.083,18.648 182.88,18.3674 183.677,18.0926 184.474,17.8236 185.271,17.5603 186.069,17.3028 186.866,17.0512 187.663,16.8055 188.46,16.5657 189.257,16.3317 190.054,16.1037 190.851,15.8817 191.649,15.6657 192.446,15.4557 193.243,15.2516 194.04,15.0537 194.837,14.8618 195.634,14.676 196.431,14.4963 197.229,14.3228 198.026,14.1553 198.823,13.994 199.62,13.839 200.417,13.6901 201.214,13.5474 202.011,13.4109 202.809,13.2806 203.606,13.1566 204.403,13.0389 205.2,12.9274 205.997,12.8222 206.794,12.7233 207.591,12.6307 208.389,12.5444 209.186,12.4645 209.983,12.3908 210.78,12.3235 211.577,12.2625 212.374,12.2079 213.171,12.1597 213.969,12.1178 214.766,12.0822 215.563,12.053 216.36,12.0302 217.157,12.0138 217.954,12.0037 218.751,12 219.549,12.0027 220.346,12.0117 221.143,12.0272 221.94,12.049 222.737,12.0771 223.534,12.1117 224.331,12.1526 225.129,12.1998 225.926,12.2534 226.723,12.3134 227.52,12.3797 228.317,12.4523 229.114,12.5313 229.911,12.6166 230.709,12.7082 231.506,12.806 232.303,12.9102 233.1,13.0207 233.897,13.1375 234.694,13.2605 235.491,13.3897 236.289,13.5252 237.086,13.6669 237.883,13.8148 238.68,13.9689 239.477,14.1292 240.274,14.2957 241.071,14.4683 241.869,14.647 242.666,14.8318 243.463,15.0227 244.26,15.2197 245.057,15.4228 245.854,15.6318 246.651,15.8469 247.449,16.068 248.246,16.295 249.043,16.528 249.84,16.7669 250.637,17.0117 251.434,17.2624 252.231,17.5189 253.029,17.7812 253.826,18.0494 254.623,18.3233 255.42,18.6029 256.217,18.8883 257.014,19.1794 257.811,19.4761 258.609,19.7784 259.406,20.0863 260.203,20.3998 261,20.7188 261.797,21.0434 262.594,21.3734 263.391,21.7088 264.189,22.0496 264.986,22.3958 265.783,22.7474 266.58,23.1042 267.377,23.4663 268.174,23.8336 268.971,24.2061 269.769,24.5838 270.566,24.9666 271.363,25.3545 272.16,25.7474 272.957,26.1453 273.754,26.5481 274.551,26.9559 275.349,27.3686 276.146,27.7861 276.943,28.2084 277.74,28.6354 278.537,29.0672 279.334,29.5036 280.131,29.9446 280.929,30.3902 281.726,30.8404 282.523,31.2951 283.32,31.7542 284.117,32.2176 284.914,32.6855 285.711,33.1576 286.509,33.634 287.306,34.1147 288.103,34.5994 288.9,35.0883 289.697,35.5813 290.494,36.0783 291.291,36.5792 292.089,37.084 292.886,37.5928 293.683,38.1053 294.48,38.6216 295.277,39.1416 296.074,39.6653 296.871,40.1926 297.669,40.7234 298.466,41.2577 299.263,41.7955 300.06,42.3367 300.857,42.8812 301.654,43.429 302.451,43.98 303.249,44.5342 304.046,45.0916 304.843,45.652 305.64,46.2154 306.437,46.7817 307.234,47.351 308.031,47.9231 308.829,48.4979 309.626,49.0755 310.423,49.6558 311.22,50.2386 312.017,50.8241 312.814,51.412 313.611,52.0023 314.409,52.595 315.206,53.1901 316.003,53.7874 316.8,54.3868 317.597,54.9884 318.394,55.5921 319.191,56.1978 319.989,56.8055 320.786,57.4151 321.583,58.0264 322.38,58.6396 323.177,59.2545 323.974,59.871 324.771,60.4891 325.569,61.1087 326.366,61.7298 327.163,62.3523 327.96,62.9761 328.757,63.6012 329.554,64.2275 330.351,64.855 331.149,65.4836 331.946,66.1131 332.743,66.7437 333.54,67.3751 334.337,68.0074 335.134,68.6405 335.931,69.2742 336.729,69.9086 337.526,70.5436 338.323,71.1792 339.12,71.8151 339.917,72.4515 340.714,73.0882 341.511,73.7251 342.309,74.3623 343.106,74.9996 343.903,75.6369 344.7,76.2743 345.497,76.9117 346.294,77.5489 347.091,78.1859 347.889,78.8227 348.686,79.4591 349.483,80.0952 350.28,80.7309 351.077,81.3661 351.874,82.0007 352.671,82.6347 353.469,83.2679 354.266,83.9005 355.063,84.5322 355.86,85.163 356.657,85.7929 357.454,86.4218 358.251,87.0496 359.049,87.6763 359.846,88.3018 360.643,88.9261 361.44,89.549 362.237,90.1705 363.034,90.7906 363.831,91.4092 364.629,92.0263 365.426,92.6417 366.223,93.2554 367.02,93.8673 367.817,94.4775 368.614,95.0857 369.411,95.6921 370.209,96.2964 371.006,96.8987 371.803,97.4989 372.6,98.0968 373.397,98.6926 374.194,99.2861 374.991,99.8772 375.789,100.466 376.586,101.052 377.383,101.636 378.18,102.217 378.977,102.795 379.774,103.371 380.571,103.944 381.369,104.514 382.166,105.081 382.963,105.646 383.76,106.207 384.557,106.765 385.354,107.321 386.151,107.873 386.949,108.422 387.746,108.967 388.543,109.509 389.34,110.048 390.137,110.584 390.934,111.116 391.731,111.644 392.529,112.169 393.326,112.69 394.123,113.208 394.92,113.721 395.717,114.231 396.514,114.737 397.311,115.24 398.109,115.738 398.906,116.232 399.703,116.722 400.5,117.208 401.297,117.69 402.094,118.168 402.891,118.642 403.689,119.111 404.486,119.576 405.283,120.036 406.08,120.492 406.877,120.944 407.674,121.391 408.471,121.833 409.269,122.271 410.066,122.704 410.863,123.133 411.66,123.557 412.457,123.976 413.254,124.39 414.051,124.799 414.849,125.204 415.646,125.603 416.443,125.998 417.24,126.387 418.037,126.772 418.834,127.151 419.632,127.525 420.429,127.894 421.226,128.258 422.023,128.616 422.82,128.97 423.617,129.318 424.414,129.66 425.211,129.997 426.009,130.329 426.806,130.655 427.603,130.976 428.4,131.291 429.197,131.601 429.994,131.905 430.791,132.204 431.589,132.497 432.386,132.784 433.183,133.065 433.98,133.341 434.777,133.611 435.574,133.875 436.371,134.133 437.169,134.386 437.966,134.633 438.763,134.873 439.56,135.108 440.357,135.337 441.154,135.56 441.951,135.777 442.749,135.988 443.546,136.193 444.343,136.392 445.14,136.585 445.937,136.772 446.734,136.952 447.531,137.127 448.329,137.295 449.126,137.458 449.923,137.614 450.72,137.764 451.517,137.907 452.314,138.045 453.111,138.176 453.909,138.301 454.706,138.42 455.503,138.532 456.3,138.638 457.097,138.738 457.894,138.832 458.691,138.919 459.489,139 460.286,139.075 461.083,139.143 461.88,139.205 462.677,139.261 463.474,139.31 464.271,139.353 465.069,139.389 465.866,139.42 466.663,139.443 467.46,139.461 468.257,139.472 469.054,139.477 469.851,139.475 470.649,139.467 471.446,139.453 472.243,139.432 473.04,139.405 473.837,139.371 474.634,139.331 475.431,139.285 476.229,139.232 477.026,139.174 477.823,139.108 478.62,139.037 479.417,138.959 480.214,138.874 481.012,138.784 481.809,138.687 482.606,138.584 483.403,138.474 484.2,138.358 484.997,138.236 485.794,138.108 486.591,137.974 487.389,137.833 488.186,137.686 488.983,137.533 489.78,137.374 490.577,137.208 491.374,137.037 492.171,136.859 492.969,136.675 493.766,136.485 494.563,136.289 495.36,136.087 496.157,135.879 496.954,135.665 497.751,135.445 498.549,135.218 499.346,134.986 500.143,134.748 500.94,134.505 501.737,134.255 502.534,133.999 503.331,133.738 504.129,133.471 504.926,133.198 505.723,132.919 506.52,132.634 507.317,132.344 508.114,132.049 508.911,131.747 509.709,131.44 510.506,131.127 511.303,130.809 512.1,130.486 512.897,130.156 513.694,129.822 514.491,129.482 515.289,129.137 516.086,128.786 516.883,128.43 517.68,128.069 518.477,127.702 519.274,127.33 520.071,126.954 520.869,126.572 521.666,126.185 522.463,125.792 523.26,125.395 524.057,124.993 524.854,124.586 525.651,124.174 526.449,123.758 527.246,123.336 528.043,122.91 528.84,122.479 529.637,122.043 530.434,121.603 531.231,121.158 532.029,120.709 532.826,120.255 533.623,119.796 534.42,119.333 535.217,118.866 536.014,118.395 536.811,117.919 537.609,117.439 538.406,116.955 539.203,116.467 540,115.974 540.797,115.478 541.594,114.978 542.391,114.474 543.189,113.965 543.986,113.454 544.783,112.938 545.58,112.418 546.377,111.895 547.174,111.369 547.971,110.838 548.769,110.305 549.566,109.767 550.363,109.227 551.16,108.683 551.957,108.135 552.754,107.585 553.552,107.031 554.349,106.474 555.146,105.914 555.943,105.351 556.74,104.786 557.537,104.217 558.334,103.645 559.132,103.071 559.929,102.494 560.726,101.914 561.523,101.331 562.32,100.746 563.117,100.159 563.914,99.5688 564.711,98.9764 565.509,98.3818 566.306,97.7849 567.103,97.1857 567.9,96.5844 568.697,95.9811 569.494,95.3757 570.292,94.7683 571.089,94.1591 571.886,93.548 572.683,92.9351 573.48,92.3205 574.277,91.7042 575.074,91.0864 575.872,90.467 576.669,89.8461 577.466,89.2239 578.263,88.6003 579.06,87.9753 579.857,87.3492 580.654,86.7219 581.451,86.0935 582.249,85.4641 583.046,84.8337 583.843,84.2024 584.64,83.5703 585.437,82.9373 586.234,82.3037 587.031,81.6694 587.829,81.0345 588.626,80.399 589.423,79.7631 590.22,79.1268 591.017,78.4902 591.814,77.8533 592.612,77.2161 593.409,76.5788 594.206,75.9415"/>
  </g>
 </g>
</svg>
