<?xml version='1.0' encoding='UTF-8' standalone='no'?>
<svg xmlns="http://www.w3.org/2000/svg" viewBox="0 0 720 160" height="160pt" width="720pt" xmlns:xlink="http://www.w3.org/1999/xlink">
 <title>gl2ps_renderer figure</title>
 <desc>
Creator: GL2PS 1.4.0, (C) 1999-2017 C. Geuzaine
For: Octave
CreationDate: Sat Nov 28 21:22:12 2020
</desc>
 <defs/>
 <polygon fill="#ffffff" points="0,0 720,0 720,160 0,160"/>
 <g>
  <polygon fill="#ffffff" points="0,160 720,160 720,0 0,0" shape-rendering="crispEdges"/>
  <clipPath id="cp00720160">
   <polygon points="0,160 720,160 720,0 0,0"/>
  </clipPath>
  <g clip-path="url(#cp00720160)">
   <polyline stroke="#0071bc" stroke-linejoin="round" fill="none" points="96.6,80.8616 96.0271,82.625 94.5271,83.7148 92.6729,83.7148 91.1729,82.625 90.6,80.8616 91.1729,79.0982 92.6729,78.0084 94.5271,78.0084 96.0271,79.0982 96.6,80.8616" stroke-linecap="round" stroke-width="0.5"/>
   <polyline stroke="#0071bc" stroke-linejoin="round" fill="none" points="99.1043,89.6637 98.5314,91.427 97.0314,92.5169 95.1772,92.5169 93.6772,91.427 93.1043,89.6637 93.6772,87.9003 95.1772,86.8105 97.0314,86.8105 98.5314,87.9003 99.1043,89.6637" stroke-linecap="round" stroke-width="0.5"/>
   <polyline stroke="#0071bc" stroke-linejoin="round" fill="none" points="101.609,96.1338 101.036,97.8971 99.5357,98.9869 97.6815,98.9869 96.1815,97.8971 95.6086,96.1338 96.1815,94.3704 97.6815,93.2806 99.5357,93.2806 101.036,94.3704 101.609,96.1338" stroke-linecap="round" stroke-width="0.5"/>
   <polyline stroke="#0071bc" stroke-linejoin="round" fill="none" points="104.113,99.868 103.54,101.631 102.04,102.721 100.186,102.721 98.6858,101.631 98.1129,99.868 98.6858,98.1046 100.186,97.0148 102.04,97.0148 103.54,98.1046 104.113,99.868" stroke-linecap="round" stroke-width="0.5"/>
   <polyline stroke="#0071bc" stroke-linejoin="round" fill="none" points="106.617,100.757 106.044,102.52 104.544,103.61 102.69,103.61 101.19,102.52 100.617,100.757 101.19,98.9932 102.69,97.9034 104.544,97.9034 106.044,98.9932 106.617,100.757" stroke-linecap="round" stroke-width="0.5"/>
   <polyline stroke="#0071bc" stroke-linejoin="round" fill="none" points="109.121,98.9456 108.549,100.709 107.049,101.799 105.194,101.799 103.694,100.709 103.121,98.9456 103.694,97.1822 105.194,96.0924 107.049,96.0924 108.549,97.1822 109.121,98.9456" stroke-linecap="round" stroke-width="0.5"/>
   <polyline stroke="#0071bc" stroke-linejoin="round" fill="none" points="111.626,94.7811 111.053,96.5445 109.553,97.6343 107.699,97.6343 106.199,96.5445 105.626,94.7811 106.199,93.0177 107.699,91.9279 109.553,91.9279 111.053,93.0177 111.626,94.7811" stroke-linecap="round" stroke-width="0.5"/>
   <polyline stroke="#0071bc" stroke-linejoin="round" fill="none" points="114.13,88.7458 113.557,90.5091 112.057,91.599 110.203,91.599 108.703,90.5091 108.13,88.7458 108.703,86.9824 110.203,85.8926 112.057,85.8926 113.557,86.9824 114.13,88.7458" stroke-linecap="round" stroke-width="0.5"/>
   <polyline stroke="#0071bc" stroke-linejoin="round" fill="none" points="116.634,81.3967 116.061,83.16 114.561,84.2498 112.707,84.2498 111.207,83.16 110.634,81.3967 111.207,79.6333 112.707,78.5435 114.561,78.5435 116.061,79.6333 116.634,81.3967" stroke-linecap="round" stroke-width="0.5"/>
   <polyline stroke="#0071bc" stroke-linejoin="round" fill="none" points="119.139,73.3097 118.566,75.0731 117.066,76.1629 115.212,76.1629 113.712,75.0731 113.139,73.3097 113.712,71.5464 115.212,70.4566 117.066,70.4566 118.566,71.5464 119.139,73.3097" stroke-linecap="round" stroke-width="0.5"/>
   <polyline stroke="#0071bc" stroke-linejoin="round" fill="none" points="121.643,65.0353 121.07,66.7986 119.57,67.8884 117.716,67.8884 116.216,66.7986 115.643,65.0353 116.216,63.2719 117.716,62.1821 119.57,62.1821 121.07,63.2719 121.643,65.0353" stroke-linecap="round" stroke-width="0.5"/>
   <polyline stroke="#0071bc" stroke-linejoin="round" fill="none" points="124.147,57.0651 123.574,58.8285 122.074,59.9183 120.22,59.9183 118.72,58.8285 118.147,57.0651 118.72,55.3018 120.22,54.212 122.074,54.212 123.574,55.3018 124.147,57.0651" stroke-linecap="round" stroke-width="0.5"/>
   <polyline stroke="#0071bc" stroke-linejoin="round" fill="none" points="126.652,49.8119 126.079,51.5752 124.579,52.665 122.725,52.665 121.225,51.5752 120.652,49.8119 121.225,48.0485 122.725,46.9587 124.579,46.9587 126.079,48.0485 126.652,49.8119" stroke-linecap="round" stroke-width="0.5"/>
   <polyline stroke="#0071bc" stroke-linejoin="round" fill="none" points="129.156,43.5982 128.583,45.3615 127.083,46.4514 125.229,46.4514 123.729,45.3615 123.156,43.5982 123.729,41.8348 125.229,40.745 127.083,40.745 128.583,41.8348 129.156,43.5982" stroke-linecap="round" stroke-width="0.5"/>
   <polyline stroke="#0071bc" stroke-linejoin="round" fill="none" points="131.66,38.6551 131.087,40.4184 129.587,41.5082 127.733,41.5082 126.233,40.4184 125.66,38.6551 126.233,36.8917 127.733,35.8019 129.587,35.8019 131.087,36.8917 131.66,38.6551" stroke-linecap="round" stroke-width="0.5"/>
   <polyline stroke="#0071bc" stroke-linejoin="round" fill="none" points="134.164,35.1261 133.592,36.8894 132.092,37.9792 130.237,37.9792 128.737,36.8894 128.164,35.1261 128.737,33.3627 130.237,32.2729 132.092,32.2729 133.592,33.3627 134.164,35.1261" stroke-linecap="round" stroke-width="0.5"/>
   <polyline stroke="#0071bc" stroke-linejoin="round" fill="none" points="136.669,33.0757 136.096,34.8391 134.596,35.9289 132.742,35.9289 131.242,34.8391 130.669,33.0757 131.242,31.3124 132.742,30.2226 134.596,30.2226 136.096,31.3124 136.669,33.0757" stroke-linecap="round" stroke-width="0.5"/>
   <polyline stroke="#0071bc" stroke-linejoin="round" fill="none" points="139.173,32.5006 138.6,34.2639 137.1,35.3538 135.246,35.3538 133.746,34.2639 133.173,32.5006 133.746,30.7372 135.246,29.6474 137.1,29.6474 138.6,30.7372 139.173,32.5006" stroke-linecap="round" stroke-width="0.5"/>
   <polyline stroke="#0071bc" stroke-linejoin="round" fill="none" points="141.677,33.3406 141.104,35.1039 139.604,36.1937 137.75,36.1937 136.25,35.1039 135.677,33.3406 136.25,31.5772 137.75,30.4874 139.604,30.4874 141.104,31.5772 141.677,33.3406" stroke-linecap="round" stroke-width="0.5"/>
   <polyline stroke="#0071bc" stroke-linejoin="round" fill="none" points="144.182,35.4907 143.609,37.254 142.109,38.3438 140.255,38.3438 138.755,37.254 138.182,35.4907 138.755,33.7273 140.255,32.6375 142.109,32.6375 143.609,33.7273 144.182,35.4907" stroke-linecap="round" stroke-width="0.5"/>
   <polyline stroke="#0071bc" stroke-linejoin="round" fill="none" points="146.686,38.8111 146.113,40.5744 144.613,41.6642 142.759,41.6642 141.259,40.5744 140.686,38.8111 141.259,37.0477 142.759,35.9579 144.613,35.9579 146.113,37.0477 146.686,38.8111" stroke-linecap="round" stroke-width="0.5"/>
   <polyline stroke="#0071bc" stroke-linejoin="round" fill="none" points="149.19,43.1363 148.617,44.8997 147.117,45.9895 145.263,45.9895 143.763,44.8997 143.19,43.1363 143.763,41.373 145.263,40.2832 147.117,40.2832 148.617,41.373 149.19,43.1363" stroke-linecap="round" stroke-width="0.5"/>
   <polyline stroke="#0071bc" stroke-linejoin="round" fill="none" points="151.695,48.2827 151.122,50.046 149.622,51.1358 147.768,51.1358 146.268,50.046 145.695,48.2827 146.268,46.5193 147.768,45.4295 149.622,45.4295 151.122,46.5193 151.695,48.2827" stroke-linecap="round" stroke-width="0.5"/>
   <polyline stroke="#0071bc" stroke-linejoin="round" fill="none" points="154.199,54.0538 153.626,55.8171 152.126,56.907 150.272,56.907 148.772,55.8171 148.199,54.0538 148.772,52.2904 150.272,51.2006 152.126,51.2006 153.626,52.2904 154.199,54.0538" stroke-linecap="round" stroke-width="0.5"/>
   <polyline stroke="#0071bc" stroke-linejoin="round" fill="none" points="156.703,60.2453 156.13,62.0086 154.63,63.0985 152.776,63.0985 151.276,62.0086 150.703,60.2453 151.276,58.4819 152.776,57.3921 154.63,57.3921 156.13,58.4819 156.703,60.2453" stroke-linecap="round" stroke-width="0.5"/>
   <polyline stroke="#0071bc" stroke-linejoin="round" fill="none" points="159.207,66.6481 158.635,68.4114 157.135,69.5013 155.28,69.5013 153.78,68.4114 153.207,66.6481 153.78,64.8847 155.28,63.7949 157.135,63.7949 158.635,64.8847 159.207,66.6481" stroke-linecap="round" stroke-width="0.5"/>
   <polyline stroke="#0071bc" stroke-linejoin="round" fill="none" points="161.712,73.0509 161.139,74.8142 159.639,75.904 157.785,75.904 156.285,74.8142 155.712,73.0509 156.285,71.2875 157.785,70.1977 159.639,70.1977 161.139,71.2875 161.712,73.0509" stroke-linecap="round" stroke-width="0.5"/>
   <polyline stroke="#0071bc" stroke-linejoin="round" fill="none" points="164.216,79.2424 163.643,81.0057 162.143,82.0956 160.289,82.0956 158.789,81.0057 158.216,79.2424 158.789,77.479 160.289,76.3892 162.143,76.3892 163.643,77.479 164.216,79.2424" stroke-linecap="round" stroke-width="0.5"/>
   <polyline stroke="#0071bc" stroke-linejoin="round" fill="none" points="166.72,85.0135 166.147,86.7768 164.647,87.8667 162.793,87.8667 161.293,86.7768 160.72,85.0135 161.293,83.2501 162.793,82.1603 164.647,82.1603 166.147,83.2501 166.72,85.0135" stroke-linecap="round" stroke-width="0.5"/>
   <polyline stroke="#0071bc" stroke-linejoin="round" fill="none" points="169.225,90.1598 168.652,91.9232 167.152,93.013 165.298,93.013 163.798,91.9232 163.225,90.1598 163.798,88.3965 165.298,87.3067 167.152,87.3067 168.652,88.3965 169.225,90.1598" stroke-linecap="round" stroke-width="0.5"/>
   <polyline stroke="#0071bc" stroke-linejoin="round" fill="none" points="171.729,94.4851 171.156,96.2485 169.656,97.3383 167.802,97.3383 166.302,96.2485 165.729,94.4851 166.302,92.7217 167.802,91.6319 169.656,91.6319 171.156,92.7217 171.729,94.4851" stroke-linecap="round" stroke-width="0.5"/>
   <polyline stroke="#0071bc" stroke-linejoin="round" fill="none" points="174.233,97.8055 173.66,99.5689 172.16,100.659 170.306,100.659 168.806,99.5689 168.233,97.8055 168.806,96.0422 170.306,94.9523 172.16,94.9523 173.66,96.0422 174.233,97.8055" stroke-linecap="round" stroke-width="0.5"/>
   <polyline stroke="#0071bc" stroke-linejoin="round" fill="none" points="176.738,99.9556 176.165,101.719 174.665,102.809 172.81,102.809 171.31,101.719 170.738,99.9556 171.31,98.1922 172.81,97.1024 174.665,97.1024 176.165,98.1922 176.738,99.9556" stroke-linecap="round" stroke-width="0.5"/>
   <polyline stroke="#0071bc" stroke-linejoin="round" fill="none" points="179.242,100.796 178.669,102.559 177.169,103.649 175.315,103.649 173.815,102.559 173.242,100.796 173.815,99.0322 175.315,97.9424 177.169,97.9424 178.669,99.0322 179.242,100.796" stroke-linecap="round" stroke-width="0.5"/>
   <polyline stroke="#0071bc" stroke-linejoin="round" fill="none" points="181.746,100.22 181.173,101.984 179.673,103.074 177.819,103.074 176.319,101.984 175.746,100.22 176.319,98.4571 177.819,97.3672 179.673,97.3672 181.173,98.4571 181.746,100.22" stroke-linecap="round" stroke-width="0.5"/>
   <polyline stroke="#0071bc" stroke-linejoin="round" fill="none" points="184.25,98.1701 183.678,99.9335 182.177,101.023 180.323,101.023 178.823,99.9335 178.25,98.1701 178.823,96.4067 180.323,95.3169 182.177,95.3169 183.678,96.4067 184.25,98.1701" stroke-linecap="round" stroke-width="0.5"/>
   <polyline stroke="#0071bc" stroke-linejoin="round" fill="none" points="186.755,94.6411 186.182,96.4044 184.682,97.4943 182.828,97.4943 181.328,96.4044 180.755,94.6411 181.328,92.8777 182.828,91.7879 184.682,91.7879 186.182,92.8777 186.755,94.6411" stroke-linecap="round" stroke-width="0.5"/>
   <polyline stroke="#0071bc" stroke-linejoin="round" fill="none" points="189.259,89.698 188.686,91.4613 187.186,92.5511 185.332,92.5511 183.832,91.4613 183.259,89.698 183.832,87.9346 185.332,86.8448 187.186,86.8448 188.686,87.9346 189.259,89.698" stroke-linecap="round" stroke-width="0.5"/>
   <polyline stroke="#0071bc" stroke-linejoin="round" fill="none" points="191.763,83.4843 191.19,85.2476 189.69,86.3375 187.836,86.3375 186.336,85.2476 185.763,83.4843 186.336,81.7209 187.836,80.6311 189.69,80.6311 191.19,81.7209 191.763,83.4843" stroke-linecap="round" stroke-width="0.5"/>
   <polyline stroke="#0071bc" stroke-linejoin="round" fill="none" points="194.268,76.231 193.695,77.9944 192.195,79.0842 190.341,79.0842 188.841,77.9944 188.268,76.231 188.841,74.4677 190.341,73.3778 192.195,73.3778 193.695,74.4677 194.268,76.231" stroke-linecap="round" stroke-width="0.5"/>
   <polyline stroke="#0071bc" stroke-linejoin="round" fill="none" points="196.772,68.2609 196.199,70.0242 194.699,71.1141 192.845,71.1141 191.345,70.0242 190.772,68.2609 191.345,66.4975 192.845,65.4077 194.699,65.4077 196.199,66.4975 196.772,68.2609" stroke-linecap="round" stroke-width="0.5"/>
   <polyline stroke="#0071bc" stroke-linejoin="round" fill="none" points="199.276,59.9864 198.703,61.7498 197.203,62.8396 195.349,62.8396 193.849,61.7498 193.276,59.9864 193.849,58.2231 195.349,57.1333 197.203,57.1333 198.703,58.2231 199.276,59.9864" stroke-linecap="round" stroke-width="0.5"/>
   <polyline stroke="#0071bc" stroke-linejoin="round" fill="none" points="201.781,51.8995 201.208,53.6628 199.708,54.7527 197.853,54.7527 196.353,53.6628 195.781,51.8995 196.353,50.1361 197.853,49.0463 199.708,49.0463 201.208,50.1361 201.781,51.8995" stroke-linecap="round" stroke-width="0.5"/>
   <polyline stroke="#0071bc" stroke-linejoin="round" fill="none" points="204.285,44.5504 203.712,46.3137 202.212,47.4035 200.358,47.4035 198.858,46.3137 198.285,44.5504 198.858,42.787 200.358,41.6972 202.212,41.6972 203.712,42.787 204.285,44.5504" stroke-linecap="round" stroke-width="0.5"/>
   <polyline stroke="#0071bc" stroke-linejoin="round" fill="none" points="206.789,38.5151 206.216,40.2784 204.716,41.3682 202.862,41.3682 201.362,40.2784 200.789,38.5151 201.362,36.7517 202.862,35.6619 204.716,35.6619 206.216,36.7517 206.789,38.5151" stroke-linecap="round" stroke-width="0.5"/>
   <polyline stroke="#0071bc" stroke-linejoin="round" fill="none" points="209.293,34.3506 208.72,36.1139 207.22,37.2037 205.366,37.2037 203.866,36.1139 203.293,34.3506 203.866,32.5872 205.366,31.4974 207.22,31.4974 208.72,32.5872 209.293,34.3506" stroke-linecap="round" stroke-width="0.5"/>
   <polyline stroke="#0071bc" stroke-linejoin="round" fill="none" points="211.798,32.5396 211.225,34.3029 209.725,35.3927 207.871,35.3927 206.371,34.3029 205.798,32.5396 206.371,30.7762 207.871,29.6864 209.725,29.6864 211.225,30.7762 211.798,32.5396" stroke-linecap="round" stroke-width="0.5"/>
   <polyline stroke="#0071bc" stroke-linejoin="round" fill="none" points="214.302,33.4282 213.729,35.1915 212.229,36.2813 210.375,36.2813 208.875,35.1915 208.302,33.4282 208.875,31.6648 210.375,30.575 212.229,30.575 213.729,31.6648 214.302,33.4282" stroke-linecap="round" stroke-width="0.5"/>
   <polyline stroke="#0071bc" stroke-linejoin="round" fill="none" points="216.806,37.1624 216.233,38.9257 214.733,40.0155 212.879,40.0155 211.379,38.9257 210.806,37.1624 211.379,35.399 212.879,34.3092 214.733,34.3092 216.233,35.399 216.806,37.1624" stroke-linecap="round" stroke-width="0.5"/>
   <polyline stroke="#0071bc" stroke-linejoin="round" fill="none" points="219.311,43.6325 218.738,45.3958 217.238,46.4856 215.384,46.4856 213.884,45.3958 213.311,43.6325 213.884,41.8691 215.384,40.7793 217.238,40.7793 218.738,41.8691 219.311,43.6325" stroke-linecap="round" stroke-width="0.5"/>
   <polyline stroke="#0071bc" stroke-linejoin="round" fill="none" points="221.815,52.4346 221.242,54.1979 219.742,55.2877 217.888,55.2877 216.388,54.1979 215.815,52.4346 216.388,50.6712 217.888,49.5814 219.742,49.5814 221.242,50.6712 221.815,52.4346" stroke-linecap="round" stroke-width="0.5"/>
   <polyline stroke="#0071bc" stroke-linejoin="round" fill="none" points="224.319,62.8613 223.746,64.6247 222.246,65.7145 220.392,65.7145 218.892,64.6247 218.319,62.8613 218.892,61.098 220.392,60.0082 222.246,60.0082 223.746,61.098 224.319,62.8613" stroke-linecap="round" stroke-width="0.5"/>
   <polyline stroke="#0071bc" stroke-linejoin="round" fill="none" points="226.824,73.9311 226.251,75.6945 224.751,76.7843 222.896,76.7843 221.396,75.6945 220.824,73.9311 221.396,72.1678 222.896,71.078 224.751,71.078 226.251,72.1678 226.824,73.9311" stroke-linecap="round" stroke-width="0.5"/>
   <polyline stroke="#0071bc" stroke-linejoin="round" fill="none" points="229.328,84.4626 228.755,86.226 227.255,87.3158 225.401,87.3158 223.901,86.226 223.328,84.4626 223.901,82.6993 225.401,81.6094 227.255,81.6094 228.755,82.6993 229.328,84.4626" stroke-linecap="round" stroke-width="0.5"/>
   <polyline stroke="#0071bc" stroke-linejoin="round" fill="none" points="231.832,93.1947 231.259,94.9581 229.759,96.0479 227.905,96.0479 226.405,94.9581 225.832,93.1947 226.405,91.4314 227.905,90.3416 229.759,90.3416 231.259,91.4314 231.832,93.1947" stroke-linecap="round" stroke-width="0.5"/>
   <polyline stroke="#0071bc" stroke-linejoin="round" fill="none" points="234.336,98.9456 233.763,100.709 232.263,101.799 230.409,101.799 228.909,100.709 228.336,98.9456 228.909,97.1822 230.409,96.0924 232.263,96.0924 233.763,97.1822 234.336,98.9456" stroke-linecap="round" stroke-width="0.5"/>
   <polyline stroke="#0071bc" stroke-linejoin="round" fill="none" points="236.841,100.792 236.268,102.555 234.768,103.645 232.914,103.645 231.414,102.555 230.841,100.792 231.414,99.0288 232.914,97.9389 234.768,97.9389 236.268,99.0288 236.841,100.792" stroke-linecap="round" stroke-width="0.5"/>
   <polyline stroke="#0071bc" stroke-linejoin="round" fill="none" points="239.345,98.2454 238.772,100.009 237.272,101.099 235.418,101.099 233.918,100.009 233.345,98.2454 233.918,96.482 235.418,95.3922 237.272,95.3922 238.772,96.482 239.345,98.2454" stroke-linecap="round" stroke-width="0.5"/>
   <polyline stroke="#0071bc" stroke-linejoin="round" fill="none" points="241.849,91.3893 241.276,93.1527 239.776,94.2425 237.922,94.2425 236.422,93.1527 235.849,91.3893 236.422,89.626 237.922,88.5362 239.776,88.5362 241.276,89.626 241.849,91.3893" stroke-linecap="round" stroke-width="0.5"/>
   <polyline stroke="#0071bc" stroke-linejoin="round" fill="none" points="244.354,80.949 243.781,82.7123 242.281,83.8021 240.427,83.8021 238.927,82.7123 238.354,80.949 238.927,79.1856 240.427,78.0958 242.281,78.0958 243.781,79.1856 244.354,80.949" stroke-linecap="round" stroke-width="0.5"/>
   <polyline stroke="#0071bc" stroke-linejoin="round" fill="none" points="246.858,68.2609 246.285,70.0242 244.785,71.1141 242.931,71.1141 241.431,70.0242 240.858,68.2609 241.431,66.4975 242.931,65.4077 244.785,65.4077 246.285,66.4975 246.858,68.2609" stroke-linecap="round" stroke-width="0.5"/>
   <polyline stroke="#0071bc" stroke-linejoin="round" fill="none" points="249.362,55.1314 248.789,56.8947 247.289,57.9846 245.435,57.9846 243.935,56.8947 243.362,55.1314 243.935,53.368 245.435,52.2782 247.289,52.2782 248.789,53.368 249.362,55.1314" stroke-linecap="round" stroke-width="0.5"/>
   <polyline stroke="#0071bc" stroke-linejoin="round" fill="none" points="251.866,43.5881 251.294,45.3514 249.794,46.4412 247.939,46.4412 246.439,45.3514 245.866,43.5881 246.439,41.8247 247.939,40.7349 249.794,40.7349 251.294,41.8247 251.866,43.5881" stroke-linecap="round" stroke-width="0.5"/>
   <polyline stroke="#0071bc" stroke-linejoin="round" fill="none" points="254.371,35.5543 253.798,37.3177 252.298,38.4075 250.444,38.4075 248.944,37.3177 248.371,35.5543 248.944,33.791 250.444,32.7011 252.298,32.7011 253.798,33.791 254.371,35.5543" stroke-linecap="round" stroke-width="0.5"/>
   <polyline stroke="#0071bc" stroke-linejoin="round" fill="none" points="256.875,32.4987 256.302,34.262 254.802,35.3519 252.948,35.3519 251.448,34.262 250.875,32.4987 251.448,30.7353 252.948,29.6455 254.802,29.6455 256.302,30.7353 256.875,32.4987" stroke-linecap="round" stroke-width="0.5"/>
   <polyline stroke="#0071bc" stroke-linejoin="round" fill="none" points="259.379,35.1261 258.806,36.8894 257.306,37.9792 255.452,37.9792 253.952,36.8894 253.379,35.1261 253.952,33.3627 255.452,32.2729 257.306,32.2729 258.806,33.3627 259.379,35.1261" stroke-linecap="round" stroke-width="0.5"/>
   <polyline stroke="#0071bc" stroke-linejoin="round" fill="none" points="261.884,43.18 261.311,44.9434 259.811,46.0332 257.957,46.0332 256.457,44.9434 255.884,43.18 256.457,41.4167 257.957,40.3269 259.811,40.3269 261.311,41.4167 261.884,43.18" stroke-linecap="round" stroke-width="0.5"/>
   <polyline stroke="#0071bc" stroke-linejoin="round" fill="none" points="264.388,55.4129 263.815,57.1762 262.315,58.266 260.461,58.266 258.961,57.1762 258.388,55.4129 258.961,53.6495 260.461,52.5597 262.315,52.5597 263.815,53.6495 264.388,55.4129" stroke-linecap="round" stroke-width="0.5"/>
   <polyline stroke="#0071bc" stroke-linejoin="round" fill="none" points="266.892,69.7492 266.319,71.5125 264.819,72.6023 262.965,72.6023 261.465,71.5125 260.892,69.7492 261.465,67.9858 262.965,66.896 264.819,66.896 266.319,67.9858 266.892,69.7492" stroke-linecap="round" stroke-width="0.5"/>
   <polyline stroke="#0071bc" stroke-linejoin="round" fill="none" points="269.397,83.6305 268.824,85.3939 267.324,86.4837 265.47,86.4837 263.97,85.3939 263.397,83.6305 263.97,81.8672 265.47,80.7774 267.324,80.7774 268.824,81.8672 269.397,83.6305" stroke-linecap="round" stroke-width="0.5"/>
   <polyline stroke="#0071bc" stroke-linejoin="round" fill="none" points="271.901,94.4851 271.328,96.2485 269.828,97.3383 267.974,97.3383 266.474,96.2485 265.901,94.4851 266.474,92.7217 267.974,91.6319 269.828,91.6319 271.328,92.7217 271.901,94.4851" stroke-linecap="round" stroke-width="0.5"/>
   <polyline stroke="#0071bc" stroke-linejoin="round" fill="none" points="274.405,100.231 273.832,101.995 272.332,103.085 270.478,103.085 268.978,101.995 268.405,100.231 268.978,98.4681 270.478,97.3783 272.332,97.3783 273.832,98.4681 274.405,100.231" stroke-linecap="round" stroke-width="0.5"/>
   <polyline stroke="#0071bc" stroke-linejoin="round" fill="none" points="276.909,99.7111 276.337,101.474 274.837,102.564 272.982,102.564 271.482,101.474 270.909,99.7111 271.482,97.9477 272.982,96.8579 274.837,96.8579 276.337,97.9477 276.909,99.7111" stroke-linecap="round" stroke-width="0.5"/>
   <polyline stroke="#0071bc" stroke-linejoin="round" fill="none" points="279.414,92.9506 278.841,94.714 277.341,95.8038 275.487,95.8038 273.987,94.714 273.414,92.9506 273.987,91.1872 275.487,90.0974 277.341,90.0974 278.841,91.1872 279.414,92.9506" stroke-linecap="round" stroke-width="0.5"/>
   <polyline stroke="#0071bc" stroke-linejoin="round" fill="none" points="281.918,81.188 281.345,82.9514 279.845,84.0412 277.991,84.0412 276.491,82.9514 275.918,81.188 276.491,79.4247 277.991,78.3349 279.845,78.3349 281.345,79.4247 281.918,81.188" stroke-linecap="round" stroke-width="0.5"/>
   <polyline stroke="#0071bc" stroke-linejoin="round" fill="none" points="284.422,66.6481 283.849,68.4114 282.349,69.5013 280.495,69.5013 278.995,68.4114 278.422,66.6481 278.995,64.8847 280.495,63.7949 282.349,63.7949 283.849,64.8847 284.422,66.6481" stroke-linecap="round" stroke-width="0.5"/>
   <polyline stroke="#0071bc" stroke-linejoin="round" fill="none" points="286.927,52.1081 286.354,53.8715 284.854,54.9613 283,54.9613 281.5,53.8715 280.927,52.1081 281.5,50.3448 283,49.255 284.854,49.255 286.354,50.3448 286.927,52.1081" stroke-linecap="round" stroke-width="0.5"/>
   <polyline stroke="#0071bc" stroke-linejoin="round" fill="none" points="289.431,40.3456 288.858,42.1089 287.358,43.1987 285.504,43.1987 284.004,42.1089 283.431,40.3456 284.004,38.5822 285.504,37.4924 287.358,37.4924 288.858,38.5822 289.431,40.3456" stroke-linecap="round" stroke-width="0.5"/>
   <polyline stroke="#0071bc" stroke-linejoin="round" fill="none" points="291.935,33.5851 291.362,35.3484 289.862,36.4382 288.008,36.4382 286.508,35.3484 285.935,33.5851 286.508,31.8217 288.008,30.7319 289.862,30.7319 291.362,31.8217 291.935,33.5851" stroke-linecap="round" stroke-width="0.5"/>
   <polyline stroke="#0071bc" stroke-linejoin="round" fill="none" points="294.44,33.0647 293.867,34.8281 292.367,35.9179 290.513,35.9179 289.013,34.8281 288.44,33.0647 289.013,31.3014 290.513,30.2115 292.367,30.2115 293.867,31.3014 294.44,33.0647" stroke-linecap="round" stroke-width="0.5"/>
   <polyline stroke="#0071bc" stroke-linejoin="round" fill="none" points="296.944,38.8111 296.371,40.5744 294.871,41.6642 293.017,41.6642 291.517,40.5744 290.944,38.8111 291.517,37.0477 293.017,35.9579 294.871,35.9579 296.371,37.0477 296.944,38.8111" stroke-linecap="round" stroke-width="0.5"/>
   <polyline stroke="#0071bc" stroke-linejoin="round" fill="none" points="299.448,49.6656 298.875,51.429 297.375,52.5188 295.521,52.5188 294.021,51.429 293.448,49.6656 294.021,47.9023 295.521,46.8124 297.375,46.8124 298.875,47.9023 299.448,49.6656" stroke-linecap="round" stroke-width="0.5"/>
   <polyline stroke="#0071bc" stroke-linejoin="round" fill="none" points="301.952,63.547 301.379,65.3104 299.88,66.4002 298.025,66.4002 296.525,65.3104 295.952,63.547 296.525,61.7837 298.025,60.6938 299.88,60.6938 301.379,61.7837 301.952,63.547" stroke-linecap="round" stroke-width="0.5"/>
   <polyline stroke="#0071bc" stroke-linejoin="round" fill="none" points="304.457,77.8833 303.884,79.6467 302.384,80.7365 300.53,80.7365 299.03,79.6467 298.457,77.8833 299.03,76.1199 300.53,75.0301 302.384,75.0301 303.884,76.1199 304.457,77.8833" stroke-linecap="round" stroke-width="0.5"/>
   <polyline stroke="#0071bc" stroke-linejoin="round" fill="none" points="306.961,90.1161 306.388,91.8795 304.888,92.9693 303.034,92.9693 301.534,91.8795 300.961,90.1161 301.534,88.3528 303.034,87.2629 304.888,87.2629 306.388,88.3528 306.961,90.1161" stroke-linecap="round" stroke-width="0.5"/>
   <polyline stroke="#0071bc" stroke-linejoin="round" fill="none" points="309.465,98.1701 308.892,99.9335 307.392,101.023 305.538,101.023 304.038,99.9335 303.465,98.1701 304.038,96.4067 305.538,95.3169 307.392,95.3169 308.892,96.4067 309.465,98.1701" stroke-linecap="round" stroke-width="0.5"/>
   <polyline stroke="#0071bc" stroke-linejoin="round" fill="none" points="311.97,100.797 311.397,102.561 309.897,103.651 308.043,103.651 306.543,102.561 305.97,100.797 306.543,99.0341 308.043,97.9443 309.897,97.9443 311.397,99.0341 311.97,100.797" stroke-linecap="round" stroke-width="0.5"/>
   <polyline stroke="#0071bc" stroke-linejoin="round" fill="none" points="314.474,97.7418 313.901,99.5052 312.401,100.595 310.547,100.595 309.047,99.5052 308.474,97.7418 309.047,95.9785 310.547,94.8887 312.401,94.8887 313.901,95.9785 314.474,97.7418" stroke-linecap="round" stroke-width="0.5"/>
   <polyline stroke="#0071bc" stroke-linejoin="round" fill="none" points="316.978,89.7081 316.405,91.4715 314.905,92.5613 313.051,92.5613 311.551,91.4715 310.978,89.7081 311.551,87.9447 313.051,86.8549 314.905,86.8549 316.405,87.9447 316.978,89.7081" stroke-linecap="round" stroke-width="0.5"/>
   <polyline stroke="#0071bc" stroke-linejoin="round" fill="none" points="319.483,78.1648 318.91,79.9281 317.41,81.0179 315.556,81.0179 314.056,79.9281 313.483,78.1648 314.056,76.4014 315.556,75.3116 317.41,75.3116 318.91,76.4014 319.483,78.1648" stroke-linecap="round" stroke-width="0.5"/>
   <polyline stroke="#0071bc" stroke-linejoin="round" fill="none" points="321.987,65.0353 321.414,66.7986 319.914,67.8884 318.06,67.8884 316.56,66.7986 315.987,65.0353 316.56,63.2719 318.06,62.1821 319.914,62.1821 321.414,63.2719 321.987,65.0353" stroke-linecap="round" stroke-width="0.5"/>
   <polyline stroke="#0071bc" stroke-linejoin="round" fill="none" points="324.491,52.3472 323.918,54.1105 322.418,55.2004 320.564,55.2004 319.064,54.1105 318.491,52.3472 319.064,50.5838 320.564,49.494 322.418,49.494 323.918,50.5838 324.491,52.3472" stroke-linecap="round" stroke-width="0.5"/>
   <polyline stroke="#0071bc" stroke-linejoin="round" fill="none" points="326.995,41.9068 326.422,43.6702 324.922,44.76 323.068,44.76 321.568,43.6702 320.995,41.9068 321.568,40.1435 323.068,39.0537 324.922,39.0537 326.422,40.1435 326.995,41.9068" stroke-linecap="round" stroke-width="0.5"/>
   <polyline stroke="#0071bc" stroke-linejoin="round" fill="none" points="329.5,35.0508 328.927,36.8141 327.427,37.9039 325.573,37.9039 324.073,36.8141 323.5,35.0508 324.073,33.2874 325.573,32.1976 327.427,32.1976 328.927,33.2874 329.5,35.0508" stroke-linecap="round" stroke-width="0.5"/>
   <polyline stroke="#0071bc" stroke-linejoin="round" fill="none" points="332.004,32.5041 331.431,34.2674 329.931,35.3572 328.077,35.3572 326.577,34.2674 326.004,32.5041 326.577,30.7407 328.077,29.6509 329.931,29.6509 331.431,30.7407 332.004,32.5041" stroke-linecap="round" stroke-width="0.5"/>
   <polyline stroke="#0071bc" stroke-linejoin="round" fill="none" points="334.508,34.3506 333.935,36.1139 332.435,37.2037 330.581,37.2037 329.081,36.1139 328.508,34.3506 329.081,32.5872 330.581,31.4974 332.435,31.4974 333.935,32.5872 334.508,34.3506" stroke-linecap="round" stroke-width="0.5"/>
   <polyline stroke="#0071bc" stroke-linejoin="round" fill="none" points="337.013,40.1014 336.44,41.8648 334.94,42.9546 333.086,42.9546 331.586,41.8648 331.013,40.1014 331.586,38.3381 333.086,37.2482 334.94,37.2482 336.44,38.3381 337.013,40.1014" stroke-linecap="round" stroke-width="0.5"/>
   <polyline stroke="#0071bc" stroke-linejoin="round" fill="none" points="339.517,48.8335 338.944,50.5969 337.444,51.6867 335.59,51.6867 334.09,50.5969 333.517,48.8335 334.09,47.0702 335.59,45.9804 337.444,45.9804 338.944,47.0702 339.517,48.8335" stroke-linecap="round" stroke-width="0.5"/>
   <polyline stroke="#0071bc" stroke-linejoin="round" fill="none" points="342.021,59.365 341.448,61.1284 339.948,62.2182 338.094,62.2182 336.594,61.1284 336.021,59.365 336.594,57.6017 338.094,56.5118 339.948,56.5118 341.448,57.6017 342.021,59.365" stroke-linecap="round" stroke-width="0.5"/>
   <polyline stroke="#0071bc" stroke-linejoin="round" fill="none" points="344.526,70.4348 343.953,72.1982 342.453,73.288 340.598,73.288 339.098,72.1982 338.526,70.4348 339.098,68.6715 340.598,67.5817 342.453,67.5817 343.953,68.6715 344.526,70.4348" stroke-linecap="round" stroke-width="0.5"/>
   <polyline stroke="#0071bc" stroke-linejoin="round" fill="none" points="347.03,80.8616 346.457,82.625 344.957,83.7148 343.103,83.7148 341.603,82.625 341.03,80.8616 341.603,79.0982 343.103,78.0084 344.957,78.0084 346.457,79.0982 347.03,80.8616" stroke-linecap="round" stroke-width="0.5"/>
   <polyline stroke="#0071bc" stroke-linejoin="round" fill="none" points="349.534,89.6637 348.961,91.427 347.461,92.5169 345.607,92.5169 344.107,91.427 343.534,89.6637 344.107,87.9003 345.607,86.8105 347.461,86.8105 348.961,87.9003 349.534,89.6637" stroke-linecap="round" stroke-width="0.5"/>
   <polyline stroke="#0071bc" stroke-linejoin="round" fill="none" points="352.038,96.1338 351.465,97.8971 349.965,98.9869 348.111,98.9869 346.611,97.8971 346.038,96.1338 346.611,94.3704 348.111,93.2806 349.965,93.2806 351.465,94.3704 352.038,96.1338" stroke-linecap="round" stroke-width="0.5"/>
   <polyline stroke="#0071bc" stroke-linejoin="round" fill="none" points="354.543,99.868 353.97,101.631 352.47,102.721 350.616,102.721 349.116,101.631 348.543,99.868 349.116,98.1046 350.616,97.0148 352.47,97.0148 353.97,98.1046 354.543,99.868" stroke-linecap="round" stroke-width="0.5"/>
   <polyline stroke="#0071bc" stroke-linejoin="round" fill="none" points="357.047,100.757 356.474,102.52 354.974,103.61 353.12,103.61 351.62,102.52 351.047,100.757 351.62,98.9932 353.12,97.9034 354.974,97.9034 356.474,98.9932 357.047,100.757" stroke-linecap="round" stroke-width="0.5"/>
   <polyline stroke="#0071bc" stroke-linejoin="round" fill="none" points="359.551,98.9456 358.978,100.709 357.478,101.799 355.624,101.799 354.124,100.709 353.551,98.9456 354.124,97.1822 355.624,96.0924 357.478,96.0924 358.978,97.1822 359.551,98.9456" stroke-linecap="round" stroke-width="0.5"/>
   <polyline stroke="#0071bc" stroke-linejoin="round" fill="none" points="362.056,94.7811 361.483,96.5445 359.983,97.6343 358.129,97.6343 356.629,96.5445 356.056,94.7811 356.629,93.0177 358.129,91.9279 359.983,91.9279 361.483,93.0177 362.056,94.7811" stroke-linecap="round" stroke-width="0.5"/>
   <polyline stroke="#0071bc" stroke-linejoin="round" fill="none" points="364.56,88.7458 363.987,90.5091 362.487,91.599 360.633,91.599 359.133,90.5091 358.56,88.7458 359.133,86.9824 360.633,85.8926 362.487,85.8926 363.987,86.9824 364.56,88.7458" stroke-linecap="round" stroke-width="0.5"/>
   <polyline stroke="#0071bc" stroke-linejoin="round" fill="none" points="367.064,81.3967 366.491,83.16 364.991,84.2498 363.137,84.2498 361.637,83.16 361.064,81.3967 361.637,79.6333 363.137,78.5435 364.991,78.5435 366.491,79.6333 367.064,81.3967" stroke-linecap="round" stroke-width="0.5"/>
   <polyline stroke="#0071bc" stroke-linejoin="round" fill="none" points="369.569,73.3097 368.996,75.0731 367.496,76.1629 365.641,76.1629 364.141,75.0731 363.569,73.3097 364.141,71.5464 365.641,70.4566 367.496,70.4566 368.996,71.5464 369.569,73.3097" stroke-linecap="round" stroke-width="0.5"/>
   <polyline stroke="#0071bc" stroke-linejoin="round" fill="none" points="372.073,65.0353 371.5,66.7986 370,67.8884 368.146,67.8884 366.646,66.7986 366.073,65.0353 366.646,63.2719 368.146,62.1821 370,62.1821 371.5,63.2719 372.073,65.0353" stroke-linecap="round" stroke-width="0.5"/>
   <polyline stroke="#0071bc" stroke-linejoin="round" fill="none" points="374.577,57.0651 374.004,58.8285 372.504,59.9183 370.65,59.9183 369.15,58.8285 368.577,57.0651 369.15,55.3018 370.65,54.212 372.504,54.212 374.004,55.3018 374.577,57.0651" stroke-linecap="round" stroke-width="0.5"/>
   <polyline stroke="#0071bc" stroke-linejoin="round" fill="none" points="377.081,49.8119 376.508,51.5752 375.008,52.665 373.154,52.665 371.654,51.5752 371.081,49.8119 371.654,48.0485 373.154,46.9587 375.008,46.9587 376.508,48.0485 377.081,49.8119" stroke-linecap="round" stroke-width="0.5"/>
   <polyline stroke="#0071bc" stroke-linejoin="round" fill="none" points="379.586,43.5982 379.013,45.3615 377.513,46.4514 375.659,46.4514 374.159,45.3615 373.586,43.5982 374.159,41.8348 375.659,40.745 377.513,40.745 379.013,41.8348 379.586,43.5982" stroke-linecap="round" stroke-width="0.5"/>
   <polyline stroke="#0071bc" stroke-linejoin="round" fill="none" points="382.09,38.6551 381.517,40.4184 380.017,41.5082 378.163,41.5082 376.663,40.4184 376.09,38.6551 376.663,36.8917 378.163,35.8019 380.017,35.8019 381.517,36.8917 382.09,38.6551" stroke-linecap="round" stroke-width="0.5"/>
   <polyline stroke="#0071bc" stroke-linejoin="round" fill="none" points="384.594,35.1261 384.021,36.8894 382.521,37.9792 380.667,37.9792 379.167,36.8894 378.594,35.1261 379.167,33.3627 380.667,32.2729 382.521,32.2729 384.021,33.3627 384.594,35.1261" stroke-linecap="round" stroke-width="0.5"/>
   <polyline stroke="#0071bc" stroke-linejoin="round" fill="none" points="387.099,33.0757 386.526,34.8391 385.026,35.9289 383.172,35.9289 381.672,34.8391 381.099,33.0757 381.672,31.3124 383.172,30.2226 385.026,30.2226 386.526,31.3124 387.099,33.0757" stroke-linecap="round" stroke-width="0.5"/>
   <polyline stroke="#0071bc" stroke-linejoin="round" fill="none" points="389.603,32.5006 389.03,34.2639 387.53,35.3538 385.676,35.3538 384.176,34.2639 383.603,32.5006 384.176,30.7372 385.676,29.6474 387.53,29.6474 389.03,30.7372 389.603,32.5006" stroke-linecap="round" stroke-width="0.5"/>
   <polyline stroke="#0071bc" stroke-linejoin="round" fill="none" points="392.107,33.3406 391.534,35.1039 390.034,36.1937 388.18,36.1937 386.68,35.1039 386.107,33.3406 386.68,31.5772 388.18,30.4874 390.034,30.4874 391.534,31.5772 392.107,33.3406" stroke-linecap="round" stroke-width="0.5"/>
   <polyline stroke="#0071bc" stroke-linejoin="round" fill="none" points="394.611,35.4907 394.039,37.254 392.539,38.3438 390.684,38.3438 389.184,37.254 388.611,35.4907 389.184,33.7273 390.684,32.6375 392.539,32.6375 394.039,33.7273 394.611,35.4907" stroke-linecap="round" stroke-width="0.5"/>
   <polyline stroke="#0071bc" stroke-linejoin="round" fill="none" points="397.116,38.8111 396.543,40.5744 395.043,41.6642 393.189,41.6642 391.689,40.5744 391.116,38.8111 391.689,37.0477 393.189,35.9579 395.043,35.9579 396.543,37.0477 397.116,38.8111" stroke-linecap="round" stroke-width="0.5"/>
   <polyline stroke="#0071bc" stroke-linejoin="round" fill="none" points="399.62,43.1363 399.047,44.8997 397.547,45.9895 395.693,45.9895 394.193,44.8997 393.62,43.1363 394.193,41.373 395.693,40.2832 397.547,40.2832 399.047,41.373 399.62,43.1363" stroke-linecap="round" stroke-width="0.5"/>
   <polyline stroke="#0071bc" stroke-linejoin="round" fill="none" points="402.124,48.2827 401.551,50.046 400.051,51.1358 398.197,51.1358 396.697,50.046 396.124,48.2827 396.697,46.5193 398.197,45.4295 400.051,45.4295 401.551,46.5193 402.124,48.2827" stroke-linecap="round" stroke-width="0.5"/>
   <polyline stroke="#0071bc" stroke-linejoin="round" fill="none" points="404.629,54.0538 404.056,55.8171 402.556,56.907 400.702,56.907 399.202,55.8171 398.629,54.0538 399.202,52.2904 400.702,51.2006 402.556,51.2006 404.056,52.2904 404.629,54.0538" stroke-linecap="round" stroke-width="0.5"/>
   <polyline stroke="#0071bc" stroke-linejoin="round" fill="none" points="407.133,60.2453 406.56,62.0086 405.06,63.0985 403.206,63.0985 401.706,62.0086 401.133,60.2453 401.706,58.4819 403.206,57.3921 405.06,57.3921 406.56,58.4819 407.133,60.2453" stroke-linecap="round" stroke-width="0.5"/>
   <polyline stroke="#0071bc" stroke-linejoin="round" fill="none" points="409.637,66.6481 409.064,68.4114 407.564,69.5013 405.71,69.5013 404.21,68.4114 403.637,66.6481 404.21,64.8847 405.71,63.7949 407.564,63.7949 409.064,64.8847 409.637,66.6481" stroke-linecap="round" stroke-width="0.5"/>
   <polyline stroke="#0071bc" stroke-linejoin="round" fill="none" points="412.142,73.0509 411.569,74.8142 410.069,75.904 408.215,75.904 406.715,74.8142 406.142,73.0509 406.715,71.2875 408.215,70.1977 410.069,70.1977 411.569,71.2875 412.142,73.0509" stroke-linecap="round" stroke-width="0.5"/>
   <polyline stroke="#0071bc" stroke-linejoin="round" fill="none" points="414.646,79.2424 414.073,81.0057 412.573,82.0956 410.719,82.0956 409.219,81.0057 408.646,79.2424 409.219,77.479 410.719,76.3892 412.573,76.3892 414.073,77.479 414.646,79.2424" stroke-linecap="round" stroke-width="0.5"/>
   <polyline stroke="#0071bc" stroke-linejoin="round" fill="none" points="417.15,85.0135 416.577,86.7768 415.077,87.8667 413.223,87.8667 411.723,86.7768 411.15,85.0135 411.723,83.2501 413.223,82.1603 415.077,82.1603 416.577,83.2501 417.15,85.0135" stroke-linecap="round" stroke-width="0.5"/>
   <polyline stroke="#0071bc" stroke-linejoin="round" fill="none" points="419.654,90.1598 419.082,91.9232 417.582,93.013 415.727,93.013 414.227,91.9232 413.654,90.1598 414.227,88.3965 415.727,87.3067 417.582,87.3067 419.082,88.3965 419.654,90.1598" stroke-linecap="round" stroke-width="0.5"/>
   <polyline stroke="#0071bc" stroke-linejoin="round" fill="none" points="422.159,94.4851 421.586,96.2485 420.086,97.3383 418.232,97.3383 416.732,96.2485 416.159,94.4851 416.732,92.7217 418.232,91.6319 420.086,91.6319 421.586,92.7217 422.159,94.4851" stroke-linecap="round" stroke-width="0.5"/>
   <polyline stroke="#0071bc" stroke-linejoin="round" fill="none" points="424.663,97.8055 424.09,99.5689 422.59,100.659 420.736,100.659 419.236,99.5689 418.663,97.8055 419.236,96.0422 420.736,94.9523 422.59,94.9523 424.09,96.0422 424.663,97.8055" stroke-linecap="round" stroke-width="0.5"/>
   <polyline stroke="#0071bc" stroke-linejoin="round" fill="none" points="427.167,99.9556 426.594,101.719 425.094,102.809 423.24,102.809 421.74,101.719 421.167,99.9556 421.74,98.1922 423.24,97.1024 425.094,97.1024 426.594,98.1922 427.167,99.9556" stroke-linecap="round" stroke-width="0.5"/>
   <polyline stroke="#0071bc" stroke-linejoin="round" fill="none" points="429.672,100.796 429.099,102.559 427.599,103.649 425.745,103.649 424.245,102.559 423.672,100.796 424.245,99.0322 425.745,97.9424 427.599,97.9424 429.099,99.0322 429.672,100.796" stroke-linecap="round" stroke-width="0.5"/>
   <polyline stroke="#0071bc" stroke-linejoin="round" fill="none" points="432.176,100.22 431.603,101.984 430.103,103.074 428.249,103.074 426.749,101.984 426.176,100.22 426.749,98.4571 428.249,97.3672 430.103,97.3672 431.603,98.4571 432.176,100.22" stroke-linecap="round" stroke-width="0.5"/>
   <polyline stroke="#0071bc" stroke-linejoin="round" fill="none" points="434.68,98.1701 434.107,99.9335 432.607,101.023 430.753,101.023 429.253,99.9335 428.68,98.1701 429.253,96.4067 430.753,95.3169 432.607,95.3169 434.107,96.4067 434.68,98.1701" stroke-linecap="round" stroke-width="0.5"/>
   <polyline stroke="#0071bc" stroke-linejoin="round" fill="none" points="437.185,94.6411 436.612,96.4044 435.112,97.4943 433.257,97.4943 431.757,96.4044 431.185,94.6411 431.757,92.8777 433.257,91.7879 435.112,91.7879 436.612,92.8777 437.185,94.6411" stroke-linecap="round" stroke-width="0.5"/>
   <polyline stroke="#0071bc" stroke-linejoin="round" fill="none" points="439.689,89.698 439.116,91.4613 437.616,92.5511 435.762,92.5511 434.262,91.4613 433.689,89.698 434.262,87.9346 435.762,86.8448 437.616,86.8448 439.116,87.9346 439.689,89.698" stroke-linecap="round" stroke-width="0.5"/>
   <polyline stroke="#0071bc" stroke-linejoin="round" fill="none" points="442.193,83.4843 441.62,85.2476 440.12,86.3375 438.266,86.3375 436.766,85.2476 436.193,83.4843 436.766,81.7209 438.266,80.6311 440.12,80.6311 441.62,81.7209 442.193,83.4843" stroke-linecap="round" stroke-width="0.5"/>
   <polyline stroke="#0071bc" stroke-linejoin="round" fill="none" points="444.697,76.231 444.125,77.9944 442.625,79.0842 440.77,79.0842 439.27,77.9944 438.697,76.231 439.27,74.4677 440.77,73.3778 442.625,73.3778 444.125,74.4677 444.697,76.231" stroke-linecap="round" stroke-width="0.5"/>
   <polyline stroke="#0071bc" stroke-linejoin="round" fill="none" points="447.202,68.2609 446.629,70.0242 445.129,71.1141 443.275,71.1141 441.775,70.0242 441.202,68.2609 441.775,66.4975 443.275,65.4077 445.129,65.4077 446.629,66.4975 447.202,68.2609" stroke-linecap="round" stroke-width="0.5"/>
   <polyline stroke="#0071bc" stroke-linejoin="round" fill="none" points="449.706,59.9864 449.133,61.7498 447.633,62.8396 445.779,62.8396 444.279,61.7498 443.706,59.9864 444.279,58.2231 445.779,57.1333 447.633,57.1333 449.133,58.2231 449.706,59.9864" stroke-linecap="round" stroke-width="0.5"/>
   <polyline stroke="#0071bc" stroke-linejoin="round" fill="none" points="452.21,51.8995 451.637,53.6628 450.137,54.7527 448.283,54.7527 446.783,53.6628 446.21,51.8995 446.783,50.1361 448.283,49.0463 450.137,49.0463 451.637,50.1361 452.21,51.8995" stroke-linecap="round" stroke-width="0.5"/>
   <polyline stroke="#0071bc" stroke-linejoin="round" fill="none" points="454.715,44.5504 454.142,46.3137 452.642,47.4035 450.788,47.4035 449.288,46.3137 448.715,44.5504 449.288,42.787 450.788,41.6972 452.642,41.6972 454.142,42.787 454.715,44.5504" stroke-linecap="round" stroke-width="0.5"/>
   <polyline stroke="#0071bc" stroke-linejoin="round" fill="none" points="457.219,38.5151 456.646,40.2784 455.146,41.3682 453.292,41.3682 451.792,40.2784 451.219,38.5151 451.792,36.7517 453.292,35.6619 455.146,35.6619 456.646,36.7517 457.219,38.5151" stroke-linecap="round" stroke-width="0.5"/>
   <polyline stroke="#0071bc" stroke-linejoin="round" fill="none" points="459.723,34.3506 459.15,36.1139 457.65,37.2037 455.796,37.2037 454.296,36.1139 453.723,34.3506 454.296,32.5872 455.796,31.4974 457.65,31.4974 459.15,32.5872 459.723,34.3506" stroke-linecap="round" stroke-width="0.5"/>
   <polyline stroke="#0071bc" stroke-linejoin="round" fill="none" points="462.228,32.5396 461.655,34.3029 460.155,35.3927 458.301,35.3927 456.801,34.3029 456.228,32.5396 456.801,30.7762 458.301,29.6864 460.155,29.6864 461.655,30.7762 462.228,32.5396" stroke-linecap="round" stroke-width="0.5"/>
   <polyline stroke="#0071bc" stroke-linejoin="round" fill="none" points="464.732,33.4282 464.159,35.1915 462.659,36.2813 460.805,36.2813 459.305,35.1915 458.732,33.4282 459.305,31.6648 460.805,30.575 462.659,30.575 464.159,31.6648 464.732,33.4282" stroke-linecap="round" stroke-width="0.5"/>
   <polyline stroke="#0071bc" stroke-linejoin="round" fill="none" points="467.236,37.1624 466.663,38.9257 465.163,40.0155 463.309,40.0155 461.809,38.9257 461.236,37.1624 461.809,35.399 463.309,34.3092 465.163,34.3092 466.663,35.399 467.236,37.1624" stroke-linecap="round" stroke-width="0.5"/>
   <polyline stroke="#0071bc" stroke-linejoin="round" fill="none" points="469.74,43.6325 469.167,45.3958 467.667,46.4856 465.813,46.4856 464.313,45.3958 463.74,43.6325 464.313,41.8691 465.813,40.7793 467.667,40.7793 469.167,41.8691 469.74,43.6325" stroke-linecap="round" stroke-width="0.5"/>
   <polyline stroke="#0071bc" stroke-linejoin="round" fill="none" points="472.245,52.4346 471.672,54.1979 470.172,55.2877 468.318,55.2877 466.818,54.1979 466.245,52.4346 466.818,50.6712 468.318,49.5814 470.172,49.5814 471.672,50.6712 472.245,52.4346" stroke-linecap="round" stroke-width="0.5"/>
   <polyline stroke="#0071bc" stroke-linejoin="round" fill="none" points="474.749,62.8613 474.176,64.6247 472.676,65.7145 470.822,65.7145 469.322,64.6247 468.749,62.8613 469.322,61.098 470.822,60.0082 472.676,60.0082 474.176,61.098 474.749,62.8613" stroke-linecap="round" stroke-width="0.5"/>
   <polyline stroke="#0071bc" stroke-linejoin="round" fill="none" points="477.253,73.9311 476.68,75.6945 475.18,76.7843 473.326,76.7843 471.826,75.6945 471.253,73.9311 471.826,72.1678 473.326,71.078 475.18,71.078 476.68,72.1678 477.253,73.9311" stroke-linecap="round" stroke-width="0.5"/>
   <polyline stroke="#0071bc" stroke-linejoin="round" fill="none" points="479.758,84.4626 479.185,86.226 477.685,87.3158 475.831,87.3158 474.331,86.226 473.758,84.4626 474.331,82.6993 475.831,81.6094 477.685,81.6094 479.185,82.6993 479.758,84.4626" stroke-linecap="round" stroke-width="0.5"/>
   <polyline stroke="#0071bc" stroke-linejoin="round" fill="none" points="482.262,93.1947 481.689,94.9581 480.189,96.0479 478.335,96.0479 476.835,94.9581 476.262,93.1947 476.835,91.4314 478.335,90.3416 480.189,90.3416 481.689,91.4314 482.262,93.1947" stroke-linecap="round" stroke-width="0.5"/>
   <polyline stroke="#0071bc" stroke-linejoin="round" fill="none" points="484.766,98.9456 484.193,100.709 482.693,101.799 480.839,101.799 479.339,100.709 478.766,98.9456 479.339,97.1822 480.839,96.0924 482.693,96.0924 484.193,97.1822 484.766,98.9456" stroke-linecap="round" stroke-width="0.5"/>
   <polyline stroke="#0071bc" stroke-linejoin="round" fill="none" points="487.271,100.792 486.698,102.555 485.198,103.645 483.343,103.645 481.843,102.555 481.271,100.792 481.843,99.0288 483.343,97.9389 485.198,97.9389 486.698,99.0288 487.271,100.792" stroke-linecap="round" stroke-width="0.5"/>
   <polyline stroke="#0071bc" stroke-linejoin="round" fill="none" points="489.775,98.2454 489.202,100.009 487.702,101.099 485.848,101.099 484.348,100.009 483.775,98.2454 484.348,96.482 485.848,95.3922 487.702,95.3922 489.202,96.482 489.775,98.2454" stroke-linecap="round" stroke-width="0.5"/>
   <polyline stroke="#0071bc" stroke-linejoin="round" fill="none" points="492.279,91.3893 491.706,93.1527 490.206,94.2425 488.352,94.2425 486.852,93.1527 486.279,91.3893 486.852,89.626 488.352,88.5362 490.206,88.5362 491.706,89.626 492.279,91.3893" stroke-linecap="round" stroke-width="0.5"/>
   <polyline stroke="#0071bc" stroke-linejoin="round" fill="none" points="494.783,80.949 494.21,82.7123 492.71,83.8021 490.856,83.8021 489.356,82.7123 488.783,80.949 489.356,79.1856 490.856,78.0958 492.71,78.0958 494.21,79.1856 494.783,80.949" stroke-linecap="round" stroke-width="0.5"/>
   <polyline stroke="#0071bc" stroke-linejoin="round" fill="none" points="497.288,68.2609 496.715,70.0242 495.215,71.1141 493.361,71.1141 491.861,70.0242 491.288,68.2609 491.861,66.4975 493.361,65.4077 495.215,65.4077 496.715,66.4975 497.288,68.2609" stroke-linecap="round" stroke-width="0.5"/>
   <polyline stroke="#0071bc" stroke-linejoin="round" fill="none" points="499.792,55.1314 499.219,56.8947 497.719,57.9846 495.865,57.9846 494.365,56.8947 493.792,55.1314 494.365,53.368 495.865,52.2782 497.719,52.2782 499.219,53.368 499.792,55.1314" stroke-linecap="round" stroke-width="0.5"/>
   <polyline stroke="#0071bc" stroke-linejoin="round" fill="none" points="502.296,43.5881 501.723,45.3514 500.223,46.4412 498.369,46.4412 496.869,45.3514 496.296,43.5881 496.869,41.8247 498.369,40.7349 500.223,40.7349 501.723,41.8247 502.296,43.5881" stroke-linecap="round" stroke-width="0.5"/>
   <polyline stroke="#0071bc" stroke-linejoin="round" fill="none" points="504.801,35.5543 504.228,37.3177 502.728,38.4075 500.874,38.4075 499.374,37.3177 498.801,35.5543 499.374,33.791 500.874,32.7011 502.728,32.7011 504.228,33.791 504.801,35.5543" stroke-linecap="round" stroke-width="0.5"/>
   <polyline stroke="#0071bc" stroke-linejoin="round" fill="none" points="507.305,32.4987 506.732,34.262 505.232,35.3519 503.378,35.3519 501.878,34.262 501.305,32.4987 501.878,30.7353 503.378,29.6455 505.232,29.6455 506.732,30.7353 507.305,32.4987" stroke-linecap="round" stroke-width="0.5"/>
   <polyline stroke="#0071bc" stroke-linejoin="round" fill="none" points="509.809,35.1261 509.236,36.8894 507.736,37.9792 505.882,37.9792 504.382,36.8894 503.809,35.1261 504.382,33.3627 505.882,32.2729 507.736,32.2729 509.236,33.3627 509.809,35.1261" stroke-linecap="round" stroke-width="0.5"/>
   <polyline stroke="#0071bc" stroke-linejoin="round" fill="none" points="512.314,43.18 511.741,44.9434 510.241,46.0332 508.386,46.0332 506.886,44.9434 506.314,43.18 506.886,41.4167 508.386,40.3269 510.241,40.3269 511.741,41.4167 512.314,43.18" stroke-linecap="round" stroke-width="0.5"/>
   <polyline stroke="#0071bc" stroke-linejoin="round" fill="none" points="514.818,55.4129 514.245,57.1762 512.745,58.266 510.891,58.266 509.391,57.1762 508.818,55.4129 509.391,53.6495 510.891,52.5597 512.745,52.5597 514.245,53.6495 514.818,55.4129" stroke-linecap="round" stroke-width="0.5"/>
   <polyline stroke="#0071bc" stroke-linejoin="round" fill="none" points="517.322,69.7492 516.749,71.5125 515.249,72.6023 513.395,72.6023 511.895,71.5125 511.322,69.7492 511.895,67.9858 513.395,66.896 515.249,66.896 516.749,67.9858 517.322,69.7492" stroke-linecap="round" stroke-width="0.5"/>
   <polyline stroke="#0071bc" stroke-linejoin="round" fill="none" points="519.826,83.6305 519.253,85.3939 517.753,86.4837 515.899,86.4837 514.399,85.3939 513.826,83.6305 514.399,81.8672 515.899,80.7774 517.753,80.7774 519.253,81.8672 519.826,83.6305" stroke-linecap="round" stroke-width="0.5"/>
   <polyline stroke="#0071bc" stroke-linejoin="round" fill="none" points="522.331,94.4851 521.758,96.2485 520.258,97.3383 518.404,97.3383 516.904,96.2485 516.331,94.4851 516.904,92.7217 518.404,91.6319 520.258,91.6319 521.758,92.7217 522.331,94.4851" stroke-linecap="round" stroke-width="0.5"/>
   <polyline stroke="#0071bc" stroke-linejoin="round" fill="none" points="524.835,100.231 524.262,101.995 522.762,103.085 520.908,103.085 519.408,101.995 518.835,100.231 519.408,98.4681 520.908,97.3783 522.762,97.3783 524.262,98.4681 524.835,100.231" stroke-linecap="round" stroke-width="0.5"/>
   <polyline stroke="#0071bc" stroke-linejoin="round" fill="none" points="527.339,99.7111 526.766,101.474 525.266,102.564 523.412,102.564 521.912,101.474 521.339,99.7111 521.912,97.9477 523.412,96.8579 525.266,96.8579 526.766,97.9477 527.339,99.7111" stroke-linecap="round" stroke-width="0.5"/>
   <polyline stroke="#0071bc" stroke-linejoin="round" fill="none" points="529.844,92.9506 529.271,94.714 527.771,95.8038 525.917,95.8038 524.417,94.714 523.844,92.9506 524.417,91.1872 525.917,90.0974 527.771,90.0974 529.271,91.1872 529.844,92.9506" stroke-linecap="round" stroke-width="0.5"/>
   <polyline stroke="#0071bc" stroke-linejoin="round" fill="none" points="532.348,81.188 531.775,82.9514 530.275,84.0412 528.421,84.0412 526.921,82.9514 526.348,81.188 526.921,79.4247 528.421,78.3349 530.275,78.3349 531.775,79.4247 532.348,81.188" stroke-linecap="round" stroke-width="0.5"/>
   <polyline stroke="#0071bc" stroke-linejoin="round" fill="none" points="534.852,66.6481 534.279,68.4114 532.779,69.5013 530.925,69.5013 529.425,68.4114 528.852,66.6481 529.425,64.8847 530.925,63.7949 532.779,63.7949 534.279,64.8847 534.852,66.6481" stroke-linecap="round" stroke-width="0.5"/>
   <polyline stroke="#0071bc" stroke-linejoin="round" fill="none" points="537.356,52.1081 536.784,53.8715 535.284,54.9613 533.429,54.9613 531.929,53.8715 531.356,52.1081 531.929,50.3448 533.429,49.255 535.284,49.255 536.784,50.3448 537.356,52.1081" stroke-linecap="round" stroke-width="0.5"/>
   <polyline stroke="#0071bc" stroke-linejoin="round" fill="none" points="539.861,40.3456 539.288,42.1089 537.788,43.1987 535.934,43.1987 534.434,42.1089 533.861,40.3456 534.434,38.5822 535.934,37.4924 537.788,37.4924 539.288,38.5822 539.861,40.3456" stroke-linecap="round" stroke-width="0.5"/>
   <polyline stroke="#0071bc" stroke-linejoin="round" fill="none" points="542.365,33.5851 541.792,35.3484 540.292,36.4382 538.438,36.4382 536.938,35.3484 536.365,33.5851 536.938,31.8217 538.438,30.7319 540.292,30.7319 541.792,31.8217 542.365,33.5851" stroke-linecap="round" stroke-width="0.5"/>
   <polyline stroke="#0071bc" stroke-linejoin="round" fill="none" points="544.869,33.0647 544.296,34.8281 542.796,35.9179 540.942,35.9179 539.442,34.8281 538.869,33.0647 539.442,31.3014 540.942,30.2115 542.796,30.2115 544.296,31.3014 544.869,33.0647" stroke-linecap="round" stroke-width="0.5"/>
   <polyline stroke="#0071bc" stroke-linejoin="round" fill="none" points="547.374,38.8111 546.801,40.5744 545.301,41.6642 543.447,41.6642 541.947,40.5744 541.374,38.8111 541.947,37.0477 543.447,35.9579 545.301,35.9579 546.801,37.0477 547.374,38.8111" stroke-linecap="round" stroke-width="0.5"/>
   <polyline stroke="#0071bc" stroke-linejoin="round" fill="none" points="549.878,49.6656 549.305,51.429 547.805,52.5188 545.951,52.5188 544.451,51.429 543.878,49.6656 544.451,47.9023 545.951,46.8124 547.805,46.8124 549.305,47.9023 549.878,49.6656" stroke-linecap="round" stroke-width="0.5"/>
   <polyline stroke="#0071bc" stroke-linejoin="round" fill="none" points="552.382,63.547 551.809,65.3104 550.309,66.4002 548.455,66.4002 546.955,65.3104 546.382,63.547 546.955,61.7837 548.455,60.6938 550.309,60.6938 551.809,61.7837 552.382,63.547" stroke-linecap="round" stroke-width="0.5"/>
   <polyline stroke="#0071bc" stroke-linejoin="round" fill="none" points="554.887,77.8833 554.314,79.6467 552.814,80.7365 550.96,80.7365 549.46,79.6467 548.887,77.8833 549.46,76.1199 550.96,75.0301 552.814,75.0301 554.314,76.1199 554.887,77.8833" stroke-linecap="round" stroke-width="0.5"/>
   <polyline stroke="#0071bc" stroke-linejoin="round" fill="none" points="557.391,90.1161 556.818,91.8795 555.318,92.9693 553.464,92.9693 551.964,91.8795 551.391,90.1161 551.964,88.3528 553.464,87.2629 555.318,87.2629 556.818,88.3528 557.391,90.1161" stroke-linecap="round" stroke-width="0.5"/>
   <polyline stroke="#0071bc" stroke-linejoin="round" fill="none" points="559.895,98.1701 559.322,99.9335 557.822,101.023 555.968,101.023 554.468,99.9335 553.895,98.1701 554.468,96.4067 555.968,95.3169 557.822,95.3169 559.322,96.4067 559.895,98.1701" stroke-linecap="round" stroke-width="0.5"/>
   <polyline stroke="#0071bc" stroke-linejoin="round" fill="none" points="562.399,100.797 561.827,102.561 560.327,103.651 558.472,103.651 556.972,102.561 556.399,100.797 556.972,99.0341 558.472,97.9443 560.327,97.9443 561.827,99.0341 562.399,100.797" stroke-linecap="round" stroke-width="0.5"/>
   <polyline stroke="#0071bc" stroke-linejoin="round" fill="none" points="564.904,97.7418 564.331,99.5052 562.831,100.595 560.977,100.595 559.477,99.5052 558.904,97.7418 559.477,95.9785 560.977,94.8887 562.831,94.8887 564.331,95.9785 564.904,97.7418" stroke-linecap="round" stroke-width="0.5"/>
   <polyline stroke="#0071bc" stroke-linejoin="round" fill="none" points="567.408,89.7081 566.835,91.4715 565.335,92.5613 563.481,92.5613 561.981,91.4715 561.408,89.7081 561.981,87.9447 563.481,86.8549 565.335,86.8549 566.835,87.9447 567.408,89.7081" stroke-linecap="round" stroke-width="0.5"/>
   <polyline stroke="#0071bc" stroke-linejoin="round" fill="none" points="569.912,78.1648 569.339,79.9281 567.839,81.0179 565.985,81.0179 564.485,79.9281 563.912,78.1648 564.485,76.4014 565.985,75.3116 567.839,75.3116 569.339,76.4014 569.912,78.1648" stroke-linecap="round" stroke-width="0.5"/>
   <polyline stroke="#0071bc" stroke-linejoin="round" fill="none" points="572.417,65.0353 571.844,66.7986 570.344,67.8884 568.49,67.8884 566.99,66.7986 566.417,65.0353 566.99,63.2719 568.49,62.1821 570.344,62.1821 571.844,63.2719 572.417,65.0353" stroke-linecap="round" stroke-width="0.5"/>
   <polyline stroke="#0071bc" stroke-linejoin="round" fill="none" points="574.921,52.3472 574.348,54.1105 572.848,55.2004 570.994,55.2004 569.494,54.1105 568.921,52.3472 569.494,50.5838 570.994,49.494 572.848,49.494 574.348,50.5838 574.921,52.3472" stroke-linecap="round" stroke-width="0.5"/>
   <polyline stroke="#0071bc" stroke-linejoin="round" fill="none" points="577.425,41.9068 576.852,43.6702 575.352,44.76 573.498,44.76 571.998,43.6702 571.425,41.9068 571.998,40.1435 573.498,39.0537 575.352,39.0537 576.852,40.1435 577.425,41.9068" stroke-linecap="round" stroke-width="0.5"/>
   <polyline stroke="#0071bc" stroke-linejoin="round" fill="none" points="579.93,35.0508 579.357,36.8141 577.857,37.9039 576.003,37.9039 574.503,36.8141 573.93,35.0508 574.503,33.2874 576.003,32.1976 577.857,32.1976 579.357,33.2874 579.93,35.0508" stroke-linecap="round" stroke-width="0.5"/>
   <polyline stroke="#0071bc" stroke-linejoin="round" fill="none" points="582.434,32.5041 581.861,34.2674 580.361,35.3572 578.507,35.3572 577.007,34.2674 576.434,32.5041 577.007,30.7407 578.507,29.6509 580.361,29.6509 581.861,30.7407 582.434,32.5041" stroke-linecap="round" stroke-width="0.5"/>
   <polyline stroke="#0071bc" stroke-linejoin="round" fill="none" points="584.938,34.3506 584.365,36.1139 582.865,37.2037 581.011,37.2037 579.511,36.1139 578.938,34.3506 579.511,32.5872 581.011,31.4974 582.865,31.4974 584.365,32.5872 584.938,34.3506" stroke-linecap="round" stroke-width="0.5"/>
   <polyline stroke="#0071bc" stroke-linejoin="round" fill="none" points="587.442,40.1014 586.87,41.8648 585.37,42.9546 583.515,42.9546 582.015,41.8648 581.442,40.1014 582.015,38.3381 583.515,37.2482 585.37,37.2482 586.87,38.3381 587.442,40.1014" stroke-linecap="round" stroke-width="0.5"/>
   <polyline stroke="#0071bc" stroke-linejoin="round" fill="none" points="589.947,48.8335 589.374,50.5969 587.874,51.6867 586.02,51.6867 584.52,50.5969 583.947,48.8335 584.52,47.0702 586.02,45.9804 587.874,45.9804 589.374,47.0702 589.947,48.8335" stroke-linecap="round" stroke-width="0.5"/>
   <polyline stroke="#0071bc" stroke-linejoin="round" fill="none" points="592.451,59.365 591.878,61.1284 590.378,62.2182 588.524,62.2182 587.024,61.1284 586.451,59.365 587.024,57.6017 588.524,56.5118 590.378,56.5118 591.878,57.6017 592.451,59.365" stroke-linecap="round" stroke-width="0.5"/>
   <polyline stroke="#0071bc" stroke-linejoin="round" fill="none" points="594.955,70.4348 594.382,72.1982 592.882,73.288 591.028,73.288 589.528,72.1982 588.955,70.4348 589.528,68.6715 591.028,67.5817 592.882,67.5817 594.382,68.6715 594.955,70.4348" stroke-linecap="round" stroke-width="0.5"/>
  </g>
 </g>
</svg>
