<?xml version='1.0' encoding='UTF-8' standalone='no'?>
<svg xmlns:xlink="http://www.w3.org/1999/xlink" width="720pt" height="160pt" viewBox="0 0 720 160" xmlns="http://www.w3.org/2000/svg">
 <title>gl2ps_renderer figure</title>
 <desc>
Creator: GL2PS 1.4.0, (C) 1999-2017 C. Geuzaine
For: Octave
CreationDate: Sat Nov 28 21:22:09 2020
</desc>
 <defs/>
 <polygon points="0,0 720,0 720,160 0,160" fill="#ffffff"/>
 <g>
  <polygon points="0,160 720,160 720,0 0,0" fill="#ffffff" shape-rendering="crispEdges"/>
  <clipPath id="cp00720160">
   <polygon points="0,160 720,160 720,0 0,0"/>
  </clipPath>
  <g clip-path="url(#cp00720160)">
   <polyline stroke-linecap="round" stroke="#0071bc" points="107.76,12 107.187,13.7634 105.687,14.8532 103.833,14.8532 102.333,13.7634 101.76,12 102.333,10.2366 103.833,9.14684 105.687,9.14684 107.187,10.2366 107.76,12" stroke-width="0.5" fill="none" stroke-linejoin="round"/>
   <polyline stroke-linecap="round" stroke="#0071bc" points="118.92,139.477 118.347,141.24 116.847,142.33 114.993,142.33 113.493,141.24 112.92,139.477 113.493,137.714 114.993,136.624 116.847,136.624 118.347,137.714 118.92,139.477" stroke-width="0.5" fill="none" stroke-linejoin="round"/>
   <polyline stroke-linecap="round" stroke="#0071bc" points="130.08,139.477 129.507,141.24 128.007,142.33 126.153,142.33 124.653,141.24 124.08,139.477 124.653,137.714 126.153,136.624 128.007,136.624 129.507,137.714 130.08,139.477" stroke-width="0.5" fill="none" stroke-linejoin="round"/>
   <polyline stroke-linecap="round" stroke="#0071bc" points="141.24,139.477 140.667,141.24 139.167,142.33 137.313,142.33 135.813,141.24 135.24,139.477 135.813,137.714 137.313,136.624 139.167,136.624 140.667,137.714 141.24,139.477" stroke-width="0.5" fill="none" stroke-linejoin="round"/>
   <polyline stroke-linecap="round" stroke="#0071bc" points="152.4,139.477 151.827,141.24 150.327,142.33 148.473,142.33 146.973,141.24 146.4,139.477 146.973,137.714 148.473,136.624 150.327,136.624 151.827,137.714 152.4,139.477" stroke-width="0.5" fill="none" stroke-linejoin="round"/>
   <polyline stroke-linecap="round" stroke="#0071bc" points="163.56,139.477 162.987,141.24 161.487,142.33 159.633,142.33 158.133,141.24 157.56,139.477 158.133,137.714 159.633,136.624 161.487,136.624 162.987,137.714 163.56,139.477" stroke-width="0.5" fill="none" stroke-linejoin="round"/>
   <polyline stroke-linecap="round" stroke="#0071bc" points="174.72,139.477 174.147,141.24 172.647,142.33 170.793,142.33 169.293,141.24 168.72,139.477 169.293,137.714 170.793,136.624 172.647,136.624 174.147,137.714 174.72,139.477" stroke-width="0.5" fill="none" stroke-linejoin="round"/>
   <polyline stroke-linecap="round" stroke="#0071bc" points="185.88,139.477 185.307,141.24 183.807,142.33 181.953,142.33 180.453,141.24 179.88,139.477 180.453,137.714 181.953,136.624 183.807,136.624 185.307,137.714 185.88,139.477" stroke-width="0.5" fill="none" stroke-linejoin="round"/>
   <polyline stroke-linecap="round" stroke="#0071bc" points="197.04,139.477 196.467,141.24 194.967,142.33 193.113,142.33 191.613,141.24 191.04,139.477 191.613,137.714 193.113,136.624 194.967,136.624 196.467,137.714 197.04,139.477" stroke-width="0.5" fill="none" stroke-linejoin="round"/>
   <polyline stroke-linecap="round" stroke="#0071bc" points="208.2,139.477 207.627,141.24 206.127,142.33 204.273,142.33 202.773,141.24 202.2,139.477 202.773,137.714 204.273,136.624 206.127,136.624 207.627,137.714 208.2,139.477" stroke-width="0.5" fill="none" stroke-linejoin="round"/>
   <polyline stroke-linecap="round" stroke="#0071bc" points="219.36,139.477 218.787,141.24 217.287,142.33 215.433,142.33 213.933,141.24 213.36,139.477 213.933,137.714 215.433,136.624 217.287,136.624 218.787,137.714 219.36,139.477" stroke-width="0.5" fill="none" stroke-linejoin="round"/>
   <polyline stroke-linecap="round" stroke="#0071bc" points="230.52,139.477 229.947,141.24 228.447,142.33 226.593,142.33 225.093,141.24 224.52,139.477 225.093,137.714 226.593,136.624 228.447,136.624 229.947,137.714 230.52,139.477" stroke-width="0.5" fill="none" stroke-linejoin="round"/>
   <polyline stroke-linecap="round" stroke="#0071bc" points="241.68,139.477 241.107,141.24 239.607,142.33 237.753,142.33 236.253,141.24 235.68,139.477 236.253,137.714 237.753,136.624 239.607,136.624 241.107,137.714 241.68,139.477" stroke-width="0.5" fill="none" stroke-linejoin="round"/>
   <polyline stroke-linecap="round" stroke="#0071bc" points="252.84,139.477 252.267,141.24 250.767,142.33 248.913,142.33 247.413,141.24 246.84,139.477 247.413,137.714 248.913,136.624 250.767,136.624 252.267,137.714 252.84,139.477" stroke-width="0.5" fill="none" stroke-linejoin="round"/>
   <polyline stroke-linecap="round" stroke="#0071bc" points="264,139.477 263.427,141.24 261.927,142.33 260.073,142.33 258.573,141.24 258,139.477 258.573,137.714 260.073,136.624 261.927,136.624 263.427,137.714 264,139.477" stroke-width="0.5" fill="none" stroke-linejoin="round"/>
   <polyline stroke-linecap="round" stroke="#0071bc" points="275.16,139.477 274.587,141.24 273.087,142.33 271.233,142.33 269.733,141.24 269.16,139.477 269.733,137.714 271.233,136.624 273.087,136.624 274.587,137.714 275.16,139.477" stroke-width="0.5" fill="none" stroke-linejoin="round"/>
   <polyline stroke-linecap="round" stroke="#0071bc" points="286.32,139.477 285.747,141.24 284.247,142.33 282.393,142.33 280.893,141.24 280.32,139.477 280.893,137.714 282.393,136.624 284.247,136.624 285.747,137.714 286.32,139.477" stroke-width="0.5" fill="none" stroke-linejoin="round"/>
   <polyline stroke-linecap="round" stroke="#0071bc" points="297.48,139.477 296.907,141.24 295.407,142.33 293.553,142.33 292.053,141.24 291.48,139.477 292.053,137.714 293.553,136.624 295.407,136.624 296.907,137.714 297.48,139.477" stroke-width="0.5" fill="none" stroke-linejoin="round"/>
   <polyline stroke-linecap="round" stroke="#0071bc" points="308.64,139.477 308.067,141.24 306.567,142.33 304.713,142.33 303.213,141.24 302.64,139.477 303.213,137.714 304.713,136.624 306.567,136.624 308.067,137.714 308.64,139.477" stroke-width="0.5" fill="none" stroke-linejoin="round"/>
   <polyline stroke-linecap="round" stroke="#0071bc" points="319.8,139.477 319.227,141.24 317.727,142.33 315.873,142.33 314.373,141.24 313.8,139.477 314.373,137.714 315.873,136.624 317.727,136.624 319.227,137.714 319.8,139.477" stroke-width="0.5" fill="none" stroke-linejoin="round"/>
   <polyline stroke-linecap="round" stroke="#0071bc" points="330.96,139.477 330.387,141.24 328.887,142.33 327.033,142.33 325.533,141.24 324.96,139.477 325.533,137.714 327.033,136.624 328.887,136.624 330.387,137.714 330.96,139.477" stroke-width="0.5" fill="none" stroke-linejoin="round"/>
   <polyline stroke-linecap="round" stroke="#0071bc" points="342.12,139.477 341.547,141.24 340.047,142.33 338.193,142.33 336.693,141.24 336.12,139.477 336.693,137.714 338.193,136.624 340.047,136.624 341.547,137.714 342.12,139.477" stroke-width="0.5" fill="none" stroke-linejoin="round"/>
   <polyline stroke-linecap="round" stroke="#0071bc" points="353.28,139.477 352.707,141.24 351.207,142.33 349.353,142.33 347.853,141.24 347.28,139.477 347.853,137.714 349.353,136.624 351.207,136.624 352.707,137.714 353.28,139.477" stroke-width="0.5" fill="none" stroke-linejoin="round"/>
   <polyline stroke-linecap="round" stroke="#0071bc" points="364.44,139.477 363.867,141.24 362.367,142.33 360.513,142.33 359.013,141.24 358.44,139.477 359.013,137.714 360.513,136.624 362.367,136.624 363.867,137.714 364.44,139.477" stroke-width="0.5" fill="none" stroke-linejoin="round"/>
   <polyline stroke-linecap="round" stroke="#0071bc" points="375.6,139.477 375.027,141.24 373.527,142.33 371.673,142.33 370.173,141.24 369.6,139.477 370.173,137.714 371.673,136.624 373.527,136.624 375.027,137.714 375.6,139.477" stroke-width="0.5" fill="none" stroke-linejoin="round"/>
   <polyline stroke-linecap="round" stroke="#0071bc" points="386.76,139.477 386.187,141.24 384.687,142.33 382.833,142.33 381.333,141.24 380.76,139.477 381.333,137.714 382.833,136.624 384.687,136.624 386.187,137.714 386.76,139.477" stroke-width="0.5" fill="none" stroke-linejoin="round"/>
   <polyline stroke-linecap="round" stroke="#0071bc" points="397.92,139.477 397.347,141.24 395.847,142.33 393.993,142.33 392.493,141.24 391.92,139.477 392.493,137.714 393.993,136.624 395.847,136.624 397.347,137.714 397.92,139.477" stroke-width="0.5" fill="none" stroke-linejoin="round"/>
   <polyline stroke-linecap="round" stroke="#0071bc" points="409.08,139.477 408.507,141.24 407.007,142.33 405.153,142.33 403.653,141.24 403.08,139.477 403.653,137.714 405.153,136.624 407.007,136.624 408.507,137.714 409.08,139.477" stroke-width="0.5" fill="none" stroke-linejoin="round"/>
   <polyline stroke-linecap="round" stroke="#0071bc" points="420.24,139.477 419.667,141.24 418.167,142.33 416.313,142.33 414.813,141.24 414.24,139.477 414.813,137.714 416.313,136.624 418.167,136.624 419.667,137.714 420.24,139.477" stroke-width="0.5" fill="none" stroke-linejoin="round"/>
   <polyline stroke-linecap="round" stroke="#0071bc" points="431.4,139.477 430.827,141.24 429.327,142.33 427.473,142.33 425.973,141.24 425.4,139.477 425.973,137.714 427.473,136.624 429.327,136.624 430.827,137.714 431.4,139.477" stroke-width="0.5" fill="none" stroke-linejoin="round"/>
   <polyline stroke-linecap="round" stroke="#0071bc" points="442.56,139.477 441.987,141.24 440.487,142.33 438.633,142.33 437.133,141.24 436.56,139.477 437.133,137.714 438.633,136.624 440.487,136.624 441.987,137.714 442.56,139.477" stroke-width="0.5" fill="none" stroke-linejoin="round"/>
   <polyline stroke-linecap="round" stroke="#0071bc" points="453.72,139.477 453.147,141.24 451.647,142.33 449.793,142.33 448.293,141.24 447.72,139.477 448.293,137.714 449.793,136.624 451.647,136.624 453.147,137.714 453.72,139.477" stroke-width="0.5" fill="none" stroke-linejoin="round"/>
   <polyline stroke-linecap="round" stroke="#0071bc" points="464.88,139.477 464.307,141.24 462.807,142.33 460.953,142.33 459.453,141.24 458.88,139.477 459.453,137.714 460.953,136.624 462.807,136.624 464.307,137.714 464.88,139.477" stroke-width="0.5" fill="none" stroke-linejoin="round"/>
   <polyline stroke-linecap="round" stroke="#0071bc" points="476.04,139.477 475.467,141.24 473.967,142.33 472.113,142.33 470.613,141.24 470.04,139.477 470.613,137.714 472.113,136.624 473.967,136.624 475.467,137.714 476.04,139.477" stroke-width="0.5" fill="none" stroke-linejoin="round"/>
   <polyline stroke-linecap="round" stroke="#0071bc" points="487.2,139.477 486.627,141.24 485.127,142.33 483.273,142.33 481.773,141.24 481.2,139.477 481.773,137.714 483.273,136.624 485.127,136.624 486.627,137.714 487.2,139.477" stroke-width="0.5" fill="none" stroke-linejoin="round"/>
   <polyline stroke-linecap="round" stroke="#0071bc" points="498.36,139.477 497.787,141.24 496.287,142.33 494.433,142.33 492.933,141.24 492.36,139.477 492.933,137.714 494.433,136.624 496.287,136.624 497.787,137.714 498.36,139.477" stroke-width="0.5" fill="none" stroke-linejoin="round"/>
   <polyline stroke-linecap="round" stroke="#0071bc" points="509.52,139.477 508.947,141.24 507.447,142.33 505.593,142.33 504.093,141.24 503.52,139.477 504.093,137.714 505.593,136.624 507.447,136.624 508.947,137.714 509.52,139.477" stroke-width="0.5" fill="none" stroke-linejoin="round"/>
   <polyline stroke-linecap="round" stroke="#0071bc" points="520.68,139.477 520.107,141.24 518.607,142.33 516.753,142.33 515.253,141.24 514.68,139.477 515.253,137.714 516.753,136.624 518.607,136.624 520.107,137.714 520.68,139.477" stroke-width="0.5" fill="none" stroke-linejoin="round"/>
   <polyline stroke-linecap="round" stroke="#0071bc" points="531.84,139.477 531.267,141.24 529.767,142.33 527.913,142.33 526.413,141.24 525.84,139.477 526.413,137.714 527.913,136.624 529.767,136.624 531.267,137.714 531.84,139.477" stroke-width="0.5" fill="none" stroke-linejoin="round"/>
   <polyline stroke-linecap="round" stroke="#0071bc" points="543,139.477 542.427,141.24 540.927,142.33 539.073,142.33 537.573,141.24 537,139.477 537.573,137.714 539.073,136.624 540.927,136.624 542.427,137.714 543,139.477" stroke-width="0.5" fill="none" stroke-linejoin="round"/>
   <polyline stroke-linecap="round" stroke="#0071bc" points="554.16,139.477 553.587,141.24 552.087,142.33 550.233,142.33 548.733,141.24 548.16,139.477 548.733,137.714 550.233,136.624 552.087,136.624 553.587,137.714 554.16,139.477" stroke-width="0.5" fill="none" stroke-linejoin="round"/>
   <polyline stroke-linecap="round" stroke="#0071bc" points="565.32,139.477 564.747,141.24 563.247,142.33 561.393,142.33 559.893,141.24 559.32,139.477 559.893,137.714 561.393,136.624 563.247,136.624 564.747,137.714 565.32,139.477" stroke-width="0.5" fill="none" stroke-linejoin="round"/>
   <polyline stroke-linecap="round" stroke="#0071bc" points="576.48,139.477 575.907,141.24 574.407,142.33 572.553,142.33 571.053,141.24 570.48,139.477 571.053,137.714 572.553,136.624 574.407,136.624 575.907,137.714 576.48,139.477" stroke-width="0.5" fill="none" stroke-linejoin="round"/>
   <polyline stroke-linecap="round" stroke="#0071bc" points="587.64,139.477 587.067,141.24 585.567,142.33 583.713,142.33 582.213,141.24 581.64,139.477 582.213,137.714 583.713,136.624 585.567,136.624 587.067,137.714 587.64,139.477" stroke-width="0.5" fill="none" stroke-linejoin="round"/>
   <polyline stroke-linecap="round" stroke="#0071bc" points="598.8,139.477 598.227,141.24 596.727,142.33 594.873,142.33 593.373,141.24 592.8,139.477 593.373,137.714 594.873,136.624 596.727,136.624 598.227,137.714 598.8,139.477" stroke-width="0.5" fill="none" stroke-linejoin="round"/>
   <polyline stroke-linecap="round" stroke="#0071bc" points="609.96,139.477 609.387,141.24 607.887,142.33 606.033,142.33 604.533,141.24 603.96,139.477 604.533,137.714 606.033,136.624 607.887,136.624 609.387,137.714 609.96,139.477" stroke-width="0.5" fill="none" stroke-linejoin="round"/>
   <polyline stroke-linecap="round" stroke="#0071bc" points="621.12,12 620.547,13.7634 619.047,14.8532 617.193,14.8532 615.693,13.7634 615.12,12 615.693,10.2366 617.193,9.14684 619.047,9.14684 620.547,10.2366 621.12,12" stroke-width="0.5" fill="none" stroke-linejoin="round"/>
   <polyline stroke-linecap="round" stroke="#0071bc" points="632.28,139.477 631.707,141.24 630.207,142.33 628.353,142.33 626.853,141.24 626.28,139.477 626.853,137.714 628.353,136.624 630.207,136.624 631.707,137.714 632.28,139.477" stroke-width="0.5" fill="none" stroke-linejoin="round"/>
   <polyline stroke-linecap="round" stroke="#0071bc" points="643.44,139.477 642.867,141.24 641.367,142.33 639.513,142.33 638.013,141.24 637.44,139.477 638.013,137.714 639.513,136.624 641.367,136.624 642.867,137.714 643.44,139.477" stroke-width="0.5" fill="none" stroke-linejoin="round"/>
   <polyline stroke-linecap="round" stroke="#0071bc" points="654.6,139.477 654.027,141.24 652.527,142.33 650.673,142.33 649.173,141.24 648.6,139.477 649.173,137.714 650.673,136.624 652.527,136.624 654.027,137.714 654.6,139.477" stroke-width="0.5" fill="none" stroke-linejoin="round"/>
  </g>
 </g>
</svg>
