<?xml version='1.0' encoding='UTF-8' standalone='no'?>
<svg xmlns:xlink="http://www.w3.org/1999/xlink" height="160pt" xmlns="http://www.w3.org/2000/svg" width="720pt" viewBox="0 0 720 160">
 <title>gl2ps_renderer figure</title>
 <desc>
Creator: GL2PS 1.4.0, (C) 1999-2017 C. Geuzaine
For: Octave
CreationDate: Sat Nov 28 21:22:06 2020
</desc>
 <defs/>
 <polygon fill="#ffffff" points="0,0 720,0 720,160 0,160"/>
 <g>
  <polygon fill="#ffffff" points="0,160 720,160 720,0 0,0" shape-rendering="crispEdges"/>
  <clipPath id="cp00720160">
   <polygon points="0,160 720,160 720,0 0,0"/>
  </clipPath>
  <g clip-path="url(#cp00720160)">
   <polyline stroke="#0071bc" stroke-width="0.5" fill="none" points="93.6,37.4954 94.3972,37.4979 95.1943,37.5056 95.9915,37.5183 96.7886,37.5362 97.5857,37.5591 98.3829,37.5871 99.18,37.6203 99.9771,37.6585 100.774,37.7018 101.571,37.7501 102.369,37.8036 103.166,37.8621 103.963,37.9257 104.76,37.9943 105.557,38.068 106.354,38.1467 107.151,38.2304 107.949,38.3192 108.746,38.413 109.543,38.5118 110.34,38.6156 111.137,38.7244 111.934,38.8382 112.731,38.9569 113.529,39.0806 114.326,39.2092 115.123,39.3427 115.92,39.4812 116.717,39.6246 117.514,39.7728 118.311,39.9259 119.109,40.0839 119.906,40.2467 120.703,40.4144 121.5,40.5868 122.297,40.7641 123.094,40.9461 123.891,41.1328 124.689,41.3243 125.486,41.5205 126.283,41.7215 127.08,41.927 127.877,42.1373 128.674,42.3522 129.471,42.5717 130.269,42.7958 131.066,43.0244 131.863,43.2576 132.66,43.4953 133.457,43.7375 134.254,43.9842 135.051,44.2354 135.849,44.491 136.646,44.7509 137.443,45.0153 138.24,45.284 139.037,45.557 139.834,45.8343 140.631,46.1159 141.429,46.4017 142.226,46.6917 143.023,46.9859 143.82,47.2842 144.617,47.5867 145.414,47.8932 146.211,48.2038 147.009,48.5185 147.806,48.8371 148.603,49.1597 149.4,49.4863 150.197,49.8167 150.994,50.151 151.791,50.4891 152.589,50.8311 153.386,51.1768 154.183,51.5262 154.98,51.8793 155.777,52.2361 156.574,52.5965 157.371,52.9605 158.169,53.3281 158.966,53.6992 159.763,54.0737 160.56,54.4517 161.357,54.8331 162.154,55.2179 162.951,55.606 163.749,55.9973 164.546,56.392 165.343,56.7898 166.14,57.1908 166.937,57.5949 167.734,58.0021 168.531,58.4124 169.329,58.8257 170.126,59.2419 170.923,59.6611 171.72,60.0831 172.517,60.508 173.314,60.9357 174.111,61.3662 174.909,61.7993 175.706,62.2351 176.503,62.6736 177.3,63.1146 178.097,63.5582 178.894,64.0042 179.691,64.4528 180.489,64.9037 181.286,65.3569 182.083,65.8125 182.88,66.2704 183.677,66.7304 184.474,67.1927 185.271,67.6571 186.069,68.1235 186.866,68.592 187.663,69.0625 188.46,69.5349 189.257,70.0093 190.054,70.4854 190.851,70.9634 191.649,71.4431 192.446,71.9245 193.243,72.4076 194.04,72.8923 194.837,73.3786 195.634,73.8663 196.431,74.3555 197.229,74.8462 198.026,75.3382 198.823,75.8315 199.62,76.3261 200.417,76.8219 201.214,77.3188 202.011,77.8169 202.809,78.3161 203.606,78.8162 204.403,79.3174 205.2,79.8194 205.997,80.3223 206.794,80.826 207.591,81.3305 208.389,81.8357 209.186,82.3416 209.983,82.8481 210.78,83.3552 211.577,83.8627 212.374,84.3708 213.171,84.8792 213.969,85.388 214.766,85.8971 215.563,86.4065 216.36,86.9161 217.157,87.4258 217.954,87.9357 218.751,88.4455 219.549,88.9555 220.346,89.4653 221.143,89.9751 221.94,90.4847 222.737,90.9941 223.534,91.5032 224.331,92.0121 225.129,92.5206 225.926,93.0287 226.723,93.5363 227.52,94.0435 228.317,94.5501 229.114,95.056 229.911,95.5614 230.709,96.066 231.506,96.5698 232.303,97.0729 233.1,97.5751 233.897,98.0763 234.694,98.5767 235.491,99.076 236.289,99.5742 237.086,100.071 237.883,100.567 238.68,101.062 239.477,101.556 240.274,102.048 241.071,102.539 241.869,103.028 242.666,103.516 243.463,104.003 244.26,104.488 245.057,104.971 245.854,105.453 246.651,105.933 247.449,106.411 248.246,106.887 249.043,107.362 249.84,107.835 250.637,108.305 251.434,108.774 252.231,109.241 253.029,109.706 253.826,110.168 254.623,110.629 255.42,111.087 256.217,111.543 257.014,111.997 257.811,112.448 258.609,112.897 259.406,113.343 260.203,113.787 261,114.229 261.797,114.668 262.594,115.104 263.391,115.537 264.189,115.968 264.986,116.396 265.783,116.822 266.58,117.244 267.377,117.664 268.174,118.081 268.971,118.494 269.769,118.905 270.566,119.313 271.363,119.717 272.16,120.119 272.957,120.517 273.754,120.912 274.551,121.304 275.349,121.693 276.146,122.078 276.943,122.46 277.74,122.839 278.537,123.214 279.334,123.585 280.131,123.953 280.929,124.318 281.726,124.679 282.523,125.036 283.32,125.39 284.117,125.74 284.914,126.086 285.711,126.429 286.509,126.768 287.306,127.103 288.103,127.434 288.9,127.761 289.697,128.084 290.494,128.403 291.291,128.719 292.089,129.03 292.886,129.337 293.683,129.64 294.48,129.939 295.277,130.234 296.074,130.525 296.871,130.811 297.669,131.093 298.466,131.371 299.263,131.645 300.06,131.915 300.857,132.18 301.654,132.44 302.451,132.697 303.249,132.948 304.046,133.196 304.843,133.439 305.64,133.677 306.437,133.911 307.234,134.14 308.031,134.365 308.829,134.585 309.626,134.801 310.423,135.012 311.22,135.218 312.017,135.42 312.814,135.617 313.611,135.809 314.409,135.997 315.206,136.18 316.003,136.358 316.8,136.531 317.597,136.699 318.394,136.863 319.191,137.022 319.989,137.175 320.786,137.324 321.583,137.469 322.38,137.608 323.177,137.742 323.974,137.872 324.771,137.996 325.569,138.116 326.366,138.23 327.163,138.34 327.96,138.444 328.757,138.544 329.554,138.638 330.351,138.728 331.149,138.813 331.946,138.892 332.743,138.967 333.54,139.036 334.337,139.1 335.134,139.16 335.931,139.214 336.729,139.263 337.526,139.307 338.323,139.346 339.12,139.38 339.917,139.409 340.714,139.433 341.511,139.451 342.309,139.465 343.106,139.473 343.903,139.477 344.7,139.475 345.497,139.468 346.294,139.456 347.091,139.439 347.889,139.417 348.686,139.39 349.483,139.358 350.28,139.32 351.077,139.278 351.874,139.23 352.671,139.178 353.469,139.12 354.266,139.057 355.063,138.989 355.86,138.916 356.657,138.839 357.454,138.756 358.251,138.668 359.049,138.575 359.846,138.477 360.643,138.374 361.44,138.266 362.237,138.153 363.034,138.035 363.831,137.912 364.629,137.784 365.426,137.651 366.223,137.513 367.02,137.371 367.817,137.223 368.614,137.071 369.411,136.914 370.209,136.752 371.006,136.585 371.803,136.413 372.6,136.237 373.397,136.056 374.194,135.87 374.991,135.679 375.789,135.483 376.586,135.283 377.383,135.078 378.18,134.869 378.977,134.655 379.774,134.436 380.571,134.213 381.369,133.985 382.166,133.752 382.963,133.515 383.76,133.274 384.557,133.028 385.354,132.777 386.151,132.522 386.949,132.263 387.746,131.999 388.543,131.731 389.34,131.459 390.137,131.182 390.934,130.902 391.731,130.616 392.529,130.327 393.326,130.034 394.123,129.736 394.92,129.434 395.717,129.128 396.514,128.818 397.311,128.504 398.109,128.186 398.906,127.864 399.703,127.538 400.5,127.208 401.297,126.875 402.094,126.537 402.891,126.196 403.689,125.851 404.486,125.502 405.283,125.149 406.08,124.793 406.877,124.433 407.674,124.07 408.471,123.703 409.269,123.332 410.066,122.958 410.863,122.581 411.66,122.2 412.457,121.816 413.254,121.428 414.051,121.038 414.849,120.643 415.646,120.246 416.443,119.846 417.24,119.442 418.037,119.035 418.834,118.625 419.632,118.213 420.429,117.797 421.226,117.378 422.023,116.957 422.82,116.532 423.617,116.105 424.414,115.675 425.211,115.242 426.009,114.807 426.806,114.369 427.603,113.928 428.4,113.485 429.197,113.039 429.994,112.591 430.791,112.141 431.589,111.688 432.386,111.232 433.183,110.775 433.98,110.315 434.777,109.853 435.574,109.389 436.371,108.923 437.169,108.455 437.966,107.985 438.763,107.513 439.56,107.039 440.357,106.563 441.154,106.085 441.951,105.606 442.749,105.125 443.546,104.642 444.343,104.157 445.14,103.671 445.937,103.184 446.734,102.695 447.531,102.204 448.329,101.713 449.126,101.219 449.923,100.725 450.72,100.229 451.517,99.7327 452.314,99.2348 453.111,98.7358 453.909,98.2358 454.706,97.7348 455.503,97.2329 456.3,96.7301 457.097,96.2265 457.894,95.7222 458.691,95.2171 459.489,94.7113 460.286,94.2049 461.083,93.6979 461.88,93.1904 462.677,92.6825 463.474,92.1741 464.271,91.6654 465.069,91.1563 465.866,90.647 466.663,90.1374 467.46,89.6277 468.257,89.1179 469.054,88.608 469.851,88.0981 470.649,87.5882 471.446,87.0784 472.243,86.5688 473.04,86.0593 473.837,85.5501 474.634,85.0412 475.431,84.5327 476.229,84.0245 477.026,83.5168 477.823,83.0096 478.62,82.5029 479.417,81.9968 480.214,81.4914 481.012,80.9867 481.809,80.4827 482.606,79.9795 483.403,79.4772 484.2,78.9757 484.997,78.4753 485.794,77.9758 486.591,77.4774 487.389,76.98 488.186,76.4839 488.983,75.9889 489.78,75.4952 490.577,75.0028 491.374,74.5117 492.171,74.022 492.969,73.5338 493.766,73.047 494.563,72.5618 495.36,72.0782 496.157,71.5963 496.954,71.116 497.751,70.6375 498.549,70.1607 499.346,69.6858 500.143,69.2128 500.94,68.7417 501.737,68.2725 502.534,67.8054 503.331,67.3404 504.129,66.8774 504.926,66.4167 505.723,65.9581 506.52,65.5018 507.317,65.0478 508.114,64.5961 508.911,64.1469 509.709,63.7 510.506,63.2556 511.303,62.8138 512.1,62.3745 512.897,61.9379 513.694,61.5039 514.491,61.0725 515.289,60.644 516.086,60.2182 516.883,59.7952 517.68,59.3751 518.477,58.958 519.274,58.5437 520.071,58.1325 520.869,57.7243 521.666,57.3192 522.463,56.9172 523.26,56.5183 524.057,56.1227 524.854,55.7303 525.651,55.3411 526.449,54.9553 527.246,54.5728 528.043,54.1937 528.84,53.8181 529.637,53.4459 530.434,53.0772 531.231,52.7121 532.029,52.3505 532.826,51.9926 533.623,51.6383 534.42,51.2877 535.217,50.9408 536.014,50.5976 536.811,50.2583 537.609,49.9228 538.406,49.5911 539.203,49.2633 540,48.9395 540.797,48.6196 541.594,48.3036 542.391,47.9917 543.189,47.6839 543.986,47.3801 544.783,47.0805 545.58,46.7849 546.377,46.4936 547.174,46.2064 547.971,45.9235 548.769,45.6448 549.566,45.3705 550.363,45.1004 551.16,44.8347 551.957,44.5733 552.754,44.3163 553.552,44.0638 554.349,43.8156 555.146,43.572 555.943,43.3328 556.74,43.0982 557.537,42.8681 558.334,42.6425 559.132,42.4216 559.929,42.2052 560.726,41.9935 561.523,41.7864 562.32,41.584 563.117,41.3863 563.914,41.1933 564.711,41.005 565.509,40.8215 566.306,40.6428 567.103,40.4688 567.9,40.2996 568.697,40.1353 569.494,39.9757 570.292,39.8211 571.089,39.6713 571.886,39.5263 572.683,39.3863 573.48,39.2512 574.277,39.121 575.074,38.9958 575.872,38.8754 576.669,38.7601 577.466,38.6497 578.263,38.5443 579.06,38.4439 579.857,38.3485 580.654,38.2582 581.451,38.1728 582.249,38.0925 583.046,38.0172 583.843,37.947 584.64,37.8818 585.437,37.8217 586.234,37.7666 587.031,37.7166 587.829,37.6717 588.626,37.6319 589.423,37.5971 590.22,37.5675 591.017,37.5429 591.814,37.5235 592.612,37.5091 593.409,37.4998 594.206,37.4956" stroke-linejoin="round" stroke-linecap="butt"/>
   <polyline stroke="#d85218" stroke-width="0.5" fill="none" points="93.6,88.4862 94.3972,87.9763 95.1943,87.4664 95.9915,86.9567 96.7886,86.4471 97.5857,85.9377 98.3829,85.4285 99.18,84.9197 99.9771,84.4112 100.774,83.9032 101.571,83.3956 102.369,82.8885 103.166,82.3819 103.963,81.876 104.76,81.3707 105.557,80.8662 106.354,80.3624 107.151,79.8594 107.949,79.3573 108.746,78.8561 109.543,78.3559 110.34,77.8566 111.137,77.3585 111.934,76.8614 112.731,76.3655 113.529,75.8708 114.326,75.3774 115.123,74.8853 115.92,74.3946 116.717,73.9052 117.514,73.4174 118.311,72.931 119.109,72.4462 119.906,71.963 120.703,71.4814 121.5,71.0015 122.297,70.5234 123.094,70.0471 123.891,69.5726 124.689,69.1001 125.486,68.6294 126.283,68.1608 127.08,67.6941 127.877,67.2296 128.674,66.7672 129.471,66.3069 130.269,65.8489 131.066,65.3931 131.863,64.9397 132.66,64.4886 133.457,64.0399 134.254,63.5936 135.051,63.1499 135.849,62.7086 136.646,62.27 137.443,61.8339 138.24,61.4006 139.037,60.9699 139.834,60.542 140.631,60.1169 141.429,59.6946 142.226,59.2752 143.023,58.8587 143.82,58.4452 144.617,58.0347 145.414,57.6272 146.211,57.2229 147.009,56.8216 147.806,56.4235 148.603,56.0286 149.4,55.637 150.197,55.2486 150.994,54.8636 151.791,54.482 152.589,54.1037 153.386,53.7289 154.183,53.3575 154.98,52.9897 155.777,52.6254 156.574,52.2647 157.371,51.9076 158.169,51.5542 158.966,51.2045 159.763,50.8585 160.56,50.5162 161.357,50.1778 162.154,49.8432 162.951,49.5124 163.749,49.1856 164.546,48.8627 165.343,48.5437 166.14,48.2288 166.937,47.9178 167.734,47.6109 168.531,47.3082 169.329,47.0095 170.126,46.715 170.923,46.4246 171.72,46.1385 172.517,45.8566 173.314,45.5789 174.111,45.3055 174.909,45.0365 175.706,44.7718 176.503,44.5115 177.3,44.2556 178.097,44.0041 178.894,43.757 179.691,43.5145 180.489,43.2764 181.286,43.0428 182.083,42.8138 182.88,42.5893 183.677,42.3695 184.474,42.1542 185.271,41.9436 186.069,41.7377 186.866,41.5364 187.663,41.3398 188.46,41.1479 189.257,40.9608 190.054,40.7784 190.851,40.6008 191.649,40.4279 192.446,40.2599 193.243,40.0967 194.04,39.9383 194.837,39.7848 195.634,39.6362 196.431,39.4924 197.229,39.3536 198.026,39.2196 198.823,39.0906 199.62,38.9666 200.417,38.8474 201.214,38.7333 202.011,38.6241 202.809,38.5199 203.606,38.4207 204.403,38.3265 205.2,38.2373 205.997,38.1532 206.794,38.074 207.591,38 208.389,37.9309 209.186,37.867 209.983,37.808 210.78,37.7542 211.577,37.7054 212.374,37.6617 213.171,37.6231 213.969,37.5896 214.766,37.5612 215.563,37.5378 216.36,37.5196 217.157,37.5064 217.954,37.4984 218.751,37.4954 219.549,37.4976 220.346,37.5048 221.143,37.5171 221.94,37.5346 222.737,37.5571 223.534,37.5847 224.331,37.6174 225.129,37.6552 225.926,37.6981 226.723,37.7461 227.52,37.7991 228.317,37.8572 229.114,37.9204 229.911,37.9886 230.709,38.0619 231.506,38.1402 232.303,38.2236 233.1,38.312 233.897,38.4054 234.694,38.5038 235.491,38.6072 236.289,38.7155 237.086,38.8289 237.883,38.9473 238.68,39.0705 239.477,39.1988 240.274,39.3319 241.071,39.47 241.869,39.613 242.666,39.7608 243.463,39.9136 244.26,40.0712 245.057,40.2336 245.854,40.4008 246.651,40.5729 247.449,40.7498 248.246,40.9314 249.043,41.1178 249.84,41.3089 250.637,41.5048 251.434,41.7053 252.231,41.9105 253.029,42.1204 253.826,42.3349 254.623,42.554 255.42,42.7777 256.217,43.006 257.014,43.2389 257.811,43.4762 258.609,43.7181 259.406,43.9644 260.203,44.2152 261,44.4705 261.797,44.7301 262.594,44.9941 263.391,45.2624 264.189,45.5351 264.986,45.812 265.783,46.0933 266.58,46.3787 267.377,46.6684 268.174,46.9623 268.971,47.2603 269.769,47.5624 270.566,47.8687 271.363,48.179 272.16,48.4933 272.957,48.8116 273.754,49.1339 274.551,49.4601 275.349,49.7902 276.146,50.1242 276.943,50.4621 277.74,50.8037 278.537,51.1491 279.334,51.4982 280.131,51.8511 280.929,52.2076 281.726,52.5677 282.523,52.9314 283.32,53.2987 284.117,53.6695 284.914,54.0438 285.711,54.4215 286.509,54.8026 287.306,55.1871 288.103,55.5749 288.9,55.966 289.697,56.3604 290.494,56.758 291.291,57.1587 292.089,57.5626 292.886,57.9696 293.683,58.3796 294.48,58.7927 295.277,59.2087 296.074,59.6276 296.871,60.0494 297.669,60.4741 298.466,60.9016 299.263,61.3318 300.06,61.7647 300.857,62.2003 301.654,62.6386 302.451,63.0794 303.249,63.5228 304.046,63.9686 304.843,64.417 305.64,64.8677 306.437,65.3208 307.234,65.7762 308.031,66.2338 308.829,66.6937 309.626,67.1558 310.423,67.62 311.22,68.0863 312.017,68.5546 312.814,69.025 313.611,69.4972 314.409,69.9714 315.206,70.4474 316.003,70.9253 316.8,71.4049 317.597,71.8861 318.394,72.3691 319.191,72.8537 319.989,73.3398 320.786,73.8274 321.583,74.3165 322.38,74.8071 323.177,75.299 323.974,75.7922 324.771,76.2867 325.569,76.7823 326.366,77.2792 327.163,77.7772 327.96,78.2763 328.757,78.7764 329.554,79.2774 330.351,79.7794 331.149,80.2822 331.946,80.7859 332.743,81.2903 333.54,81.7955 334.337,82.3013 335.134,82.8078 335.931,83.3148 336.729,83.8223 337.526,84.3303 338.323,84.8387 339.12,85.3475 339.917,85.8566 340.714,86.3659 341.511,86.8755 342.309,87.3852 343.106,87.8951 343.903,88.4049 344.7,88.9148 345.497,89.4247 346.294,89.9345 347.091,90.4441 347.889,90.9535 348.686,91.4627 349.483,91.9716 350.28,92.4801 351.077,92.9882 351.874,93.4959 352.671,94.0031 353.469,94.5097 354.266,95.0158 355.063,95.5211 355.86,96.0258 356.657,96.5297 357.454,97.0328 358.251,97.5351 359.049,98.0365 359.846,98.5368 360.643,99.0362 361.44,99.5346 362.237,100.032 363.034,100.528 363.831,101.023 364.629,101.516 365.426,102.009 366.223,102.5 367.02,102.989 367.817,103.477 368.614,103.964 369.411,104.449 370.209,104.933 371.006,105.414 371.803,105.894 372.6,106.373 373.397,106.849 374.194,107.324 374.991,107.797 375.789,108.268 376.586,108.737 377.383,109.204 378.18,109.669 378.977,110.132 379.774,110.592 380.571,111.051 381.369,111.507 382.166,111.961 382.963,112.412 383.76,112.861 384.557,113.308 385.354,113.752 386.151,114.194 386.949,114.633 387.746,115.069 388.543,115.503 389.34,115.934 390.137,116.362 390.934,116.788 391.731,117.211 392.529,117.631 393.326,118.047 394.123,118.461 394.92,118.872 395.717,119.28 396.514,119.685 397.311,120.087 398.109,120.486 398.906,120.881 399.703,121.273 400.5,121.662 401.297,122.048 402.094,122.43 402.891,122.809 403.689,123.184 404.486,123.556 405.283,123.924 406.08,124.289 406.877,124.65 407.674,125.008 408.471,125.362 409.269,125.712 410.066,126.059 410.863,126.402 411.66,126.741 412.457,127.076 413.254,127.407 414.051,127.735 414.849,128.058 415.646,128.378 416.443,128.694 417.24,129.005 418.037,129.313 418.834,129.616 419.632,129.916 420.429,130.211 421.226,130.502 422.023,130.789 422.82,131.071 423.617,131.349 424.414,131.624 425.211,131.893 426.009,132.159 426.806,132.42 427.603,132.676 428.4,132.928 429.197,133.176 429.994,133.42 430.791,133.658 431.589,133.893 432.386,134.122 433.183,134.348 433.98,134.568 434.777,134.784 435.574,134.995 436.371,135.202 437.169,135.404 437.966,135.602 438.763,135.794 439.56,135.982 440.357,136.165 441.154,136.344 441.951,136.517 442.749,136.686 443.546,136.85 444.343,137.009 445.14,137.163 445.937,137.313 446.734,137.457 447.531,137.597 448.329,137.732 449.126,137.861 449.923,137.986 450.72,138.106 451.517,138.221 452.314,138.331 453.111,138.436 453.909,138.536 454.706,138.631 455.503,138.721 456.3,138.806 457.097,138.886 457.894,138.961 458.691,139.031 459.489,139.096 460.286,139.155 461.083,139.21 461.88,139.259 462.677,139.304 463.474,139.343 464.271,139.378 465.069,139.407 465.866,139.431 466.663,139.45 467.46,139.464 468.257,139.473 469.054,139.477 469.851,139.475 470.649,139.469 471.446,139.457 472.243,139.441 473.04,139.419 473.837,139.392 474.634,139.36 475.431,139.323 476.229,139.281 477.026,139.234 477.823,139.182 478.62,139.125 479.417,139.062 480.214,138.995 481.012,138.922 481.809,138.845 482.606,138.762 483.403,138.675 484.2,138.582 484.997,138.485 485.794,138.382 486.591,138.274 487.389,138.162 488.186,138.044 488.983,137.922 489.78,137.794 490.577,137.662 491.374,137.525 492.171,137.382 492.969,137.235 493.766,137.083 494.563,136.927 495.36,136.765 496.157,136.598 496.954,136.427 497.751,136.251 498.549,136.07 499.346,135.885 500.143,135.694 500.94,135.499 501.737,135.299 502.534,135.095 503.331,134.886 504.129,134.672 504.926,134.454 505.723,134.231 506.52,134.003 507.317,133.771 508.114,133.534 508.911,133.293 509.709,133.047 510.506,132.797 511.303,132.543 512.1,132.284 512.897,132.021 513.694,131.753 514.491,131.481 515.289,131.205 516.086,130.924 516.883,130.639 517.68,130.35 518.477,130.057 519.274,129.76 520.071,129.458 520.869,129.153 521.666,128.843 522.463,128.529 523.26,128.212 524.057,127.89 524.854,127.564 525.651,127.235 526.449,126.902 527.246,126.564 528.043,126.223 528.84,125.878 529.637,125.53 530.434,125.178 531.231,124.822 532.029,124.462 532.826,124.099 533.623,123.732 534.42,123.362 535.217,122.988 536.014,122.611 536.811,122.231 537.609,121.847 538.406,121.459 539.203,121.069 540,120.675 540.797,120.278 541.594,119.878 542.391,119.474 543.189,119.068 543.986,118.658 544.783,118.246 545.58,117.83 546.377,117.412 547.174,116.99 547.971,116.566 548.769,116.139 549.566,115.709 550.363,115.277 551.16,114.842 551.957,114.404 552.754,113.963 553.552,113.52 554.349,113.075 555.146,112.627 555.943,112.177 556.74,111.724 557.537,111.269 558.334,110.812 559.132,110.352 559.929,109.89 560.726,109.426 561.523,108.96 562.32,108.492 563.117,108.022 563.914,107.55 564.711,107.077 565.509,106.601 566.306,106.123 567.103,105.644 567.9,105.163 568.697,104.68 569.494,104.196 570.292,103.71 571.089,103.223 571.886,102.734 572.683,102.243 573.48,101.752 574.277,101.259 575.074,100.764 575.872,100.269 576.669,99.7723 577.466,99.2745 578.263,98.7756 579.06,98.2757 579.857,97.7748 580.654,97.2729 581.451,96.7702 582.249,96.2667 583.046,95.7624 583.843,95.2573 584.64,94.7516 585.437,94.2452 586.234,93.7383 587.031,93.2309 587.829,92.7229 588.626,92.2146 589.423,91.7059 590.22,91.1968 591.017,90.6875 591.814,90.178 592.612,89.6683 593.409,89.1585 594.206,88.6486" stroke-linejoin="round" stroke-linecap="butt"/>
   <polyline stroke="#0000ff" stroke-width="0.5" fill="none" points="168.151,56.6939 167.578,58.4573 166.078,59.5471 164.224,59.5471 162.724,58.4573 162.151,56.6939 162.724,54.9306 164.224,53.8408 166.078,53.8408 167.578,54.9306 168.151,56.6939" stroke-linejoin="round" stroke-linecap="round"/>
   <polyline stroke="#ff0000" stroke-width="0.5" fill="none" points="168.151,48.62 167.578,50.3833 166.078,51.4731 164.224,51.4731 162.724,50.3833 162.151,48.62 162.724,46.8566 164.224,45.7668 166.078,45.7668 167.578,46.8566 168.151,48.62" stroke-linejoin="round" stroke-linecap="round"/>
   <polyline stroke="#0000ff" stroke-width="0.5" fill="none" points="96.6,37.4954 96.0271,39.2587 94.5271,40.3486 92.6729,40.3486 91.1729,39.2587 90.6,37.4954 91.1729,35.732 92.6729,34.6422 94.5271,34.6422 96.0271,35.732 96.6,37.4954" stroke-linejoin="round" stroke-linecap="round"/>
   <polyline stroke="#0000ff" stroke-width="0.5" fill="none" points="168.151,56.6939 167.578,58.4573 166.078,59.5471 164.224,59.5471 162.724,58.4573 162.151,56.6939 162.724,54.9306 164.224,53.8408 166.078,53.8408 167.578,54.9306 168.151,56.6939" stroke-linejoin="round" stroke-linecap="round"/>
   <polyline stroke="#0000ff" stroke-width="0.5" fill="none" points="239.703,99.8327 239.13,101.596 237.63,102.686 235.776,102.686 234.276,101.596 233.703,99.8327 234.276,98.0693 235.776,96.9795 237.63,96.9795 239.13,98.0693 239.703,99.8327" stroke-linejoin="round" stroke-linecap="round"/>
   <polyline stroke="#0000ff" stroke-width="0.5" fill="none" points="311.254,134.427 310.681,136.191 309.181,137.28 307.327,137.28 305.827,136.191 305.254,134.427 305.827,132.664 307.327,131.574 309.181,131.574 310.681,132.664 311.254,134.427" stroke-linejoin="round" stroke-linecap="round"/>
   <polyline stroke="#0000ff" stroke-width="0.5" fill="none" points="382.806,134.427 382.233,136.191 380.733,137.28 378.878,137.28 377.378,136.191 376.806,134.427 377.378,132.664 378.878,131.574 380.733,131.574 382.233,132.664 382.806,134.427" stroke-linejoin="round" stroke-linecap="round"/>
   <polyline stroke="#0000ff" stroke-width="0.5" fill="none" points="454.357,99.8327 453.784,101.596 452.284,102.686 450.43,102.686 448.93,101.596 448.357,99.8327 448.93,98.0693 450.43,96.9795 452.284,96.9795 453.784,98.0693 454.357,99.8327" stroke-linejoin="round" stroke-linecap="round"/>
   <polyline stroke="#0000ff" stroke-width="0.5" fill="none" points="525.908,56.6939 525.335,58.4573 523.835,59.5471 521.981,59.5471 520.481,58.4573 519.908,56.6939 520.481,54.9306 521.981,53.8408 523.835,53.8408 525.335,54.9306 525.908,56.6939" stroke-linejoin="round" stroke-linecap="round"/>
   <polyline stroke="#0000ff" stroke-width="0.5" fill="none" points="597.46,37.4954 596.887,39.2587 595.387,40.3486 593.533,40.3486 592.033,39.2587 591.46,37.4954 592.033,35.732 593.533,34.6422 595.387,34.6422 596.887,35.732 597.46,37.4954" stroke-linejoin="round" stroke-linecap="round"/>
   <polyline stroke="#ff0000" stroke-width="0.5" fill="none" points="96.6,88.4862 96.0271,90.2495 94.5271,91.3393 92.6729,91.3393 91.1729,90.2495 90.6,88.4862 91.1729,86.7228 92.6729,85.633 94.5271,85.633 96.0271,86.7228 96.6,88.4862" stroke-linejoin="round" stroke-linecap="round"/>
   <polyline stroke="#ff0000" stroke-width="0.5" fill="none" points="168.151,48.62 167.578,50.3833 166.078,51.4731 164.224,51.4731 162.724,50.3833 162.151,48.62 162.724,46.8566 164.224,45.7668 166.078,45.7668 167.578,46.8566 168.151,48.62" stroke-linejoin="round" stroke-linecap="round"/>
   <polyline stroke="#ff0000" stroke-width="0.5" fill="none" points="239.703,38.7738 239.13,40.5372 237.63,41.627 235.776,41.627 234.276,40.5372 233.703,38.7738 234.276,37.0105 235.776,35.9207 237.63,35.9207 239.13,37.0105 239.703,38.7738" stroke-linejoin="round" stroke-linecap="round"/>
   <polyline stroke="#ff0000" stroke-width="0.5" fill="none" points="311.254,66.3621 310.681,68.1254 309.181,69.2153 307.327,69.2153 305.827,68.1254 305.254,66.3621 305.827,64.5987 307.327,63.5089 309.181,63.5089 310.681,64.5987 311.254,66.3621" stroke-linejoin="round" stroke-linecap="round"/>
   <polyline stroke="#ff0000" stroke-width="0.5" fill="none" points="382.806,110.61 382.233,112.374 380.733,113.463 378.878,113.463 377.378,112.374 376.806,110.61 377.378,108.847 378.878,107.757 380.733,107.757 382.233,108.847 382.806,110.61" stroke-linejoin="round" stroke-linecap="round"/>
   <polyline stroke="#ff0000" stroke-width="0.5" fill="none" points="454.357,138.198 453.784,139.962 452.284,141.052 450.43,141.052 448.93,139.962 448.357,138.198 448.93,136.435 450.43,135.345 452.284,135.345 453.784,136.435 454.357,138.198" stroke-linejoin="round" stroke-linecap="round"/>
   <polyline stroke="#ff0000" stroke-width="0.5" fill="none" points="525.908,128.352 525.335,130.116 523.835,131.206 521.981,131.206 520.481,130.116 519.908,128.352 520.481,126.589 521.981,125.499 523.835,125.499 525.335,126.589 525.908,128.352" stroke-linejoin="round" stroke-linecap="round"/>
   <polyline stroke="#ff0000" stroke-width="0.5" fill="none" points="597.46,88.4862 596.887,90.2495 595.387,91.3393 593.533,91.3393 592.033,90.2495 591.46,88.4862 592.033,86.7228 593.533,85.633 595.387,85.633 596.887,86.7228 597.46,88.4862" stroke-linejoin="round" stroke-linecap="round"/>
  </g>
 </g>
</svg>
